<?xml version="1.0" encoding="UTF-8" standalone="no"?>
<svg
   xmlns:dc="http://purl.org/dc/elements/1.1/"
   xmlns:cc="http://creativecommons.org/ns#"
   xmlns:rdf="http://www.w3.org/1999/02/22-rdf-syntax-ns#"
   xmlns:svg="http://www.w3.org/2000/svg"
   xmlns="http://www.w3.org/2000/svg"
   xmlns:sodipodi="http://sodipodi.sourceforge.net/DTD/sodipodi-0.dtd"
   xmlns:inkscape="http://www.inkscape.org/namespaces/inkscape"
   style="fill-opacity:1; color-rendering:auto; color-interpolation:auto; text-rendering:auto; stroke:black; stroke-linecap:square; stroke-miterlimit:10; shape-rendering:auto; stroke-opacity:1; fill:black; stroke-dasharray:none; font-weight:normal; stroke-width:1; font-family:'Dialog'; font-style:normal; stroke-linejoin:miter; font-size:12px; stroke-dashoffset:0; image-rendering:auto;"
   width="560"
   height="420"
   version="1.1"
   id="svg2673"
   sodipodi:docname="UnclampedDensity.svg"
   inkscape:version="0.92.4 (5da689c313, 2019-01-14)">
  <metadata
     id="metadata2677">
    <rdf:RDF>
      <cc:Work
         rdf:about="">
        <dc:format>image/svg+xml</dc:format>
        <dc:type
           rdf:resource="http://purl.org/dc/dcmitype/StillImage" />
      </cc:Work>
    </rdf:RDF>
  </metadata>
  <sodipodi:namedview
     pagecolor="#ffffff"
     bordercolor="#666666"
     borderopacity="1"
     objecttolerance="10"
     gridtolerance="10"
     guidetolerance="10"
     inkscape:pageopacity="0"
     inkscape:pageshadow="2"
     inkscape:window-width="1920"
     inkscape:window-height="1147"
     id="namedview2675"
     showgrid="false"
     inkscape:zoom="2.05"
     inkscape:cx="289.43216"
     inkscape:cy="222.22653"
     inkscape:window-x="-8"
     inkscape:window-y="-8"
     inkscape:window-maximized="1"
     inkscape:current-layer="svg2673" />
  <!--Generated by the Batik Graphics2D SVG Generator-->
  <defs
     id="genericDefs" />
  <g
     id="g2671">
    <defs
       id="defs1">
      <clipPath
         clipPathUnits="userSpaceOnUse"
         id="clipPath1">
        <path
           d="M0 0 L560 0 L560 420 L0 420 L0 0 Z"
           id="path2435" />
      </clipPath>
    </defs>
    <g
       style="fill:white; stroke:white;"
       id="g2441">
      <rect
         x="0"
         y="0"
         width="560"
         style="clip-path:url(#clipPath1); stroke:none;"
         height="420"
         clip-path="url(#clipPath1)"
         id="rect2439" />
    </g>
    <g
       style="fill:white; text-rendering:optimizeSpeed; color-rendering:optimizeSpeed; image-rendering:optimizeSpeed; shape-rendering:crispEdges; stroke:white; color-interpolation:sRGB;"
       id="g2447">
      <rect
         x="0"
         width="560"
         height="420"
         y="0"
         style="stroke:none;"
         id="rect2443" />
      <path
         style="stroke:none;"
         d="M73 374 L507 374 L507 31 L73 31 Z"
         id="path2445" />
    </g>
    <g
       style="stroke-linecap:butt; fill-opacity:0.149; fill:rgb(38,38,38); text-rendering:geometricPrecision; image-rendering:optimizeQuality; color-rendering:optimizeQuality; stroke-linejoin:round; stroke:rgb(38,38,38); color-interpolation:linearRGB; stroke-width:0.6667; stroke-opacity:0.149;"
       id="g2499">
      <line
         y2="31"
         style="fill:none;"
         x1="73"
         x2="73"
         y1="374"
         id="line2449" />
      <line
         y2="31"
         style="fill:none;"
         x1="217.6667"
         x2="217.6667"
         y1="374"
         id="line2451" />
      <line
         y2="31"
         style="fill:none;"
         x1="362.3333"
         x2="362.3333"
         y1="374"
         id="line2453" />
      <line
         y2="31"
         style="fill:none;"
         x1="507"
         x2="507"
         y1="374"
         id="line2455" />
      <line
         y2="374"
         style="fill:none;"
         x1="507"
         x2="73"
         y1="374"
         id="line2457" />
      <line
         y2="339.7"
         style="fill:none;"
         x1="507"
         x2="73"
         y1="339.7"
         id="line2459" />
      <line
         y2="305.4"
         style="fill:none;"
         x1="507"
         x2="73"
         y1="305.4"
         id="line2461" />
      <line
         y2="271.1"
         style="fill:none;"
         x1="507"
         x2="73"
         y1="271.1"
         id="line2463" />
      <line
         y2="236.8"
         style="fill:none;"
         x1="507"
         x2="73"
         y1="236.8"
         id="line2465" />
      <line
         y2="202.5"
         style="fill:none;"
         x1="507"
         x2="73"
         y1="202.5"
         id="line2467" />
      <line
         y2="168.2"
         style="fill:none;"
         x1="507"
         x2="73"
         y1="168.2"
         id="line2469" />
      <line
         y2="133.9"
         style="fill:none;"
         x1="507"
         x2="73"
         y1="133.9"
         id="line2471" />
      <line
         y2="99.6"
         style="fill:none;"
         x1="507"
         x2="73"
         y1="99.6"
         id="line2473" />
      <line
         y2="65.3"
         style="fill:none;"
         x1="507"
         x2="73"
         y1="65.3"
         id="line2475" />
      <line
         y2="31"
         style="fill:none;"
         x1="507"
         x2="73"
         y1="31"
         id="line2477" />
      <line
         x1="73"
         x2="507"
         y1="374"
         style="stroke-linecap:square; fill-opacity:1; fill:none; stroke-opacity:1;"
         y2="374"
         id="line2479" />
      <line
         x1="73"
         x2="507"
         y1="31"
         style="stroke-linecap:square; fill-opacity:1; fill:none; stroke-opacity:1;"
         y2="31"
         id="line2481" />
      <line
         x1="73"
         x2="73"
         y1="374"
         style="stroke-linecap:square; fill-opacity:1; fill:none; stroke-opacity:1;"
         y2="369.66"
         id="line2483" />
      <line
         x1="217.6667"
         x2="217.6667"
         y1="374"
         style="stroke-linecap:square; fill-opacity:1; fill:none; stroke-opacity:1;"
         y2="369.66"
         id="line2485" />
      <line
         x1="362.3333"
         x2="362.3333"
         y1="374"
         style="stroke-linecap:square; fill-opacity:1; fill:none; stroke-opacity:1;"
         y2="369.66"
         id="line2487" />
      <line
         x1="507"
         x2="507"
         y1="374"
         style="stroke-linecap:square; fill-opacity:1; fill:none; stroke-opacity:1;"
         y2="369.66"
         id="line2489" />
      <line
         x1="73"
         x2="73"
         y1="31"
         style="stroke-linecap:square; fill-opacity:1; fill:none; stroke-opacity:1;"
         y2="35.34"
         id="line2491" />
      <line
         x1="217.6667"
         x2="217.6667"
         y1="31"
         style="stroke-linecap:square; fill-opacity:1; fill:none; stroke-opacity:1;"
         y2="35.34"
         id="line2493" />
      <line
         x1="362.3333"
         x2="362.3333"
         y1="31"
         style="stroke-linecap:square; fill-opacity:1; fill:none; stroke-opacity:1;"
         y2="35.34"
         id="line2495" />
      <line
         x1="507"
         x2="507"
         y1="31"
         style="stroke-linecap:square; fill-opacity:1; fill:none; stroke-opacity:1;"
         y2="35.34"
         id="line2497" />
    </g>
    <g
       transform="translate(73,379.3333)"
       style="font-size:13.3333px; fill:rgb(38,38,38); text-rendering:geometricPrecision; image-rendering:optimizeQuality; color-rendering:optimizeQuality; font-family:'SansSerif'; stroke:rgb(38,38,38); color-interpolation:linearRGB;"
       id="g2503">
      <path
         style="stroke:none;"
         d="M-3.4531 9.4062 Q-3.4531 7.7656 -3.1172 6.7578 Q-2.7812 5.75 -2.1094 5.2031 Q-1.4375 4.6562 -0.4219 4.6562 Q0.3281 4.6562 0.8906 4.9609 Q1.4531 5.2656 1.8203 5.8281 Q2.1875 6.3906 2.3984 7.2109 Q2.6094 8.0312 2.6094 9.4062 Q2.6094 11.0469 2.2734 12.0547 Q1.9375 13.0625 1.2656 13.6094 Q0.5938 14.1562 -0.4219 14.1562 Q-1.7656 14.1562 -2.5469 13.1875 Q-3.4531 12.0312 -3.4531 9.4062 ZM-2.2812 9.4062 Q-2.2812 11.7031 -1.75 12.4609 Q-1.2188 13.2188 -0.4219 13.2188 Q0.3594 13.2188 0.8984 12.4609 Q1.4375 11.7031 1.4375 9.4062 Q1.4375 7.1094 0.8984 6.3594 Q0.3594 5.6094 -0.4375 5.6094 Q-1.2188 5.6094 -1.7031 6.2656 Q-2.2812 7.125 -2.2812 9.4062 Z"
         id="path2501" />
    </g>
    <g
       transform="translate(217.6667,379.3333)"
       style="font-size:13.3333px; fill:rgb(38,38,38); text-rendering:geometricPrecision; image-rendering:optimizeQuality; color-rendering:optimizeQuality; font-family:'SansSerif'; stroke:rgb(38,38,38); color-interpolation:linearRGB;"
       id="g2507">
      <path
         style="stroke:none;"
         d="M-10.9531 11.5625 L-9.7656 11.4531 Q-9.625 12.3438 -9.1406 12.7812 Q-8.6562 13.2188 -7.9688 13.2188 Q-7.1406 13.2188 -6.5703 12.5938 Q-6 11.9688 -6 10.9531 Q-6 9.9688 -6.5469 9.4062 Q-7.0938 8.8438 -7.9844 8.8438 Q-8.5469 8.8438 -8.9922 9.0938 Q-9.4375 9.3438 -9.6875 9.7344 L-10.75 9.5938 L-9.8594 4.8281 L-5.2344 4.8281 L-5.2344 5.9062 L-8.9375 5.9062 L-9.4375 8.4062 Q-8.6094 7.8281 -7.6875 7.8281 Q-6.4688 7.8281 -5.6328 8.6719 Q-4.7969 9.5156 -4.7969 10.8438 Q-4.7969 12.1094 -5.5312 13.0312 Q-6.4219 14.1562 -7.9688 14.1562 Q-9.2344 14.1562 -10.0391 13.4453 Q-10.8438 12.7344 -10.9531 11.5625 ZM-3.5493 9.4062 Q-3.5493 7.7656 -3.2134 6.7578 Q-2.8775 5.75 -2.2056 5.2031 Q-1.5337 4.6562 -0.5181 4.6562 Q0.2319 4.6562 0.7944 4.9609 Q1.3569 5.2656 1.7241 5.8281 Q2.0913 6.3906 2.3022 7.2109 Q2.5132 8.0312 2.5132 9.4062 Q2.5132 11.0469 2.1772 12.0547 Q1.8413 13.0625 1.1694 13.6094 Q0.4975 14.1562 -0.5181 14.1562 Q-1.8618 14.1562 -2.6431 13.1875 Q-3.5493 12.0312 -3.5493 9.4062 ZM-2.3775 9.4062 Q-2.3775 11.7031 -1.8462 12.4609 Q-1.315 13.2188 -0.5181 13.2188 Q0.2632 13.2188 0.8022 12.4609 Q1.3413 11.7031 1.3413 9.4062 Q1.3413 7.1094 0.8022 6.3594 Q0.2632 5.6094 -0.5337 5.6094 Q-1.315 5.6094 -1.7993 6.2656 Q-2.3775 7.125 -2.3775 9.4062 ZM3.8544 9.4062 Q3.8544 7.7656 4.1904 6.7578 Q4.5263 5.75 5.1982 5.2031 Q5.8701 4.6562 6.8857 4.6562 Q7.6357 4.6562 8.1982 4.9609 Q8.7607 5.2656 9.1279 5.8281 Q9.4951 6.3906 9.706 7.2109 Q9.9169 8.0312 9.9169 9.4062 Q9.9169 11.0469 9.581 12.0547 Q9.2451 13.0625 8.5732 13.6094 Q7.9013 14.1562 6.8857 14.1562 Q5.5419 14.1562 4.7607 13.1875 Q3.8544 12.0312 3.8544 9.4062 ZM5.0263 9.4062 Q5.0263 11.7031 5.5576 12.4609 Q6.0888 13.2188 6.8857 13.2188 Q7.6669 13.2188 8.206 12.4609 Q8.7451 11.7031 8.7451 9.4062 Q8.7451 7.1094 8.206 6.3594 Q7.6669 5.6094 6.8701 5.6094 Q6.0888 5.6094 5.6044 6.2656 Q5.0263 7.125 5.0263 9.4062 Z"
         id="path2505" />
    </g>
    <g
       transform="translate(362.3333,379.3333)"
       style="font-size:13.3333px; fill:rgb(38,38,38); text-rendering:geometricPrecision; image-rendering:optimizeQuality; color-rendering:optimizeQuality; font-family:'SansSerif'; stroke:rgb(38,38,38); color-interpolation:linearRGB;"
       id="g2511">
      <path
         style="stroke:none;"
         d="M-10.1562 14 L-11.2969 14 L-11.2969 6.7188 Q-11.7188 7.1094 -12.3828 7.5078 Q-13.0469 7.9062 -13.5781 8.0938 L-13.5781 6.9844 Q-12.625 6.5469 -11.9062 5.9062 Q-11.1875 5.2656 -10.8906 4.6562 L-10.1562 4.6562 L-10.1562 14 ZM-7.0493 9.4062 Q-7.0493 7.7656 -6.7134 6.7578 Q-6.3775 5.75 -5.7056 5.2031 Q-5.0337 4.6562 -4.0181 4.6562 Q-3.2681 4.6562 -2.7056 4.9609 Q-2.1431 5.2656 -1.7759 5.8281 Q-1.4087 6.3906 -1.1978 7.2109 Q-0.9868 8.0312 -0.9868 9.4062 Q-0.9868 11.0469 -1.3228 12.0547 Q-1.6587 13.0625 -2.3306 13.6094 Q-3.0025 14.1562 -4.0181 14.1562 Q-5.3618 14.1562 -6.1431 13.1875 Q-7.0493 12.0312 -7.0493 9.4062 ZM-5.8775 9.4062 Q-5.8775 11.7031 -5.3462 12.4609 Q-4.815 13.2188 -4.0181 13.2188 Q-3.2368 13.2188 -2.6978 12.4609 Q-2.1587 11.7031 -2.1587 9.4062 Q-2.1587 7.1094 -2.6978 6.3594 Q-3.2368 5.6094 -4.0337 5.6094 Q-4.815 5.6094 -5.2993 6.2656 Q-5.8775 7.125 -5.8775 9.4062 ZM0.3544 9.4062 Q0.3544 7.7656 0.6904 6.7578 Q1.0263 5.75 1.6982 5.2031 Q2.3701 4.6562 3.3857 4.6562 Q4.1357 4.6562 4.6982 4.9609 Q5.2607 5.2656 5.6279 5.8281 Q5.9951 6.3906 6.206 7.2109 Q6.4169 8.0312 6.4169 9.4062 Q6.4169 11.0469 6.081 12.0547 Q5.7451 13.0625 5.0732 13.6094 Q4.4013 14.1562 3.3857 14.1562 Q2.0419 14.1562 1.2607 13.1875 Q0.3544 12.0312 0.3544 9.4062 ZM1.5263 9.4062 Q1.5263 11.7031 2.0576 12.4609 Q2.5888 13.2188 3.3857 13.2188 Q4.1669 13.2188 4.706 12.4609 Q5.2451 11.7031 5.2451 9.4062 Q5.2451 7.1094 4.706 6.3594 Q4.1669 5.6094 3.3701 5.6094 Q2.5888 5.6094 2.1044 6.2656 Q1.5263 7.125 1.5263 9.4062 ZM7.7582 9.4062 Q7.7582 7.7656 8.0941 6.7578 Q8.4301 5.75 9.102 5.2031 Q9.7738 4.6562 10.7895 4.6562 Q11.5395 4.6562 12.102 4.9609 Q12.6645 5.2656 13.0316 5.8281 Q13.3988 6.3906 13.6098 7.2109 Q13.8207 8.0312 13.8207 9.4062 Q13.8207 11.0469 13.4848 12.0547 Q13.1488 13.0625 12.477 13.6094 Q11.8051 14.1562 10.7895 14.1562 Q9.4457 14.1562 8.6645 13.1875 Q7.7582 12.0312 7.7582 9.4062 ZM8.9301 9.4062 Q8.9301 11.7031 9.4613 12.4609 Q9.9926 13.2188 10.7895 13.2188 Q11.5707 13.2188 12.1098 12.4609 Q12.6488 11.7031 12.6488 9.4062 Q12.6488 7.1094 12.1098 6.3594 Q11.5707 5.6094 10.7738 5.6094 Q9.9926 5.6094 9.5082 6.2656 Q8.9301 7.125 8.9301 9.4062 Z"
         id="path2509" />
    </g>
    <g
       transform="translate(507,379.3333)"
       style="font-size:13.3333px; fill:rgb(38,38,38); text-rendering:geometricPrecision; image-rendering:optimizeQuality; color-rendering:optimizeQuality; font-family:'SansSerif'; stroke:rgb(38,38,38); color-interpolation:linearRGB;"
       id="g2515">
      <path
         style="stroke:none;"
         d="M-10.1562 14 L-11.2969 14 L-11.2969 6.7188 Q-11.7188 7.1094 -12.3828 7.5078 Q-13.0469 7.9062 -13.5781 8.0938 L-13.5781 6.9844 Q-12.625 6.5469 -11.9062 5.9062 Q-11.1875 5.2656 -10.8906 4.6562 L-10.1562 4.6562 L-10.1562 14 ZM-7.0493 11.5625 L-5.8618 11.4531 Q-5.7212 12.3438 -5.2368 12.7812 Q-4.7525 13.2188 -4.065 13.2188 Q-3.2368 13.2188 -2.6665 12.5938 Q-2.0962 11.9688 -2.0962 10.9531 Q-2.0962 9.9688 -2.6431 9.4062 Q-3.19 8.8438 -4.0806 8.8438 Q-4.6431 8.8438 -5.0884 9.0938 Q-5.5337 9.3438 -5.7837 9.7344 L-6.8462 9.5938 L-5.9556 4.8281 L-1.3306 4.8281 L-1.3306 5.9062 L-5.0337 5.9062 L-5.5337 8.4062 Q-4.7056 7.8281 -3.7837 7.8281 Q-2.565 7.8281 -1.729 8.6719 Q-0.8931 9.5156 -0.8931 10.8438 Q-0.8931 12.1094 -1.6275 13.0312 Q-2.5181 14.1562 -4.065 14.1562 Q-5.3306 14.1562 -6.1353 13.4453 Q-6.94 12.7344 -7.0493 11.5625 ZM0.3544 9.4062 Q0.3544 7.7656 0.6904 6.7578 Q1.0263 5.75 1.6982 5.2031 Q2.3701 4.6562 3.3857 4.6562 Q4.1357 4.6562 4.6982 4.9609 Q5.2607 5.2656 5.6279 5.8281 Q5.9951 6.3906 6.206 7.2109 Q6.4169 8.0312 6.4169 9.4062 Q6.4169 11.0469 6.081 12.0547 Q5.7451 13.0625 5.0732 13.6094 Q4.4013 14.1562 3.3857 14.1562 Q2.0419 14.1562 1.2607 13.1875 Q0.3544 12.0312 0.3544 9.4062 ZM1.5263 9.4062 Q1.5263 11.7031 2.0576 12.4609 Q2.5888 13.2188 3.3857 13.2188 Q4.1669 13.2188 4.706 12.4609 Q5.2451 11.7031 5.2451 9.4062 Q5.2451 7.1094 4.706 6.3594 Q4.1669 5.6094 3.3701 5.6094 Q2.5888 5.6094 2.1044 6.2656 Q1.5263 7.125 1.5263 9.4062 ZM7.7582 9.4062 Q7.7582 7.7656 8.0941 6.7578 Q8.4301 5.75 9.102 5.2031 Q9.7738 4.6562 10.7895 4.6562 Q11.5395 4.6562 12.102 4.9609 Q12.6645 5.2656 13.0316 5.8281 Q13.3988 6.3906 13.6098 7.2109 Q13.8207 8.0312 13.8207 9.4062 Q13.8207 11.0469 13.4848 12.0547 Q13.1488 13.0625 12.477 13.6094 Q11.8051 14.1562 10.7895 14.1562 Q9.4457 14.1562 8.6645 13.1875 Q7.7582 12.0312 7.7582 9.4062 ZM8.9301 9.4062 Q8.9301 11.7031 9.4613 12.4609 Q9.9926 13.2188 10.7895 13.2188 Q11.5707 13.2188 12.1098 12.4609 Q12.6488 11.7031 12.6488 9.4062 Q12.6488 7.1094 12.1098 6.3594 Q11.5707 5.6094 10.7738 5.6094 Q9.9926 5.6094 9.5082 6.2656 Q8.9301 7.125 8.9301 9.4062 Z"
         id="path2513" />
    </g>
    <g
       transform="translate(290.0002,397.6667)"
       style="font-size:16px; fill:rgb(38,38,38); text-rendering:geometricPrecision; image-rendering:optimizeQuality; color-rendering:optimizeQuality; font-family:'mwa_cmmi10'; stroke:rgb(38,38,38); color-interpolation:linearRGB;"
       id="g2539">
      <path
         style="stroke:none;"
         d="M-32.4907 16.3462 Q-32.4438 15.9868 -32.2876 15.9868 Q-31.7094 15.9868 -31.3735 15.8931 Q-31.0376 15.7993 -30.9438 15.4399 L-30.2563 12.7212 Q-31.1626 13.6274 -32.0844 13.6274 Q-33.0844 13.6274 -33.6626 12.8618 Q-34.2407 12.0962 -34.2407 11.0493 Q-34.2407 10.0337 -33.7094 8.9321 Q-33.1782 7.8306 -32.2798 7.0962 Q-31.3813 6.3618 -30.3344 6.3618 Q-29.8501 6.3618 -29.4594 6.6509 Q-29.0688 6.9399 -28.8657 7.4243 Q-28.7719 7.2368 -28.3423 6.7993 Q-27.9126 6.3618 -27.7407 6.3618 Q-27.5688 6.3618 -27.5688 6.5649 L-29.8032 15.5024 Q-29.8501 15.7368 -29.8501 15.7837 Q-29.8501 15.9868 -28.8032 15.9868 Q-28.7251 15.9868 -28.6782 16.0493 Q-28.6313 16.1118 -28.6313 16.1899 Q-28.6938 16.4087 -28.7251 16.479 Q-28.7563 16.5493 -28.9126 16.5493 L-32.3344 16.5493 Q-32.4907 16.5493 -32.4907 16.3462 ZM-32.0532 13.1899 Q-31.4907 13.1899 -30.9516 12.7681 Q-30.4126 12.3462 -30.0219 11.7524 L-29.1157 8.1587 Q-29.2094 7.5962 -29.5298 7.1899 Q-29.8501 6.7837 -30.3657 6.7837 Q-30.9126 6.7837 -31.3735 7.2212 Q-31.8344 7.6587 -32.1626 8.2681 Q-32.4751 8.9087 -32.7563 10.0259 Q-33.0376 11.1431 -33.0376 11.7524 Q-33.0376 12.3149 -32.8032 12.7524 Q-32.5688 13.1899 -32.0532 13.1899 Z"
         id="path2517" />
      <path
         style="stroke:none;"
         d="M-27.2231 14.9493 Q-27.2231 14.918 -27.2153 14.8555 Q-27.2075 14.793 -27.1997 14.7305 Q-27.1918 14.668 -27.1918 14.6368 L-25.8325 9.1837 Q-25.7856 8.9962 -25.77 8.8868 Q-25.77 8.7149 -26.4887 8.7149 Q-26.5981 8.7149 -26.5981 8.5743 Q-26.5825 8.543 -26.5668 8.4727 Q-26.5512 8.4024 -26.52 8.3634 Q-26.4887 8.3243 -26.4418 8.3243 L-24.9575 8.2149 Q-24.8168 8.2149 -24.8168 8.3399 L-26.4106 14.668 Q-26.4887 14.8555 -26.4887 15.1993 Q-26.4887 15.668 -26.1606 15.668 Q-25.8325 15.668 -25.6606 15.2462 Q-25.4887 14.8243 -25.3481 14.2305 Q-25.3325 14.1524 -25.27 14.1524 L-25.1293 14.1524 Q-25.0981 14.1524 -25.0668 14.1915 Q-25.0356 14.2305 -25.0356 14.2618 Q-25.1606 14.793 -25.2622 15.1055 Q-25.3637 15.418 -25.5981 15.6915 Q-25.8325 15.9649 -26.1918 15.9649 Q-26.6293 15.9649 -26.9262 15.6759 Q-27.2231 15.3868 -27.2231 14.9493 Z"
         id="path2519" />
      <path
         style="stroke:none;"
         d="M-21.9265 15.9649 Q-22.4577 15.9649 -22.864 15.7149 Q-23.2702 15.4649 -23.489 15.0509 Q-23.7077 14.6368 -23.7077 14.1055 Q-23.7077 13.3555 -23.2937 12.6212 Q-22.8796 11.8868 -22.1843 11.4337 Q-21.489 10.9805 -20.739 10.9805 Q-20.3327 10.9805 -20.0124 11.1212 Q-19.6921 11.2618 -19.4499 11.5118 Q-19.2077 11.7618 -19.0827 12.0977 Q-18.9577 12.4337 -18.9577 12.8399 Q-18.9577 13.418 -19.1999 13.9727 Q-19.4421 14.5274 -19.864 14.9805 Q-20.2859 15.4337 -20.8327 15.6993 Q-21.3796 15.9649 -21.9265 15.9649 ZM-21.9109 15.668 Q-21.4265 15.668 -21.0202 15.3399 Q-20.614 15.0118 -20.3484 14.504 Q-20.0827 13.9962 -19.9499 13.4337 Q-19.8171 12.8712 -19.8171 12.4024 Q-19.8171 11.9337 -20.0515 11.5977 Q-20.2859 11.2618 -20.7546 11.2618 Q-21.3952 11.2618 -21.8796 11.8165 Q-22.364 12.3712 -22.6062 13.1368 Q-22.8484 13.9024 -22.8484 14.5274 Q-22.8484 15.0118 -22.6062 15.3399 Q-22.364 15.668 -21.9109 15.668 Z"
         id="path2521" />
      <path
         style="stroke:none;"
         d="M-17.4195 14.5274 Q-17.4195 15.0118 -17.1773 15.3399 Q-16.9351 15.668 -16.482 15.668 Q-15.8257 15.668 -15.2242 15.3712 Q-14.6226 15.0743 -14.232 14.543 Q-14.2007 14.5118 -14.1539 14.5118 Q-14.0914 14.5118 -14.0367 14.5743 Q-13.982 14.6368 -13.982 14.6837 Q-13.982 14.7305 -14.0132 14.7462 Q-14.4039 15.3087 -15.0914 15.6368 Q-15.7789 15.9649 -16.4976 15.9649 Q-17.0289 15.9649 -17.4351 15.7149 Q-17.8414 15.4649 -18.0601 15.043 Q-18.2789 14.6212 -18.2789 14.1055 Q-18.2789 13.3555 -17.8648 12.629 Q-17.4507 11.9024 -16.7632 11.4415 Q-16.0757 10.9805 -15.3101 10.9805 Q-14.8257 10.9805 -14.4273 11.2149 Q-14.0289 11.4493 -14.0289 11.918 Q-14.0289 12.2305 -14.2085 12.4415 Q-14.3882 12.6524 -14.6695 12.6524 Q-14.857 12.6524 -14.9742 12.543 Q-15.0914 12.4337 -15.0914 12.2462 Q-15.0914 11.9962 -14.9039 11.8087 Q-14.7164 11.6212 -14.4664 11.6212 L-14.4507 11.6212 Q-14.5757 11.4337 -14.8179 11.3477 Q-15.0601 11.2618 -15.3257 11.2618 Q-15.9664 11.2618 -16.4507 11.8165 Q-16.9351 12.3712 -17.1773 13.1368 Q-17.4195 13.9024 -17.4195 14.5274 Z"
         id="path2523" />
      <path
         style="stroke:none;"
         d="M-11.9633 15.9649 Q-12.6508 15.9649 -13.0492 15.4415 Q-13.4476 14.918 -13.4476 14.1993 Q-13.4476 13.4962 -13.0804 12.7384 Q-12.7133 11.9805 -12.0961 11.4805 Q-11.4789 10.9805 -10.7601 10.9805 Q-10.432 10.9805 -10.1742 11.1602 Q-9.9164 11.3399 -9.7758 11.6368 Q-9.6508 11.1993 -9.2914 11.1993 Q-9.1508 11.1993 -9.057 11.2852 Q-8.9633 11.3712 -8.9633 11.5118 Q-8.9633 11.543 -8.9633 11.5587 Q-8.9633 11.5743 -8.9789 11.5899 L-9.7445 14.668 Q-9.8226 14.9962 -9.8226 15.1993 Q-9.8226 15.668 -9.5101 15.668 Q-9.1664 15.668 -8.9789 15.2305 Q-8.7914 14.793 -8.682 14.2305 Q-8.6508 14.1524 -8.5883 14.1524 L-8.4476 14.1524 Q-8.4164 14.1524 -8.3851 14.1915 Q-8.3539 14.2305 -8.3539 14.2618 Q-8.557 15.0274 -8.7836 15.4962 Q-9.0101 15.9649 -9.5258 15.9649 Q-9.9008 15.9649 -10.182 15.7462 Q-10.4633 15.5274 -10.5414 15.168 Q-11.2445 15.9649 -11.9633 15.9649 ZM-11.9476 15.668 Q-11.5414 15.668 -11.1742 15.3712 Q-10.807 15.0743 -10.5414 14.668 Q-10.5258 14.668 -10.5258 14.6368 L-9.932 12.2462 L-9.9164 12.2149 Q-9.9789 11.8243 -10.1976 11.543 Q-10.4164 11.2618 -10.7914 11.2618 Q-11.1664 11.2618 -11.4867 11.5665 Q-11.807 11.8712 -12.0258 12.2774 Q-12.2289 12.7305 -12.432 13.4962 Q-12.6351 14.2618 -12.6351 14.6837 Q-12.6351 15.0587 -12.4711 15.3634 Q-12.307 15.668 -11.9476 15.668 Z"
         id="path2525" />
      <path
         style="stroke:none;"
         d="M-7.4649 14.9493 Q-7.4649 14.918 -7.4571 14.8555 Q-7.4493 14.793 -7.4415 14.7305 Q-7.4337 14.668 -7.4337 14.6368 L-6.0743 9.1837 Q-6.0274 8.9962 -6.0118 8.8868 Q-6.0118 8.7149 -6.7306 8.7149 Q-6.8399 8.7149 -6.8399 8.5743 Q-6.8243 8.543 -6.8087 8.4727 Q-6.7931 8.4024 -6.7618 8.3634 Q-6.7306 8.3243 -6.6837 8.3243 L-5.1993 8.2149 Q-5.0587 8.2149 -5.0587 8.3399 L-6.6524 14.668 Q-6.7306 14.8555 -6.7306 15.1993 Q-6.7306 15.668 -6.4024 15.668 Q-6.0743 15.668 -5.9024 15.2462 Q-5.7306 14.8243 -5.5899 14.2305 Q-5.5743 14.1524 -5.5118 14.1524 L-5.3712 14.1524 Q-5.3399 14.1524 -5.3087 14.1915 Q-5.2774 14.2305 -5.2774 14.2618 Q-5.4024 14.793 -5.504 15.1055 Q-5.6056 15.418 -5.8399 15.6915 Q-6.0743 15.9649 -6.4337 15.9649 Q-6.8712 15.9649 -7.1681 15.6759 Q-7.4649 15.3868 -7.4649 14.9493 Z"
         id="path2527" />
      <path
         style="stroke:none;"
         d="M-1.6965 17.4399 L-1.6965 1.4399 L0.491 1.4399 L0.491 2.0806 L-1.0558 2.0806 L-1.0558 16.7993 L0.491 16.7993 L0.491 17.4399 L-1.6965 17.4399 Z"
         id="path2529" />
      <path
         style="stroke:none;"
         d="M2.0917 13.1587 Q2.0917 13.0649 2.1074 13.0181 L3.3105 8.2524 Q3.4199 7.7993 3.4199 7.4712 Q3.4199 6.7837 2.9511 6.7837 Q2.4511 6.7837 2.2089 7.3774 Q1.9667 7.9712 1.748 8.8931 Q1.748 8.9399 1.7011 8.9634 Q1.6542 8.9868 1.6074 8.9868 L1.4199 8.9868 Q1.373 8.9868 1.3339 8.9321 Q1.2949 8.8774 1.2949 8.8306 Q1.4667 8.1274 1.623 7.6431 Q1.7792 7.1587 2.123 6.7603 Q2.4667 6.3618 2.9667 6.3618 Q3.5761 6.3618 4.0371 6.7446 Q4.498 7.1274 4.498 7.7056 Q4.9667 7.0806 5.6074 6.7212 Q6.248 6.3618 6.9667 6.3618 Q7.7324 6.3618 8.2792 6.7524 Q8.8261 7.1431 8.8261 7.8462 Q9.3261 7.1587 9.9824 6.7603 Q10.6386 6.3618 11.4199 6.3618 Q12.248 6.3618 12.7558 6.8149 Q13.2636 7.2681 13.2636 8.0962 Q13.2636 8.7524 12.9667 9.6821 Q12.6699 10.6118 12.2324 11.7524 Q12.0136 12.3149 12.0136 12.7212 Q12.0136 13.1899 12.3886 13.1899 Q13.0136 13.1899 13.4277 12.5181 Q13.8417 11.8462 14.0136 11.0806 Q14.0605 10.9868 14.1386 10.9868 L14.3261 10.9868 Q14.3886 10.9868 14.4355 11.0337 Q14.4824 11.0806 14.4824 11.1274 Q14.4824 11.1431 14.4667 11.1743 Q14.248 12.0806 13.7011 12.854 Q13.1542 13.6274 12.3417 13.6274 Q11.7792 13.6274 11.3808 13.2368 Q10.9824 12.8462 10.9824 12.2837 Q10.9824 12.0024 11.123 11.6587 Q11.5761 10.4556 11.873 9.5103 Q12.1699 8.5649 12.1699 7.8462 Q12.1699 7.4087 11.9902 7.0962 Q11.8105 6.7837 11.3886 6.7837 Q10.5136 6.7837 9.873 7.3149 Q9.2324 7.8462 8.7636 8.7368 Q8.7324 8.8931 8.7167 8.9712 L7.6855 13.0806 Q7.6386 13.2993 7.4433 13.4634 Q7.248 13.6274 7.0136 13.6274 Q6.8261 13.6274 6.6855 13.4946 Q6.5449 13.3618 6.5449 13.1587 Q6.5449 13.0649 6.5605 13.0181 L7.5761 8.9399 Q7.748 8.2837 7.748 7.8462 Q7.748 7.4087 7.5605 7.0962 Q7.373 6.7837 6.9355 6.7837 Q6.3574 6.7837 5.8652 7.0415 Q5.373 7.2993 5.0058 7.7212 Q4.6386 8.1431 4.3261 8.7368 L3.248 13.0806 Q3.1855 13.2993 2.998 13.4634 Q2.8105 13.6274 2.5761 13.6274 Q2.373 13.6274 2.2324 13.4946 Q2.0917 13.3618 2.0917 13.1587 Z"
         id="path2531" />
      <path
         style="stroke:none;"
         d="M15.8118 17.1274 Q15.8118 17.0806 15.8275 17.0649 L21.39 1.6274 Q21.4212 1.5337 21.4993 1.4868 Q21.5775 1.4399 21.6712 1.4399 Q21.8118 1.4399 21.9056 1.5259 Q21.9993 1.6118 21.9993 1.7524 L21.9993 1.8149 L16.4368 17.2524 Q16.3431 17.4399 16.1243 17.4399 Q15.9993 17.4399 15.9056 17.3462 Q15.8118 17.2524 15.8118 17.1274 Z"
         id="path2533" />
      <path
         style="stroke:none;"
         d="M24.2962 12.4556 Q24.7337 13.1899 26.0306 13.1899 Q26.5931 13.1899 27.1009 13.0024 Q27.6087 12.8149 27.9369 12.4321 Q28.265 12.0493 28.265 11.5024 Q28.265 11.0806 27.9681 10.8149 Q27.6712 10.5493 27.2494 10.4556 L26.3744 10.2837 Q25.7806 10.1431 25.3978 9.7368 Q25.015 9.3306 25.015 8.7524 Q25.015 8.0337 25.4056 7.4868 Q25.7962 6.9399 26.4291 6.6509 Q27.0619 6.3618 27.7337 6.3618 Q28.4681 6.3618 29.0384 6.7134 Q29.6087 7.0649 29.6087 7.7368 Q29.6087 8.1118 29.4056 8.3931 Q29.2025 8.6743 28.8275 8.6743 Q28.6244 8.6743 28.4681 8.5337 Q28.3119 8.3931 28.3119 8.1899 Q28.3119 8.0024 28.4212 7.8228 Q28.5306 7.6431 28.7025 7.5415 Q28.8744 7.4399 29.0619 7.4399 Q28.9212 7.0962 28.5384 6.9399 Q28.1556 6.7837 27.7025 6.7837 Q27.2962 6.7837 26.89 6.9478 Q26.4837 7.1118 26.2416 7.4243 Q25.9994 7.7368 25.9994 8.1743 Q25.9994 8.4556 26.2025 8.6743 Q26.4056 8.8931 26.7025 8.9868 L27.6244 9.1743 Q28.0775 9.2681 28.4447 9.5103 Q28.8119 9.7524 29.0306 10.1118 Q29.2494 10.4712 29.2494 10.9399 Q29.2494 11.5337 28.9134 12.1118 Q28.5775 12.6899 28.0931 13.0337 Q27.2494 13.6274 26.015 13.6274 Q25.1556 13.6274 24.4447 13.229 Q23.7337 12.8306 23.7337 12.0649 Q23.7337 11.6274 23.9916 11.2993 Q24.2494 10.9712 24.6869 10.9712 Q24.9369 10.9712 25.1166 11.1274 Q25.2962 11.2837 25.2962 11.5493 Q25.2962 11.9087 25.0228 12.1821 Q24.7494 12.4556 24.3744 12.4556 L24.2962 12.4556 Z"
         id="path2535" />
      <path
         style="stroke:none;"
         d="M30.765 17.4399 L30.765 16.7993 L32.3119 16.7993 L32.3119 2.0806 L30.765 2.0806 L30.765 1.4399 L32.9525 1.4399 L32.9525 17.4399 L30.765 17.4399 Z"
         id="path2537" />
    </g>
    <g
       style="fill:rgb(38,38,38); text-rendering:geometricPrecision; image-rendering:optimizeQuality; color-rendering:optimizeQuality; stroke-linejoin:round; stroke:rgb(38,38,38); color-interpolation:linearRGB; stroke-width:0.6667;"
       id="g2589">
      <line
         y2="31"
         style="fill:none;"
         x1="73"
         x2="73"
         y1="374"
         id="line2541" />
      <line
         y2="31"
         style="fill:none;"
         x1="507"
         x2="507"
         y1="374"
         id="line2543" />
      <line
         y2="374"
         style="fill:none;"
         x1="73"
         x2="77.34"
         y1="374"
         id="line2545" />
      <line
         y2="339.7"
         style="fill:none;"
         x1="73"
         x2="77.34"
         y1="339.7"
         id="line2547" />
      <line
         y2="305.4"
         style="fill:none;"
         x1="73"
         x2="77.34"
         y1="305.4"
         id="line2549" />
      <line
         y2="271.1"
         style="fill:none;"
         x1="73"
         x2="77.34"
         y1="271.1"
         id="line2551" />
      <line
         y2="236.8"
         style="fill:none;"
         x1="73"
         x2="77.34"
         y1="236.8"
         id="line2553" />
      <line
         y2="202.5"
         style="fill:none;"
         x1="73"
         x2="77.34"
         y1="202.5"
         id="line2555" />
      <line
         y2="168.2"
         style="fill:none;"
         x1="73"
         x2="77.34"
         y1="168.2"
         id="line2557" />
      <line
         y2="133.9"
         style="fill:none;"
         x1="73"
         x2="77.34"
         y1="133.9"
         id="line2559" />
      <line
         y2="99.6"
         style="fill:none;"
         x1="73"
         x2="77.34"
         y1="99.6"
         id="line2561" />
      <line
         y2="65.3"
         style="fill:none;"
         x1="73"
         x2="77.34"
         y1="65.3"
         id="line2563" />
      <line
         y2="31"
         style="fill:none;"
         x1="73"
         x2="77.34"
         y1="31"
         id="line2565" />
      <line
         y2="374"
         style="fill:none;"
         x1="507"
         x2="502.66"
         y1="374"
         id="line2567" />
      <line
         y2="339.7"
         style="fill:none;"
         x1="507"
         x2="502.66"
         y1="339.7"
         id="line2569" />
      <line
         y2="305.4"
         style="fill:none;"
         x1="507"
         x2="502.66"
         y1="305.4"
         id="line2571" />
      <line
         y2="271.1"
         style="fill:none;"
         x1="507"
         x2="502.66"
         y1="271.1"
         id="line2573" />
      <line
         y2="236.8"
         style="fill:none;"
         x1="507"
         x2="502.66"
         y1="236.8"
         id="line2575" />
      <line
         y2="202.5"
         style="fill:none;"
         x1="507"
         x2="502.66"
         y1="202.5"
         id="line2577" />
      <line
         y2="168.2"
         style="fill:none;"
         x1="507"
         x2="502.66"
         y1="168.2"
         id="line2579" />
      <line
         y2="133.9"
         style="fill:none;"
         x1="507"
         x2="502.66"
         y1="133.9"
         id="line2581" />
      <line
         y2="99.6"
         style="fill:none;"
         x1="507"
         x2="502.66"
         y1="99.6"
         id="line2583" />
      <line
         y2="65.3"
         style="fill:none;"
         x1="507"
         x2="502.66"
         y1="65.3"
         id="line2585" />
      <line
         y2="31"
         style="fill:none;"
         x1="507"
         x2="502.66"
         y1="31"
         id="line2587" />
    </g>
    <g
       transform="translate(67.6667,374)"
       style="font-size:13.3333px; fill:rgb(38,38,38); text-rendering:geometricPrecision; image-rendering:optimizeQuality; color-rendering:optimizeQuality; font-family:'SansSerif'; stroke:rgb(38,38,38); color-interpolation:linearRGB;"
       id="g2593">
      <path
         style="stroke:none;"
         d="M-7.4531 0.9062 Q-7.4531 -0.7344 -7.1172 -1.7422 Q-6.7812 -2.75 -6.1094 -3.2969 Q-5.4375 -3.8438 -4.4219 -3.8438 Q-3.6719 -3.8438 -3.1094 -3.5391 Q-2.5469 -3.2344 -2.1797 -2.6719 Q-1.8125 -2.1094 -1.6016 -1.2891 Q-1.3906 -0.4688 -1.3906 0.9062 Q-1.3906 2.5469 -1.7266 3.5547 Q-2.0625 4.5625 -2.7344 5.1094 Q-3.4062 5.6562 -4.4219 5.6562 Q-5.7656 5.6562 -6.5469 4.6875 Q-7.4531 3.5312 -7.4531 0.9062 ZM-6.2812 0.9062 Q-6.2812 3.2031 -5.75 3.9609 Q-5.2188 4.7188 -4.4219 4.7188 Q-3.6406 4.7188 -3.1016 3.9609 Q-2.5625 3.2031 -2.5625 0.9062 Q-2.5625 -1.3906 -3.1016 -2.1406 Q-3.6406 -2.8906 -4.4375 -2.8906 Q-5.2188 -2.8906 -5.7031 -2.2344 Q-6.2812 -1.375 -6.2812 0.9062 Z"
         id="path2591" />
    </g>
    <g
       transform="translate(67.6667,339.7)"
       style="font-size:13.3333px; fill:rgb(38,38,38); text-rendering:geometricPrecision; image-rendering:optimizeQuality; color-rendering:optimizeQuality; font-family:'SansSerif'; stroke:rgb(38,38,38); color-interpolation:linearRGB;"
       id="g2597">
      <path
         style="stroke:none;"
         d="M-18.4531 0.9062 Q-18.4531 -0.7344 -18.1172 -1.7422 Q-17.7812 -2.75 -17.1094 -3.2969 Q-16.4375 -3.8438 -15.4219 -3.8438 Q-14.6719 -3.8438 -14.1094 -3.5391 Q-13.5469 -3.2344 -13.1797 -2.6719 Q-12.8125 -2.1094 -12.6016 -1.2891 Q-12.3906 -0.4688 -12.3906 0.9062 Q-12.3906 2.5469 -12.7266 3.5547 Q-13.0625 4.5625 -13.7344 5.1094 Q-14.4062 5.6562 -15.4219 5.6562 Q-16.7656 5.6562 -17.5469 4.6875 Q-18.4531 3.5312 -18.4531 0.9062 ZM-17.2812 0.9062 Q-17.2812 3.2031 -16.75 3.9609 Q-16.2188 4.7188 -15.4219 4.7188 Q-14.6406 4.7188 -14.1016 3.9609 Q-13.5625 3.2031 -13.5625 0.9062 Q-13.5625 -1.3906 -14.1016 -2.1406 Q-14.6406 -2.8906 -15.4375 -2.8906 Q-16.2188 -2.8906 -16.7031 -2.2344 Q-17.2812 -1.375 -17.2812 0.9062 ZM-10.4087 5.5 L-10.4087 4.2031 L-9.1118 4.2031 L-9.1118 5.5 L-10.4087 5.5 ZM-1.3507 4.4062 L-1.3507 5.5 L-7.507 5.5 Q-7.5226 5.0938 -7.3663 4.7031 Q-7.132 4.0781 -6.6163 3.4688 Q-6.1007 2.8594 -5.1163 2.0625 Q-3.6007 0.8125 -3.0695 0.0859 Q-2.5382 -0.6406 -2.5382 -1.2812 Q-2.5382 -1.9688 -3.0226 -2.4297 Q-3.507 -2.8906 -4.2882 -2.8906 Q-5.1163 -2.8906 -5.6085 -2.3984 Q-6.1007 -1.9062 -6.1163 -1.0312 L-7.2882 -1.1562 Q-7.1632 -2.4688 -6.382 -3.1562 Q-5.6007 -3.8438 -4.2726 -3.8438 Q-2.9288 -3.8438 -2.1476 -3.1016 Q-1.3663 -2.3594 -1.3663 -1.2656 Q-1.3663 -0.7031 -1.5929 -0.1641 Q-1.8195 0.375 -2.3507 0.9766 Q-2.882 1.5781 -4.1163 2.6094 Q-5.1476 3.4688 -5.4366 3.7812 Q-5.7257 4.0938 -5.9132 4.4062 L-1.3507 4.4062 Z"
         id="path2595" />
    </g>
    <g
       transform="translate(67.6667,305.4)"
       style="font-size:13.3333px; fill:rgb(38,38,38); text-rendering:geometricPrecision; image-rendering:optimizeQuality; color-rendering:optimizeQuality; font-family:'SansSerif'; stroke:rgb(38,38,38); color-interpolation:linearRGB;"
       id="g2601">
      <path
         style="stroke:none;"
         d="M-18.4531 0.9062 Q-18.4531 -0.7344 -18.1172 -1.7422 Q-17.7812 -2.75 -17.1094 -3.2969 Q-16.4375 -3.8438 -15.4219 -3.8438 Q-14.6719 -3.8438 -14.1094 -3.5391 Q-13.5469 -3.2344 -13.1797 -2.6719 Q-12.8125 -2.1094 -12.6016 -1.2891 Q-12.3906 -0.4688 -12.3906 0.9062 Q-12.3906 2.5469 -12.7266 3.5547 Q-13.0625 4.5625 -13.7344 5.1094 Q-14.4062 5.6562 -15.4219 5.6562 Q-16.7656 5.6562 -17.5469 4.6875 Q-18.4531 3.5312 -18.4531 0.9062 ZM-17.2812 0.9062 Q-17.2812 3.2031 -16.75 3.9609 Q-16.2188 4.7188 -15.4219 4.7188 Q-14.6406 4.7188 -14.1016 3.9609 Q-13.5625 3.2031 -13.5625 0.9062 Q-13.5625 -1.3906 -14.1016 -2.1406 Q-14.6406 -2.8906 -15.4375 -2.8906 Q-16.2188 -2.8906 -16.7031 -2.2344 Q-17.2812 -1.375 -17.2812 0.9062 ZM-10.4087 5.5 L-10.4087 4.2031 L-9.1118 4.2031 L-9.1118 5.5 L-10.4087 5.5 ZM-3.6945 5.5 L-3.6945 3.2656 L-7.7257 3.2656 L-7.7257 2.2188 L-3.4913 -3.8125 L-2.5538 -3.8125 L-2.5538 2.2188 L-1.2882 2.2188 L-1.2882 3.2656 L-2.5538 3.2656 L-2.5538 5.5 L-3.6945 5.5 ZM-3.6945 2.2188 L-3.6945 -1.9688 L-6.6163 2.2188 L-3.6945 2.2188 Z"
         id="path2599" />
    </g>
    <g
       transform="translate(67.6667,271.1)"
       style="font-size:13.3333px; fill:rgb(38,38,38); text-rendering:geometricPrecision; image-rendering:optimizeQuality; color-rendering:optimizeQuality; font-family:'SansSerif'; stroke:rgb(38,38,38); color-interpolation:linearRGB;"
       id="g2605">
      <path
         style="stroke:none;"
         d="M-18.4531 0.9062 Q-18.4531 -0.7344 -18.1172 -1.7422 Q-17.7812 -2.75 -17.1094 -3.2969 Q-16.4375 -3.8438 -15.4219 -3.8438 Q-14.6719 -3.8438 -14.1094 -3.5391 Q-13.5469 -3.2344 -13.1797 -2.6719 Q-12.8125 -2.1094 -12.6016 -1.2891 Q-12.3906 -0.4688 -12.3906 0.9062 Q-12.3906 2.5469 -12.7266 3.5547 Q-13.0625 4.5625 -13.7344 5.1094 Q-14.4062 5.6562 -15.4219 5.6562 Q-16.7656 5.6562 -17.5469 4.6875 Q-18.4531 3.5312 -18.4531 0.9062 ZM-17.2812 0.9062 Q-17.2812 3.2031 -16.75 3.9609 Q-16.2188 4.7188 -15.4219 4.7188 Q-14.6406 4.7188 -14.1016 3.9609 Q-13.5625 3.2031 -13.5625 0.9062 Q-13.5625 -1.3906 -14.1016 -2.1406 Q-14.6406 -2.8906 -15.4375 -2.8906 Q-16.2188 -2.8906 -16.7031 -2.2344 Q-17.2812 -1.375 -17.2812 0.9062 ZM-10.4087 5.5 L-10.4087 4.2031 L-9.1118 4.2031 L-9.1118 5.5 L-10.4087 5.5 ZM-1.4288 -1.5312 L-2.5695 -1.4375 Q-2.7101 -2.1094 -2.9913 -2.4219 Q-3.4601 -2.9062 -4.132 -2.9062 Q-4.6788 -2.9062 -5.1007 -2.5938 Q-5.632 -2.2031 -5.9445 -1.4531 Q-6.257 -0.7031 -6.2726 0.7031 Q-5.8663 0.0781 -5.2648 -0.2266 Q-4.6632 -0.5312 -4.007 -0.5312 Q-2.8663 -0.5312 -2.0616 0.3047 Q-1.257 1.1406 -1.257 2.4844 Q-1.257 3.3594 -1.6398 4.1094 Q-2.0226 4.8594 -2.6788 5.2578 Q-3.3351 5.6562 -4.1788 5.6562 Q-5.6007 5.6562 -6.507 4.6094 Q-7.4132 3.5625 -7.4132 1.1406 Q-7.4132 -1.5469 -6.4132 -2.7812 Q-5.5382 -3.8438 -4.0695 -3.8438 Q-2.9757 -3.8438 -2.2726 -3.2266 Q-1.5695 -2.6094 -1.4288 -1.5312 ZM-6.1007 2.4844 Q-6.1007 3.0781 -5.8507 3.6172 Q-5.6007 4.1562 -5.1476 4.4375 Q-4.6945 4.7188 -4.1945 4.7188 Q-3.4757 4.7188 -2.9523 4.1328 Q-2.4288 3.5469 -2.4288 2.5469 Q-2.4288 1.5781 -2.9445 1.0234 Q-3.4601 0.4688 -4.2413 0.4688 Q-5.0226 0.4688 -5.5616 1.0234 Q-6.1007 1.5781 -6.1007 2.4844 Z"
         id="path2603" />
    </g>
    <g
       transform="translate(67.6667,236.8)"
       style="font-size:13.3333px; fill:rgb(38,38,38); text-rendering:geometricPrecision; image-rendering:optimizeQuality; color-rendering:optimizeQuality; font-family:'SansSerif'; stroke:rgb(38,38,38); color-interpolation:linearRGB;"
       id="g2609">
      <path
         style="stroke:none;"
         d="M-18.4531 0.9062 Q-18.4531 -0.7344 -18.1172 -1.7422 Q-17.7812 -2.75 -17.1094 -3.2969 Q-16.4375 -3.8438 -15.4219 -3.8438 Q-14.6719 -3.8438 -14.1094 -3.5391 Q-13.5469 -3.2344 -13.1797 -2.6719 Q-12.8125 -2.1094 -12.6016 -1.2891 Q-12.3906 -0.4688 -12.3906 0.9062 Q-12.3906 2.5469 -12.7266 3.5547 Q-13.0625 4.5625 -13.7344 5.1094 Q-14.4062 5.6562 -15.4219 5.6562 Q-16.7656 5.6562 -17.5469 4.6875 Q-18.4531 3.5312 -18.4531 0.9062 ZM-17.2812 0.9062 Q-17.2812 3.2031 -16.75 3.9609 Q-16.2188 4.7188 -15.4219 4.7188 Q-14.6406 4.7188 -14.1016 3.9609 Q-13.5625 3.2031 -13.5625 0.9062 Q-13.5625 -1.3906 -14.1016 -2.1406 Q-14.6406 -2.8906 -15.4375 -2.8906 Q-16.2188 -2.8906 -16.7031 -2.2344 Q-17.2812 -1.375 -17.2812 0.9062 ZM-10.4087 5.5 L-10.4087 4.2031 L-9.1118 4.2031 L-9.1118 5.5 L-10.4087 5.5 ZM-5.6007 0.4531 Q-6.3038 0.1875 -6.6476 -0.2891 Q-6.9913 -0.7656 -6.9913 -1.4375 Q-6.9913 -2.4531 -6.2648 -3.1484 Q-5.5382 -3.8438 -4.3195 -3.8438 Q-3.1007 -3.8438 -2.3585 -3.1328 Q-1.6163 -2.4219 -1.6163 -1.4062 Q-1.6163 -0.7656 -1.9601 -0.2891 Q-2.3038 0.1875 -2.9913 0.4531 Q-2.132 0.7344 -1.6866 1.3594 Q-1.2413 1.9844 -1.2413 2.8438 Q-1.2413 4.0312 -2.0851 4.8438 Q-2.9288 5.6562 -4.3038 5.6562 Q-5.6788 5.6562 -6.5226 4.8438 Q-7.3663 4.0312 -7.3663 2.8125 Q-7.3663 1.9062 -6.9054 1.2891 Q-6.4445 0.6719 -5.6007 0.4531 ZM-5.8351 -1.4844 Q-5.8351 -0.8281 -5.4054 -0.4062 Q-4.9757 0.0156 -4.3038 0.0156 Q-3.632 0.0156 -3.2101 -0.3984 Q-2.7882 -0.8125 -2.7882 -1.4219 Q-2.7882 -2.0469 -3.2257 -2.4766 Q-3.6632 -2.9062 -4.3038 -2.9062 Q-4.9601 -2.9062 -5.3976 -2.4844 Q-5.8351 -2.0625 -5.8351 -1.4844 ZM-6.1945 2.8125 Q-6.1945 3.2969 -5.9601 3.7578 Q-5.7257 4.2188 -5.2726 4.4688 Q-4.8195 4.7188 -4.2882 4.7188 Q-3.4757 4.7188 -2.9445 4.1953 Q-2.4132 3.6719 -2.4132 2.8594 Q-2.4132 2.0312 -2.9601 1.4922 Q-3.507 0.9531 -4.3351 0.9531 Q-5.132 0.9531 -5.6632 1.4844 Q-6.1945 2.0156 -6.1945 2.8125 Z"
         id="path2607" />
    </g>
    <g
       transform="translate(67.6667,202.5)"
       style="font-size:13.3333px; fill:rgb(38,38,38); text-rendering:geometricPrecision; image-rendering:optimizeQuality; color-rendering:optimizeQuality; font-family:'SansSerif'; stroke:rgb(38,38,38); color-interpolation:linearRGB;"
       id="g2613">
      <path
         style="stroke:none;"
         d="M-3.1562 5.5 L-4.2969 5.5 L-4.2969 -1.7812 Q-4.7188 -1.3906 -5.3828 -0.9922 Q-6.0469 -0.5938 -6.5781 -0.4062 L-6.5781 -1.5156 Q-5.625 -1.9531 -4.9062 -2.5938 Q-4.1875 -3.2344 -3.8906 -3.8438 L-3.1562 -3.8438 L-3.1562 5.5 Z"
         id="path2611" />
    </g>
    <g
       transform="translate(67.6667,168.2)"
       style="font-size:13.3333px; fill:rgb(38,38,38); text-rendering:geometricPrecision; image-rendering:optimizeQuality; color-rendering:optimizeQuality; font-family:'SansSerif'; stroke:rgb(38,38,38); color-interpolation:linearRGB;"
       id="g2617">
      <path
         style="stroke:none;"
         d="M-14.1562 5.5 L-15.2969 5.5 L-15.2969 -1.7812 Q-15.7188 -1.3906 -16.3828 -0.9922 Q-17.0469 -0.5938 -17.5781 -0.4062 L-17.5781 -1.5156 Q-16.625 -1.9531 -15.9062 -2.5938 Q-15.1875 -3.2344 -14.8906 -3.8438 L-14.1562 -3.8438 L-14.1562 5.5 ZM-10.4087 5.5 L-10.4087 4.2031 L-9.1118 4.2031 L-9.1118 5.5 L-10.4087 5.5 ZM-1.3507 4.4062 L-1.3507 5.5 L-7.507 5.5 Q-7.5226 5.0938 -7.3663 4.7031 Q-7.132 4.0781 -6.6163 3.4688 Q-6.1007 2.8594 -5.1163 2.0625 Q-3.6007 0.8125 -3.0695 0.0859 Q-2.5382 -0.6406 -2.5382 -1.2812 Q-2.5382 -1.9688 -3.0226 -2.4297 Q-3.507 -2.8906 -4.2882 -2.8906 Q-5.1163 -2.8906 -5.6085 -2.3984 Q-6.1007 -1.9062 -6.1163 -1.0312 L-7.2882 -1.1562 Q-7.1632 -2.4688 -6.382 -3.1562 Q-5.6007 -3.8438 -4.2726 -3.8438 Q-2.9288 -3.8438 -2.1476 -3.1016 Q-1.3663 -2.3594 -1.3663 -1.2656 Q-1.3663 -0.7031 -1.5929 -0.1641 Q-1.8195 0.375 -2.3507 0.9766 Q-2.882 1.5781 -4.1163 2.6094 Q-5.1476 3.4688 -5.4366 3.7812 Q-5.7257 4.0938 -5.9132 4.4062 L-1.3507 4.4062 Z"
         id="path2615" />
    </g>
    <g
       transform="translate(67.6667,133.9)"
       style="font-size:13.3333px; fill:rgb(38,38,38); text-rendering:geometricPrecision; image-rendering:optimizeQuality; color-rendering:optimizeQuality; font-family:'SansSerif'; stroke:rgb(38,38,38); color-interpolation:linearRGB;"
       id="g2621">
      <path
         style="stroke:none;"
         d="M-14.1562 5.5 L-15.2969 5.5 L-15.2969 -1.7812 Q-15.7188 -1.3906 -16.3828 -0.9922 Q-17.0469 -0.5938 -17.5781 -0.4062 L-17.5781 -1.5156 Q-16.625 -1.9531 -15.9062 -2.5938 Q-15.1875 -3.2344 -14.8906 -3.8438 L-14.1562 -3.8438 L-14.1562 5.5 ZM-10.4087 5.5 L-10.4087 4.2031 L-9.1118 4.2031 L-9.1118 5.5 L-10.4087 5.5 ZM-3.6945 5.5 L-3.6945 3.2656 L-7.7257 3.2656 L-7.7257 2.2188 L-3.4913 -3.8125 L-2.5538 -3.8125 L-2.5538 2.2188 L-1.2882 2.2188 L-1.2882 3.2656 L-2.5538 3.2656 L-2.5538 5.5 L-3.6945 5.5 ZM-3.6945 2.2188 L-3.6945 -1.9688 L-6.6163 2.2188 L-3.6945 2.2188 Z"
         id="path2619" />
    </g>
    <g
       transform="translate(67.6667,99.6)"
       style="font-size:13.3333px; fill:rgb(38,38,38); text-rendering:geometricPrecision; image-rendering:optimizeQuality; color-rendering:optimizeQuality; font-family:'SansSerif'; stroke:rgb(38,38,38); color-interpolation:linearRGB;"
       id="g2625">
      <path
         style="stroke:none;"
         d="M-14.1562 5.5 L-15.2969 5.5 L-15.2969 -1.7812 Q-15.7188 -1.3906 -16.3828 -0.9922 Q-17.0469 -0.5938 -17.5781 -0.4062 L-17.5781 -1.5156 Q-16.625 -1.9531 -15.9062 -2.5938 Q-15.1875 -3.2344 -14.8906 -3.8438 L-14.1562 -3.8438 L-14.1562 5.5 ZM-10.4087 5.5 L-10.4087 4.2031 L-9.1118 4.2031 L-9.1118 5.5 L-10.4087 5.5 ZM-1.4288 -1.5312 L-2.5695 -1.4375 Q-2.7101 -2.1094 -2.9913 -2.4219 Q-3.4601 -2.9062 -4.132 -2.9062 Q-4.6788 -2.9062 -5.1007 -2.5938 Q-5.632 -2.2031 -5.9445 -1.4531 Q-6.257 -0.7031 -6.2726 0.7031 Q-5.8663 0.0781 -5.2648 -0.2266 Q-4.6632 -0.5312 -4.007 -0.5312 Q-2.8663 -0.5312 -2.0616 0.3047 Q-1.257 1.1406 -1.257 2.4844 Q-1.257 3.3594 -1.6398 4.1094 Q-2.0226 4.8594 -2.6788 5.2578 Q-3.3351 5.6562 -4.1788 5.6562 Q-5.6007 5.6562 -6.507 4.6094 Q-7.4132 3.5625 -7.4132 1.1406 Q-7.4132 -1.5469 -6.4132 -2.7812 Q-5.5382 -3.8438 -4.0695 -3.8438 Q-2.9757 -3.8438 -2.2726 -3.2266 Q-1.5695 -2.6094 -1.4288 -1.5312 ZM-6.1007 2.4844 Q-6.1007 3.0781 -5.8507 3.6172 Q-5.6007 4.1562 -5.1476 4.4375 Q-4.6945 4.7188 -4.1945 4.7188 Q-3.4757 4.7188 -2.9523 4.1328 Q-2.4288 3.5469 -2.4288 2.5469 Q-2.4288 1.5781 -2.9445 1.0234 Q-3.4601 0.4688 -4.2413 0.4688 Q-5.0226 0.4688 -5.5616 1.0234 Q-6.1007 1.5781 -6.1007 2.4844 Z"
         id="path2623" />
    </g>
    <g
       transform="translate(67.6667,65.3)"
       style="font-size:13.3333px; fill:rgb(38,38,38); text-rendering:geometricPrecision; image-rendering:optimizeQuality; color-rendering:optimizeQuality; font-family:'SansSerif'; stroke:rgb(38,38,38); color-interpolation:linearRGB;"
       id="g2629">
      <path
         style="stroke:none;"
         d="M-14.1562 5.5 L-15.2969 5.5 L-15.2969 -1.7812 Q-15.7188 -1.3906 -16.3828 -0.9922 Q-17.0469 -0.5938 -17.5781 -0.4062 L-17.5781 -1.5156 Q-16.625 -1.9531 -15.9062 -2.5938 Q-15.1875 -3.2344 -14.8906 -3.8438 L-14.1562 -3.8438 L-14.1562 5.5 ZM-10.4087 5.5 L-10.4087 4.2031 L-9.1118 4.2031 L-9.1118 5.5 L-10.4087 5.5 ZM-5.6007 0.4531 Q-6.3038 0.1875 -6.6476 -0.2891 Q-6.9913 -0.7656 -6.9913 -1.4375 Q-6.9913 -2.4531 -6.2648 -3.1484 Q-5.5382 -3.8438 -4.3195 -3.8438 Q-3.1007 -3.8438 -2.3585 -3.1328 Q-1.6163 -2.4219 -1.6163 -1.4062 Q-1.6163 -0.7656 -1.9601 -0.2891 Q-2.3038 0.1875 -2.9913 0.4531 Q-2.132 0.7344 -1.6866 1.3594 Q-1.2413 1.9844 -1.2413 2.8438 Q-1.2413 4.0312 -2.0851 4.8438 Q-2.9288 5.6562 -4.3038 5.6562 Q-5.6788 5.6562 -6.5226 4.8438 Q-7.3663 4.0312 -7.3663 2.8125 Q-7.3663 1.9062 -6.9054 1.2891 Q-6.4445 0.6719 -5.6007 0.4531 ZM-5.8351 -1.4844 Q-5.8351 -0.8281 -5.4054 -0.4062 Q-4.9757 0.0156 -4.3038 0.0156 Q-3.632 0.0156 -3.2101 -0.3984 Q-2.7882 -0.8125 -2.7882 -1.4219 Q-2.7882 -2.0469 -3.2257 -2.4766 Q-3.6632 -2.9062 -4.3038 -2.9062 Q-4.9601 -2.9062 -5.3976 -2.4844 Q-5.8351 -2.0625 -5.8351 -1.4844 ZM-6.1945 2.8125 Q-6.1945 3.2969 -5.9601 3.7578 Q-5.7257 4.2188 -5.2726 4.4688 Q-4.8195 4.7188 -4.2882 4.7188 Q-3.4757 4.7188 -2.9445 4.1953 Q-2.4132 3.6719 -2.4132 2.8594 Q-2.4132 2.0312 -2.9601 1.4922 Q-3.507 0.9531 -4.3351 0.9531 Q-5.132 0.9531 -5.6632 1.4844 Q-6.1945 2.0156 -6.1945 2.8125 Z"
         id="path2627" />
    </g>
    <g
       transform="translate(67.6667,31)"
       style="font-size:13.3333px; fill:rgb(38,38,38); text-rendering:geometricPrecision; image-rendering:optimizeQuality; color-rendering:optimizeQuality; font-family:'SansSerif'; stroke:rgb(38,38,38); color-interpolation:linearRGB;"
       id="g2633">
      <path
         style="stroke:none;"
         d="M-1.4531 4.4062 L-1.4531 5.5 L-7.6094 5.5 Q-7.625 5.0938 -7.4688 4.7031 Q-7.2344 4.0781 -6.7188 3.4688 Q-6.2031 2.8594 -5.2188 2.0625 Q-3.7031 0.8125 -3.1719 0.0859 Q-2.6406 -0.6406 -2.6406 -1.2812 Q-2.6406 -1.9688 -3.125 -2.4297 Q-3.6094 -2.8906 -4.3906 -2.8906 Q-5.2188 -2.8906 -5.7109 -2.3984 Q-6.2031 -1.9062 -6.2188 -1.0312 L-7.3906 -1.1562 Q-7.2656 -2.4688 -6.4844 -3.1562 Q-5.7031 -3.8438 -4.375 -3.8438 Q-3.0312 -3.8438 -2.25 -3.1016 Q-1.4688 -2.3594 -1.4688 -1.2656 Q-1.4688 -0.7031 -1.6953 -0.1641 Q-1.9219 0.375 -2.4531 0.9766 Q-2.9844 1.5781 -4.2188 2.6094 Q-5.25 3.4688 -5.5391 3.7812 Q-5.8281 4.0938 -6.0156 4.4062 L-1.4531 4.4062 Z"
         id="path2631" />
    </g>
    <g
       transform="translate(44.6667,202.4998) rotate(-90)"
       style="font-size:21.3333px; fill:rgb(38,38,38); text-rendering:geometricPrecision; image-rendering:optimizeQuality; color-rendering:optimizeQuality; font-family:'mwb_cmmi10'; stroke:rgb(38,38,38); color-interpolation:linearRGB;"
       id="g2661">
      <path
         style="stroke:none;"
         d="M-57.2676 -3.727 Q-57.2676 -3.852 -57.2364 -3.8988 L-55.1583 -12.2895 Q-54.8614 -13.4145 -54.1348 -14.4926 Q-53.4083 -15.5707 -52.3848 -16.266 Q-51.3614 -16.9613 -50.2208 -16.9613 Q-49.3145 -16.9613 -48.6348 -16.4848 Q-47.9551 -16.0082 -47.6114 -15.2348 Q-47.2676 -14.4613 -47.2676 -13.5395 Q-47.2676 -12.5238 -47.6817 -11.4379 Q-48.0958 -10.352 -48.8301 -9.4457 Q-49.5645 -8.5395 -50.5176 -7.9926 Q-51.4708 -7.4457 -52.5176 -7.4457 Q-53.127 -7.4457 -53.6739 -7.8129 Q-54.2208 -8.1801 -54.5176 -8.7738 L-55.7676 -3.8207 Q-55.8301 -3.5238 -56.0723 -3.3363 Q-56.3145 -3.1488 -56.627 -3.1488 Q-56.877 -3.1488 -57.0723 -3.3051 Q-57.2676 -3.4613 -57.2676 -3.727 ZM-52.4708 -7.9926 Q-51.3614 -7.9926 -50.5333 -9.141 Q-49.7051 -10.2895 -49.2676 -11.8285 Q-48.8301 -13.3676 -48.8301 -14.4301 Q-48.8301 -15.2426 -49.1817 -15.8285 Q-49.5333 -16.4145 -50.2676 -16.4145 Q-51.1739 -16.4145 -51.877 -15.727 Q-52.5801 -15.0395 -52.9942 -14.102 Q-53.4083 -13.1645 -53.6895 -12.1488 L-54.252 -9.8051 Q-54.127 -9.0395 -53.6583 -8.516 Q-53.1895 -7.9926 -52.4708 -7.9926 Z"
         id="path2635" />
      <path
         style="stroke:none;"
         d="M-46.1599 -5.6989 Q-46.1599 -5.7457 -46.1442 -5.8317 Q-46.1286 -5.9176 -46.1208 -6.0035 Q-46.113 -6.0895 -46.113 -6.1207 L-44.2536 -13.5582 Q-44.1911 -13.8082 -44.1755 -13.9645 Q-44.1755 -14.1989 -45.1599 -14.1989 Q-45.3005 -14.1989 -45.3005 -14.402 Q-45.2849 -14.4332 -45.2614 -14.527 Q-45.238 -14.6207 -45.1989 -14.6754 Q-45.1599 -14.7301 -45.0817 -14.7301 L-43.0661 -14.8864 Q-42.8786 -14.8864 -42.8786 -14.6989 L-45.0505 -6.0739 Q-45.1599 -5.8239 -45.1599 -5.3551 Q-45.1599 -4.7145 -44.7067 -4.7145 Q-44.2536 -4.7145 -44.0192 -5.2848 Q-43.7849 -5.8551 -43.613 -6.6832 Q-43.5817 -6.777 -43.488 -6.777 L-43.3005 -6.777 Q-43.2536 -6.777 -43.2146 -6.7301 Q-43.1755 -6.6832 -43.1755 -6.6207 Q-43.3474 -5.902 -43.488 -5.4801 Q-43.6286 -5.0582 -43.9411 -4.6832 Q-44.2536 -4.3082 -44.738 -4.3082 Q-45.3474 -4.3082 -45.7536 -4.6989 Q-46.1599 -5.0895 -46.1599 -5.6989 Z"
         id="path2637" />
      <path
         style="stroke:none;"
         d="M-39.0508 -4.3082 Q-39.754 -4.3082 -40.3087 -4.6442 Q-40.8633 -4.9801 -41.168 -5.5504 Q-41.4727 -6.1207 -41.4727 -6.8551 Q-41.4727 -7.8707 -40.9024 -8.8707 Q-40.3321 -9.8707 -39.3868 -10.4879 Q-38.4415 -11.1051 -37.4102 -11.1051 Q-36.8633 -11.1051 -36.4258 -10.9176 Q-35.9883 -10.7301 -35.668 -10.3864 Q-35.3477 -10.0426 -35.1758 -9.5817 Q-35.004 -9.1207 -35.004 -8.5739 Q-35.004 -7.7926 -35.3321 -7.0348 Q-35.6602 -6.277 -36.2305 -5.6598 Q-36.8008 -5.0426 -37.543 -4.6754 Q-38.2852 -4.3082 -39.0508 -4.3082 ZM-39.0196 -4.7145 Q-38.3477 -4.7145 -37.8008 -5.1676 Q-37.254 -5.6207 -36.8946 -6.3082 Q-36.5352 -6.9957 -36.3477 -7.7692 Q-36.1602 -8.5426 -36.1602 -9.1676 Q-36.1602 -9.8082 -36.4805 -10.2614 Q-36.8008 -10.7145 -37.4415 -10.7145 Q-38.3165 -10.7145 -38.9805 -9.9645 Q-39.6446 -9.2145 -39.9727 -8.1754 Q-40.3008 -7.1364 -40.3008 -6.2614 Q-40.3008 -5.6207 -39.9727 -5.1676 Q-39.6446 -4.7145 -39.0196 -4.7145 Z"
         id="path2639" />
      <path
         style="stroke:none;"
         d="M-33.0623 -6.2614 Q-33.0623 -5.6207 -32.7342 -5.1676 Q-32.4061 -4.7145 -31.7811 -4.7145 Q-30.8905 -4.7145 -30.0623 -5.1207 Q-29.2342 -5.527 -28.7186 -6.2457 Q-28.6717 -6.2926 -28.6092 -6.2926 Q-28.5311 -6.2926 -28.453 -6.2067 Q-28.3748 -6.1207 -28.3748 -6.0582 Q-28.3748 -5.9957 -28.4061 -5.9645 Q-28.953 -5.1989 -29.8827 -4.7535 Q-30.8123 -4.3082 -31.8123 -4.3082 Q-32.5311 -4.3082 -33.078 -4.652 Q-33.6248 -4.9957 -33.9295 -5.566 Q-34.2342 -6.1364 -34.2342 -6.8551 Q-34.2342 -7.8707 -33.6639 -8.8629 Q-33.0936 -9.8551 -32.1561 -10.4801 Q-31.2186 -11.1051 -30.1873 -11.1051 Q-29.5155 -11.1051 -28.9764 -10.7848 Q-28.4373 -10.4645 -28.4373 -9.8239 Q-28.4373 -9.402 -28.6795 -9.1129 Q-28.9217 -8.8239 -29.3123 -8.8239 Q-29.5623 -8.8239 -29.7264 -8.9801 Q-29.8905 -9.1364 -29.8905 -9.3707 Q-29.8905 -9.7301 -29.6327 -9.9801 Q-29.3748 -10.2301 -29.0311 -10.2301 L-28.9998 -10.2301 Q-29.1873 -10.4801 -29.5155 -10.5973 Q-29.8436 -10.7145 -30.203 -10.7145 Q-31.078 -10.7145 -31.742 -9.9645 Q-32.4061 -9.2145 -32.7342 -8.1754 Q-33.0623 -7.1364 -33.0623 -6.2614 Z"
         id="path2641" />
      <path
         style="stroke:none;"
         d="M-25.7561 -4.3082 Q-26.7092 -4.3082 -27.2483 -5.027 Q-27.7874 -5.7457 -27.7874 -6.7145 Q-27.7874 -7.6676 -27.2952 -8.7067 Q-26.803 -9.7457 -25.9514 -10.4254 Q-25.0999 -11.1051 -24.1311 -11.1051 Q-23.678 -11.1051 -23.3264 -10.8629 Q-22.9749 -10.6207 -22.7874 -10.2145 Q-22.6155 -10.8082 -22.1311 -10.8082 Q-21.928 -10.8082 -21.803 -10.691 Q-21.678 -10.5739 -21.678 -10.3864 Q-21.678 -10.3395 -21.678 -10.3239 Q-21.678 -10.3082 -21.6936 -10.277 L-22.7405 -6.0895 Q-22.8499 -5.6364 -22.8499 -5.3551 Q-22.8499 -4.7145 -22.4124 -4.7145 Q-21.9436 -4.7145 -21.6936 -5.3082 Q-21.4436 -5.902 -21.2874 -6.6832 Q-21.2561 -6.777 -21.1624 -6.777 L-20.9749 -6.777 Q-20.928 -6.777 -20.8889 -6.7223 Q-20.8499 -6.6676 -20.8499 -6.6207 Q-21.1155 -5.5739 -21.428 -4.941 Q-21.7405 -4.3082 -22.4436 -4.3082 Q-22.9436 -4.3082 -23.3342 -4.6051 Q-23.7249 -4.902 -23.8186 -5.402 Q-24.7874 -4.3082 -25.7561 -4.3082 ZM-25.7405 -4.7145 Q-25.1936 -4.7145 -24.6858 -5.1207 Q-24.178 -5.527 -23.8186 -6.0739 Q-23.803 -6.0895 -23.803 -6.1207 L-22.9905 -9.3707 L-22.9749 -9.4176 Q-23.0686 -9.9489 -23.3655 -10.3317 Q-23.6624 -10.7145 -24.1624 -10.7145 Q-24.678 -10.7145 -25.1155 -10.3004 Q-25.553 -9.8864 -25.8499 -9.3239 Q-26.1311 -8.7301 -26.4046 -7.6832 Q-26.678 -6.6364 -26.678 -6.0582 Q-26.678 -5.5426 -26.4514 -5.1285 Q-26.2249 -4.7145 -25.7405 -4.7145 Z"
         id="path2643" />
      <path
         style="stroke:none;"
         d="M-19.8157 -5.6989 Q-19.8157 -5.7457 -19.8 -5.8317 Q-19.7844 -5.9176 -19.7766 -6.0035 Q-19.7688 -6.0895 -19.7688 -6.1207 L-17.9094 -13.5582 Q-17.8469 -13.8082 -17.8313 -13.9645 Q-17.8313 -14.1989 -18.8157 -14.1989 Q-18.9563 -14.1989 -18.9563 -14.402 Q-18.9407 -14.4332 -18.9172 -14.527 Q-18.8938 -14.6207 -18.8547 -14.6754 Q-18.8157 -14.7301 -18.7375 -14.7301 L-16.7219 -14.8864 Q-16.5344 -14.8864 -16.5344 -14.6989 L-18.7063 -6.0739 Q-18.8157 -5.8239 -18.8157 -5.3551 Q-18.8157 -4.7145 -18.3625 -4.7145 Q-17.9094 -4.7145 -17.675 -5.2848 Q-17.4407 -5.8551 -17.2688 -6.6832 Q-17.2375 -6.777 -17.1438 -6.777 L-16.9563 -6.777 Q-16.9094 -6.777 -16.8703 -6.7301 Q-16.8313 -6.6832 -16.8313 -6.6207 Q-17.0032 -5.902 -17.1438 -5.4801 Q-17.2844 -5.0582 -17.5969 -4.6832 Q-17.9094 -4.3082 -18.3938 -4.3082 Q-19.0032 -4.3082 -19.4094 -4.6989 Q-19.8157 -5.0895 -19.8157 -5.6989 Z"
         id="path2645" />
      <path
         style="stroke:none;"
         d="M-12.1712 -2.4301 L-12.1712 -23.4301 L-9.2962 -23.4301 L-9.2962 -22.5863 L-11.3275 -22.5863 L-11.3275 -3.2738 L-9.2962 -3.2738 L-9.2962 -2.4301 L-12.1712 -2.4301 Z"
         id="path2647" />
      <path
         style="stroke:none;"
         d="M-7.6047 -8.0551 Q-7.6047 -8.1801 -7.589 -8.2426 L-4.5422 -20.3832 Q-4.464 -20.7426 -4.4484 -20.9457 Q-4.4484 -21.2895 -5.8078 -21.2895 Q-6.0265 -21.2895 -6.0265 -21.5707 Q-6.0109 -21.6176 -5.9718 -21.7504 Q-5.9328 -21.8832 -5.8781 -21.9535 Q-5.8234 -22.0238 -5.7297 -22.0238 L-2.9015 -22.2582 L-2.839 -22.2582 Q-2.839 -22.227 -2.7609 -22.1957 Q-2.6828 -22.1645 -2.6828 -22.1488 Q-2.6359 -22.0395 -2.6359 -21.977 L-4.839 -13.2113 Q-4.089 -13.5238 -2.9328 -14.7191 Q-1.7765 -15.9145 -1.1281 -16.4379 Q-0.4797 -16.9613 0.5047 -16.9613 Q1.0985 -16.9613 1.5047 -16.5629 Q1.911 -16.1645 1.911 -15.5707 Q1.911 -15.2113 1.7625 -14.8988 Q1.6141 -14.5863 1.3328 -14.391 Q1.0516 -14.1957 0.6766 -14.1957 Q0.3485 -14.1957 0.1141 -14.4066 Q-0.1203 -14.6176 -0.1203 -14.9457 Q-0.1203 -15.4457 0.2391 -15.7895 Q0.5985 -16.1332 1.0985 -16.1332 Q0.8953 -16.4145 0.4735 -16.4145 Q-0.1515 -16.4145 -0.7375 -16.0551 Q-1.3234 -15.6957 -1.9875 -15.0238 Q-2.6515 -14.352 -3.2062 -13.7973 Q-3.7609 -13.2426 -4.2453 -12.9457 Q-2.9953 -12.8051 -2.0812 -12.2973 Q-1.1672 -11.7895 -1.1672 -10.7426 Q-1.1672 -10.5238 -1.2609 -10.1957 Q-1.4328 -9.4145 -1.4328 -8.9457 Q-1.4328 -7.9926 -0.7922 -7.9926 Q-0.0265 -7.9926 0.3641 -8.8285 Q0.7547 -9.6645 1.0047 -10.7738 Q1.0516 -10.8832 1.1922 -10.8832 L1.4266 -10.8832 Q1.5203 -10.8832 1.575 -10.8363 Q1.6297 -10.7895 1.6297 -10.7113 Q1.6297 -10.6801 1.6141 -10.6488 Q0.8172 -7.4457 -0.839 -7.4457 Q-1.4328 -7.4457 -1.8859 -7.7191 Q-2.339 -7.9926 -2.589 -8.4691 Q-2.839 -8.9457 -2.839 -9.5395 Q-2.839 -9.8832 -2.7453 -10.2426 Q-2.6828 -10.4926 -2.6828 -10.7113 Q-2.6828 -11.5082 -3.4015 -11.9301 Q-4.1203 -12.352 -5.0422 -12.4457 L-6.1047 -8.1645 Q-6.1828 -7.852 -6.4172 -7.6488 Q-6.6515 -7.4457 -6.964 -7.4457 Q-7.2297 -7.4457 -7.4172 -7.6254 Q-7.6047 -7.8051 -7.6047 -8.0551 Z"
         id="path2649" />
      <path
         style="stroke:none;"
         d="M3.345 -4.6801 Q3.345 -5.1957 3.6966 -5.5785 Q4.0481 -5.9613 4.5481 -5.9613 Q4.8919 -5.9613 5.1263 -5.7504 Q5.3606 -5.5395 5.3606 -5.1957 Q5.3606 -4.8207 5.1419 -4.516 Q4.9231 -4.2113 4.5794 -4.0863 Q5.1575 -3.9145 6.345 -3.9145 Q7.3138 -3.9145 8.1106 -4.6566 Q8.9075 -5.3988 9.1575 -6.3832 L9.7669 -8.8363 Q8.6263 -7.6801 7.3919 -7.6801 Q6.5013 -7.6801 5.8528 -8.141 Q5.2044 -8.602 4.8685 -9.3754 Q4.5325 -10.1488 4.5325 -11.0082 Q4.5325 -11.9613 4.931 -13.0238 Q5.3294 -14.0863 6.0403 -14.9848 Q6.7513 -15.8832 7.6731 -16.4223 Q8.595 -16.9613 9.6263 -16.9613 Q10.2356 -16.9613 10.7278 -16.6254 Q11.22 -16.2895 11.5013 -15.727 Q11.72 -16.5395 12.4075 -16.5395 Q12.6731 -16.5395 12.8606 -16.3832 Q13.0481 -16.227 13.0481 -15.9613 Q13.0481 -15.8988 13.0403 -15.8676 Q13.0325 -15.8363 13.0325 -15.7895 L10.6263 -6.2582 Q10.4544 -5.602 10.0169 -5.0551 Q9.5794 -4.5082 8.9856 -4.1488 Q8.3919 -3.7895 7.681 -3.5785 Q6.97 -3.3676 6.3138 -3.3676 Q5.1263 -3.3676 4.2356 -3.602 Q3.345 -3.8363 3.345 -4.6801 ZM7.4388 -8.227 Q8.7825 -8.227 10.0794 -10.0707 L11.2356 -14.6488 Q11.095 -15.3832 10.6653 -15.8988 Q10.2356 -16.4145 9.5794 -16.4145 Q8.8763 -16.4145 8.2591 -15.8441 Q7.6419 -15.2738 7.2356 -14.4926 Q6.845 -13.727 6.4778 -12.3051 Q6.1106 -10.8832 6.1106 -10.0707 Q6.1106 -9.352 6.4388 -8.7895 Q6.7669 -8.227 7.4388 -8.227 Z"
         id="path2651" />
      <path
         style="stroke:none;"
         d="M15.1607 -2.852 Q15.1607 -2.9145 15.192 -2.9301 L22.4889 -23.1801 Q22.5357 -23.2895 22.6373 -23.3598 Q22.7389 -23.4301 22.8639 -23.4301 Q23.0514 -23.4301 23.1686 -23.3207 Q23.2857 -23.2113 23.2857 -23.0082 L23.2857 -22.9301 L15.9889 -2.6801 Q15.8639 -2.4301 15.5826 -2.4301 Q15.4107 -2.4301 15.2857 -2.5551 Q15.1607 -2.6801 15.1607 -2.852 Z"
         id="path2653" />
      <path
         style="stroke:none;"
         d="M26.2806 -8.0395 Q26.2806 -8.1645 26.2962 -8.227 L27.8587 -14.4926 Q28.0149 -15.0707 28.0149 -15.5082 Q28.0149 -16.4145 27.4056 -16.4145 Q26.7493 -16.4145 26.429 -15.6332 Q26.1087 -14.852 25.8118 -13.6488 Q25.8118 -13.5863 25.7493 -13.5473 Q25.6868 -13.5082 25.6399 -13.5082 L25.3899 -13.5082 Q25.3274 -13.5082 25.2728 -13.5863 Q25.2181 -13.6645 25.2181 -13.727 Q25.4524 -14.6488 25.6556 -15.2816 Q25.8587 -15.9145 26.3118 -16.4379 Q26.7649 -16.9613 27.4212 -16.9613 Q28.2181 -16.9613 28.8196 -16.4613 Q29.4212 -15.9613 29.4212 -15.1957 Q30.0462 -16.0238 30.8899 -16.4926 Q31.7337 -16.9613 32.6712 -16.9613 Q33.6712 -16.9613 34.3899 -16.4535 Q35.1087 -15.9457 35.1087 -15.0082 Q35.7649 -15.9301 36.6321 -16.4457 Q37.4993 -16.9613 38.5149 -16.9613 Q39.6087 -16.9613 40.2649 -16.3676 Q40.9212 -15.7738 40.9212 -14.6957 Q40.9212 -13.8363 40.5384 -12.6176 Q40.1556 -11.3988 39.5931 -9.8832 Q39.2806 -9.1645 39.2806 -8.6176 Q39.2806 -7.9926 39.7806 -7.9926 Q40.5931 -7.9926 41.1399 -8.8754 Q41.6868 -9.7582 41.9056 -10.7738 Q41.9681 -10.8832 42.0931 -10.8832 L42.3274 -10.8832 Q42.4212 -10.8832 42.4759 -10.8285 Q42.5306 -10.7738 42.5306 -10.7113 Q42.5306 -10.6801 42.5149 -10.6488 Q42.2181 -9.4613 41.5071 -8.4535 Q40.7962 -7.4457 39.7337 -7.4457 Q38.9837 -7.4457 38.4681 -7.9535 Q37.9524 -8.4613 37.9524 -9.1801 Q37.9524 -9.5551 38.1243 -10.0082 Q38.7181 -11.5863 39.1087 -12.8285 Q39.4993 -14.0707 39.4993 -15.0082 Q39.4993 -15.602 39.2649 -16.0082 Q39.0306 -16.4145 38.4837 -16.4145 Q37.3274 -16.4145 36.4915 -15.7113 Q35.6556 -15.0082 35.0306 -13.852 Q34.9993 -13.6488 34.9681 -13.5395 L33.6243 -8.1488 Q33.5462 -7.852 33.2962 -7.6488 Q33.0462 -7.4457 32.7337 -7.4457 Q32.4837 -7.4457 32.2962 -7.6098 Q32.1087 -7.7738 32.1087 -8.0395 Q32.1087 -8.1645 32.1243 -8.227 L33.4681 -13.5707 Q33.6868 -14.4301 33.6868 -15.0082 Q33.6868 -15.602 33.4446 -16.0082 Q33.2024 -16.4145 32.6399 -16.4145 Q31.8587 -16.4145 31.2181 -16.0785 Q30.5774 -15.7426 30.0931 -15.1801 Q29.6087 -14.6176 29.2024 -13.852 L27.7806 -8.1488 Q27.7181 -7.852 27.4603 -7.6488 Q27.2024 -7.4457 26.9056 -7.4457 Q26.6399 -7.4457 26.4603 -7.6098 Q26.2806 -7.7738 26.2806 -8.0395 Z"
         id="path2655" />
      <path
         style="stroke:none;"
         d="M44.8084 -16.578 Q45.1678 -16.0624 45.7615 -15.8124 Q46.3553 -15.5624 47.0271 -15.5624 Q47.9021 -15.5624 48.2693 -16.3124 Q48.6365 -17.0624 48.6365 -17.9999 Q48.6365 -18.4218 48.5584 -18.8515 Q48.4803 -19.2812 48.3006 -19.6405 Q48.1209 -19.9999 47.8006 -20.2265 Q47.4803 -20.453 47.0271 -20.453 L46.0271 -20.453 Q45.8865 -20.453 45.8865 -20.578 L45.8865 -20.7187 Q45.8865 -20.828 46.0271 -20.828 L46.8553 -20.9062 Q47.3709 -20.9062 47.7225 -21.2968 Q48.074 -21.6874 48.2381 -22.2577 Q48.4021 -22.828 48.4021 -23.3437 Q48.4021 -24.0624 48.0662 -24.5233 Q47.7303 -24.9843 47.0271 -24.9843 Q46.4646 -24.9843 45.9412 -24.7655 Q45.4178 -24.5468 45.1209 -24.1093 Q45.1521 -24.1093 45.1678 -24.1171 Q45.1834 -24.1249 45.2146 -24.1249 Q45.5584 -24.1249 45.785 -23.8905 Q46.0115 -23.6562 46.0115 -23.328 Q46.0115 -22.9999 45.785 -22.7655 Q45.5584 -22.5312 45.2146 -22.5312 Q44.8865 -22.5312 44.6521 -22.7655 Q44.4178 -22.9999 44.4178 -23.328 Q44.4178 -23.9687 44.8084 -24.4452 Q45.199 -24.9218 45.8084 -25.164 Q46.4178 -25.4062 47.0271 -25.4062 Q47.4959 -25.4062 47.9959 -25.2733 Q48.4959 -25.1405 48.91 -24.8905 Q49.324 -24.6405 49.5818 -24.2421 Q49.8396 -23.8437 49.8396 -23.3437 Q49.8396 -22.703 49.5584 -22.1718 Q49.2771 -21.6405 48.785 -21.2499 Q48.2928 -20.8593 47.7146 -20.6718 Q48.3553 -20.5468 48.9412 -20.1796 Q49.5271 -19.8124 49.8865 -19.2421 Q50.2459 -18.6718 50.2459 -18.0155 Q50.2459 -17.1874 49.7928 -16.5155 Q49.3396 -15.8437 48.5975 -15.4687 Q47.8553 -15.0937 47.0271 -15.0937 Q46.324 -15.0937 45.6209 -15.3593 Q44.9178 -15.6249 44.4646 -16.164 Q44.0115 -16.703 44.0115 -17.4374 Q44.0115 -17.8124 44.2615 -18.0624 Q44.5115 -18.3124 44.8865 -18.3124 Q45.1365 -18.3124 45.3318 -18.203 Q45.5271 -18.0937 45.6443 -17.8827 Q45.7615 -17.6718 45.7615 -17.4374 Q45.7615 -17.078 45.5037 -16.828 Q45.2459 -16.578 44.8865 -16.578 L44.8084 -16.578 Z"
         id="path2657" />
      <path
         style="stroke:none;"
         d="M52.3886 -2.4301 L52.3886 -3.2738 L54.4199 -3.2738 L54.4199 -22.5863 L52.3886 -22.5863 L52.3886 -23.4301 L55.2636 -23.4301 L55.2636 -2.4301 L52.3886 -2.4301 Z"
         id="path2659" />
    </g>
    <g
       transform="translate(290.0003,28.25)"
       style="font-size:14.6667px; text-rendering:geometricPrecision; image-rendering:optimizeQuality; color-rendering:optimizeQuality; font-family:'SansSerif'; color-interpolation:linearRGB; font-weight:bold;"
       id="g2665">
      <path
         style="stroke:none;"
         d="M-25.4219 -14.7344 L-21.4531 -14.7344 Q-20.1094 -14.7344 -19.4062 -14.5312 Q-18.4688 -14.25 -17.7969 -13.5391 Q-17.125 -12.8281 -16.7734 -11.8047 Q-16.4219 -10.7812 -16.4219 -9.2656 Q-16.4219 -7.9375 -16.75 -6.9844 Q-17.1406 -5.8125 -17.8906 -5.0781 Q-18.4531 -4.5312 -19.4219 -4.2344 Q-20.1406 -4 -21.3438 -4 L-25.4219 -4 L-25.4219 -14.7344 ZM-23.25 -12.9219 L-23.25 -5.8125 L-21.625 -5.8125 Q-20.7188 -5.8125 -20.3125 -5.9062 Q-19.7969 -6.0469 -19.4453 -6.3594 Q-19.0938 -6.6719 -18.875 -7.3906 Q-18.6562 -8.1094 -18.6562 -9.3594 Q-18.6562 -10.6094 -18.875 -11.2734 Q-19.0938 -11.9375 -19.4922 -12.3125 Q-19.8906 -12.6875 -20.5 -12.8125 Q-20.9531 -12.9219 -22.2812 -12.9219 L-23.25 -12.9219 ZM-10.3376 -6.4688 L-8.2907 -6.125 Q-8.6814 -5 -9.5329 -4.4141 Q-10.3845 -3.8281 -11.6657 -3.8281 Q-13.697 -3.8281 -14.6657 -5.1562 Q-15.447 -6.2188 -15.447 -7.8281 Q-15.447 -9.7656 -14.4314 -10.8594 Q-13.4157 -11.9531 -11.8689 -11.9531 Q-10.1345 -11.9531 -9.1345 -10.8047 Q-8.1345 -9.6562 -8.1814 -7.2969 L-13.3376 -7.2969 Q-13.3064 -6.375 -12.8298 -5.8672 Q-12.3532 -5.3594 -11.6501 -5.3594 Q-11.1657 -5.3594 -10.8376 -5.625 Q-10.5095 -5.8906 -10.3376 -6.4688 ZM-10.2126 -8.5625 Q-10.2439 -9.4531 -10.6814 -9.9141 Q-11.1189 -10.375 -11.7439 -10.375 Q-12.4157 -10.375 -12.8689 -9.8906 Q-13.3064 -9.3906 -13.2907 -8.5625 L-10.2126 -8.5625 ZM0.3916 -4 L-1.6709 -4 L-1.6709 -7.9688 Q-1.6709 -9.2344 -1.8037 -9.6016 Q-1.9365 -9.9688 -2.2334 -10.1719 Q-2.5302 -10.375 -2.9521 -10.375 Q-3.4834 -10.375 -3.9052 -10.0859 Q-4.3271 -9.7969 -4.4834 -9.3125 Q-4.6396 -8.8281 -4.6396 -7.5156 L-4.6396 -4 L-6.7021 -4 L-6.7021 -11.7812 L-4.7959 -11.7812 L-4.7959 -10.6406 Q-3.7802 -11.9531 -2.2334 -11.9531 Q-1.5459 -11.9531 -0.9834 -11.7109 Q-0.4209 -11.4688 -0.1318 -11.0859 Q0.1573 -10.7031 0.2744 -10.2188 Q0.3916 -9.7344 0.3916 -8.8281 L0.3916 -4 ZM1.5474 -6.2188 L3.6099 -6.5312 Q3.7349 -5.9375 4.1411 -5.625 Q4.5474 -5.3125 5.2661 -5.3125 Q6.063 -5.3125 6.4693 -5.6094 Q6.7349 -5.8125 6.7349 -6.1562 Q6.7349 -6.3906 6.5943 -6.5469 Q6.438 -6.6875 5.9068 -6.8125 Q3.4224 -7.3594 2.7505 -7.8125 Q1.8286 -8.4531 1.8286 -9.5625 Q1.8286 -10.5781 2.6255 -11.2656 Q3.4224 -11.9531 5.0943 -11.9531 Q6.7036 -11.9531 7.4771 -11.4375 Q8.2505 -10.9219 8.5474 -9.8906 L6.5943 -9.5312 Q6.4693 -9.9844 6.1255 -10.2266 Q5.7818 -10.4688 5.1411 -10.4688 Q4.3286 -10.4688 3.9693 -10.25 Q3.7349 -10.0938 3.7349 -9.8281 Q3.7349 -9.6094 3.938 -9.4531 Q4.2193 -9.25 5.8677 -8.875 Q7.5161 -8.5 8.1568 -7.9688 Q8.813 -7.4062 8.813 -6.4375 Q8.813 -5.3594 7.9146 -4.5938 Q7.0161 -3.8281 5.2661 -3.8281 Q3.6724 -3.8281 2.7505 -4.4688 Q1.8286 -5.1094 1.5474 -6.2188 ZM10.4172 -12.8281 L10.4172 -14.7344 L12.4797 -14.7344 L12.4797 -12.8281 L10.4172 -12.8281 ZM10.4172 -4 L10.4172 -11.7812 L12.4797 -11.7812 L12.4797 -4 L10.4172 -4 ZM18.0517 -11.7812 L18.0517 -10.1406 L16.6455 -10.1406 L16.6455 -7 Q16.6455 -6.0469 16.6845 -5.8906 Q16.7236 -5.7344 16.872 -5.6328 Q17.0205 -5.5312 17.2236 -5.5312 Q17.5048 -5.5312 18.0517 -5.7344 L18.2236 -4.125 Q17.5048 -3.8281 16.5986 -3.8281 Q16.0361 -3.8281 15.5908 -4.0156 Q15.1455 -4.2031 14.9345 -4.5 Q14.7236 -4.7969 14.6455 -5.2969 Q14.583 -5.6562 14.583 -6.75 L14.583 -10.1406 L13.6455 -10.1406 L13.6455 -11.7812 L14.583 -11.7812 L14.583 -13.3281 L16.6455 -14.5312 L16.6455 -11.7812 L18.0517 -11.7812 ZM18.4011 -11.7812 L20.5886 -11.7812 L22.448 -6.25 L24.2605 -11.7812 L26.3855 -11.7812 L23.6511 -4.2969 L23.1511 -2.9375 Q22.8855 -2.25 22.6433 -1.8906 Q22.4011 -1.5312 22.0808 -1.3125 Q21.7605 -1.0938 21.2917 -0.9688 Q20.823 -0.8438 20.2449 -0.8438 Q19.6511 -0.8438 19.073 -0.9688 L18.8855 -2.5781 Q19.3699 -2.4844 19.7605 -2.4844 Q20.4792 -2.4844 20.823 -2.9062 Q21.1667 -3.3281 21.3542 -3.9844 L18.4011 -11.7812 Z"
         id="path2663" />
    </g>
    <g
       style="stroke-linecap:butt; text-rendering:geometricPrecision; color-rendering:optimizeQuality; image-rendering:optimizeQuality; stroke-linejoin:round; color-interpolation:linearRGB; stroke-width:1.6667;"
       id="g2669">
      <path
         d="M73 58.4392 L75.8933 58.5552 L78.7867 58.903 L81.68 59.4821 L84.5733 60.2918 L87.4667 61.331 L90.36 62.5983 L93.2533 64.092 L96.1467 65.8103 L99.04 67.7507 L101.9333 69.9106 L104.8267 72.2873 L107.72 74.8775 L110.6133 77.6778 L113.5067 80.6843 L116.4 83.8931 L119.2933 87.2998 L122.1867 90.8998 L125.08 94.6881 L127.9733 98.6597 L130.8667 102.8091 L133.76 107.1306 L136.6533 111.6182 L139.5467 116.2657 L142.44 121.0667 L145.3333 126.0144 L148.2267 131.1019 L151.12 136.322 L154.0133 141.6673 L156.9067 147.1302 L159.8 152.7028 L162.6933 158.3771 L165.5867 164.1449 L168.48 169.9977 L171.3733 175.9269 L174.2667 181.9238 L177.16 187.9794 L180.0533 194.0846 L182.9467 200.2302 L185.84 206.4069 L188.7333 212.6051 L191.6267 218.8152 L194.52 225.0276 L197.4133 231.2326 L200.3067 237.4203 L203.2 243.5807 L206.0933 249.7041 L208.9867 255.7803 L211.88 261.7996 L214.7733 267.7519 L217.6667 273.6273 L220.56 279.4159 L223.4533 285.108 L226.3467 290.6938 L229.24 296.1638 L232.1333 301.5084 L235.0267 306.7184 L237.92 311.7846 L240.8133 316.6981 L243.7067 321.4503 L246.6 326.0328 L249.4933 330.4375 L252.3867 334.6567 L255.28 338.6831 L258.1733 342.5098 L261.0667 346.1304 L263.96 349.539 L266.8533 352.7305 L269.7467 355.7002 L272.64 358.4442 L275.5333 360.9597 L278.4267 363.2444 L281.32 365.2973 L284.2133 367.1186 L287.1067 368.7097 L290 370.0735 L292.8933 371.2148 L295.7867 372.1404 L298.68 372.8596 L301.5733 373.3849 L304.4667 373.7329 L307.36 373.9258 L310.2533 373.9956 L313.1467 374 L316.04 374 L318.9333 374 L321.8267 374 L324.72 374 L327.6133 374 L330.5067 374 L333.4 374 L336.2933 374 L339.1867 374 L342.08 374 L344.9733 374 L347.8667 374 L350.76 374 L353.6533 374 L356.5467 374 L359.44 374 L362.3333 374 L365.2267 374 L368.12 374 L371.0133 374 L373.9067 374 L376.8 374 L379.6933 374 L382.5867 374 L385.48 374 L388.3733 374 L391.2667 374 L394.16 374 L397.0533 374 L399.9467 374 L402.84 374 L405.7333 374 L408.6267 374 L411.52 374 L414.4133 374 L417.3067 374 L420.2 374 L423.0933 374 L425.9867 374 L428.88 374 L431.7733 374 L434.6667 374 L437.56 374 L440.4533 374 L443.3467 374 L446.24 374 L449.1333 374 L452.0267 374 L454.92 374 L457.8133 374 L460.7067 374 L463.6 374 L466.4933 374 L469.3867 374 L472.28 374 L475.1733 374 L478.0667 374 L480.96 374 L483.8533 374 L486.7467 374 L489.64 374 L492.5333 374 L495.4267 374 L498.32 374 L501.2133 374 L504.1067 374 L507 374"
         style="fill:none; fill-rule:evenodd;"
         id="path2667" />
    </g>
  </g>
  <rect
     style="fill:none;stroke:none"
     id="rect2679"
     width="25.329945"
     height="115.37716"
     x="15.609756"
     y="144.39024" />
  <rect
     style="fill:none;stroke:none"
     id="rect2681"
     width="85.365852"
     height="20.975609"
     x="250.7317"
     y="397.07318" />
  <rect
     style="fill:none;stroke:none"
     id="rect2683"
     width="460.97562"
     height="16.585365"
     x="70.243904"
     y="380" />
  <rect
     style="fill:none;stroke:none"
     id="rect2685"
     width="49.756096"
     height="359.51221"
     x="44.390244"
     y="23.414633" />
  <rect
     style="fill:none;stroke:none"
     id="rect2687"
     width="73.658539"
     height="22.439024"
     x="244.87805"
     y="4.8780484" />
</svg>
