<?xml version="1.0" encoding="UTF-8" standalone="no"?>
<svg
   xmlns:dc="http://purl.org/dc/elements/1.1/"
   xmlns:cc="http://creativecommons.org/ns#"
   xmlns:rdf="http://www.w3.org/1999/02/22-rdf-syntax-ns#"
   xmlns:svg="http://www.w3.org/2000/svg"
   xmlns="http://www.w3.org/2000/svg"
   xmlns:sodipodi="http://sodipodi.sourceforge.net/DTD/sodipodi-0.dtd"
   xmlns:inkscape="http://www.inkscape.org/namespaces/inkscape"
   style="fill-opacity:1; color-rendering:auto; color-interpolation:auto; text-rendering:auto; stroke:black; stroke-linecap:square; stroke-miterlimit:10; shape-rendering:auto; stroke-opacity:1; fill:black; stroke-dasharray:none; font-weight:normal; stroke-width:1; font-family:'Dialog'; font-style:normal; stroke-linejoin:miter; font-size:12px; stroke-dashoffset:0; image-rendering:auto;"
   width="560"
   height="420"
   version="1.1"
   id="svg3669"
   sodipodi:docname="UnclampedSpeedofSound.svg"
   inkscape:version="0.92.4 (5da689c313, 2019-01-14)">
  <metadata
     id="metadata3673">
    <rdf:RDF>
      <cc:Work
         rdf:about="">
        <dc:format>image/svg+xml</dc:format>
        <dc:type
           rdf:resource="http://purl.org/dc/dcmitype/StillImage" />
      </cc:Work>
    </rdf:RDF>
  </metadata>
  <sodipodi:namedview
     pagecolor="#ffffff"
     bordercolor="#666666"
     borderopacity="1"
     objecttolerance="10"
     gridtolerance="10"
     guidetolerance="10"
     inkscape:pageopacity="0"
     inkscape:pageshadow="2"
     inkscape:window-width="1920"
     inkscape:window-height="1147"
     id="namedview3671"
     showgrid="false"
     inkscape:zoom="2.05"
     inkscape:cx="289.43216"
     inkscape:cy="201.61688"
     inkscape:window-x="-8"
     inkscape:window-y="-8"
     inkscape:window-maximized="1"
     inkscape:current-layer="svg3669" />
  <!--Generated by the Batik Graphics2D SVG Generator-->
  <defs
     id="genericDefs" />
  <g
     id="g3667">
    <defs
       id="defs1">
      <clipPath
         clipPathUnits="userSpaceOnUse"
         id="clipPath1">
        <path
           d="M0 0 L560 0 L560 420 L0 420 L0 0 Z"
           id="path3417" />
      </clipPath>
    </defs>
    <g
       style="fill:white; stroke:white;"
       id="g3423">
      <rect
         x="0"
         y="0"
         width="560"
         style="clip-path:url(#clipPath1); stroke:none;"
         height="420"
         clip-path="url(#clipPath1)"
         id="rect3421" />
    </g>
    <g
       style="fill:white; text-rendering:optimizeSpeed; color-rendering:optimizeSpeed; image-rendering:optimizeSpeed; shape-rendering:crispEdges; stroke:white; color-interpolation:sRGB;"
       id="g3429">
      <rect
         x="0"
         width="560"
         height="420"
         y="0"
         style="stroke:none;"
         id="rect3425" />
      <path
         style="stroke:none;"
         d="M73 374 L507 374 L507 31 L73 31 Z"
         id="path3427" />
    </g>
    <g
       style="stroke-linecap:butt; fill-opacity:0.149; fill:rgb(38,38,38); text-rendering:geometricPrecision; image-rendering:optimizeQuality; color-rendering:optimizeQuality; stroke-linejoin:round; stroke:rgb(38,38,38); color-interpolation:linearRGB; stroke-width:0.6667; stroke-opacity:0.149;"
       id="g3481">
      <line
         y2="31"
         style="fill:none;"
         x1="73"
         x2="73"
         y1="374"
         id="line3431" />
      <line
         y2="31"
         style="fill:none;"
         x1="217.6667"
         x2="217.6667"
         y1="374"
         id="line3433" />
      <line
         y2="31"
         style="fill:none;"
         x1="362.3333"
         x2="362.3333"
         y1="374"
         id="line3435" />
      <line
         y2="31"
         style="fill:none;"
         x1="507"
         x2="507"
         y1="374"
         id="line3437" />
      <line
         y2="374"
         style="fill:none;"
         x1="507"
         x2="73"
         y1="374"
         id="line3439" />
      <line
         y2="339.7"
         style="fill:none;"
         x1="507"
         x2="73"
         y1="339.7"
         id="line3441" />
      <line
         y2="305.4"
         style="fill:none;"
         x1="507"
         x2="73"
         y1="305.4"
         id="line3443" />
      <line
         y2="271.1"
         style="fill:none;"
         x1="507"
         x2="73"
         y1="271.1"
         id="line3445" />
      <line
         y2="236.8"
         style="fill:none;"
         x1="507"
         x2="73"
         y1="236.8"
         id="line3447" />
      <line
         y2="202.5"
         style="fill:none;"
         x1="507"
         x2="73"
         y1="202.5"
         id="line3449" />
      <line
         y2="168.2"
         style="fill:none;"
         x1="507"
         x2="73"
         y1="168.2"
         id="line3451" />
      <line
         y2="133.9"
         style="fill:none;"
         x1="507"
         x2="73"
         y1="133.9"
         id="line3453" />
      <line
         y2="99.6"
         style="fill:none;"
         x1="507"
         x2="73"
         y1="99.6"
         id="line3455" />
      <line
         y2="65.3"
         style="fill:none;"
         x1="507"
         x2="73"
         y1="65.3"
         id="line3457" />
      <line
         y2="31"
         style="fill:none;"
         x1="507"
         x2="73"
         y1="31"
         id="line3459" />
      <line
         x1="73"
         x2="507"
         y1="374"
         style="stroke-linecap:square; fill-opacity:1; fill:none; stroke-opacity:1;"
         y2="374"
         id="line3461" />
      <line
         x1="73"
         x2="507"
         y1="31"
         style="stroke-linecap:square; fill-opacity:1; fill:none; stroke-opacity:1;"
         y2="31"
         id="line3463" />
      <line
         x1="73"
         x2="73"
         y1="374"
         style="stroke-linecap:square; fill-opacity:1; fill:none; stroke-opacity:1;"
         y2="369.66"
         id="line3465" />
      <line
         x1="217.6667"
         x2="217.6667"
         y1="374"
         style="stroke-linecap:square; fill-opacity:1; fill:none; stroke-opacity:1;"
         y2="369.66"
         id="line3467" />
      <line
         x1="362.3333"
         x2="362.3333"
         y1="374"
         style="stroke-linecap:square; fill-opacity:1; fill:none; stroke-opacity:1;"
         y2="369.66"
         id="line3469" />
      <line
         x1="507"
         x2="507"
         y1="374"
         style="stroke-linecap:square; fill-opacity:1; fill:none; stroke-opacity:1;"
         y2="369.66"
         id="line3471" />
      <line
         x1="73"
         x2="73"
         y1="31"
         style="stroke-linecap:square; fill-opacity:1; fill:none; stroke-opacity:1;"
         y2="35.34"
         id="line3473" />
      <line
         x1="217.6667"
         x2="217.6667"
         y1="31"
         style="stroke-linecap:square; fill-opacity:1; fill:none; stroke-opacity:1;"
         y2="35.34"
         id="line3475" />
      <line
         x1="362.3333"
         x2="362.3333"
         y1="31"
         style="stroke-linecap:square; fill-opacity:1; fill:none; stroke-opacity:1;"
         y2="35.34"
         id="line3477" />
      <line
         x1="507"
         x2="507"
         y1="31"
         style="stroke-linecap:square; fill-opacity:1; fill:none; stroke-opacity:1;"
         y2="35.34"
         id="line3479" />
    </g>
    <g
       transform="translate(73,379.3333)"
       style="font-size:13.3333px; fill:rgb(38,38,38); text-rendering:geometricPrecision; image-rendering:optimizeQuality; color-rendering:optimizeQuality; font-family:'SansSerif'; stroke:rgb(38,38,38); color-interpolation:linearRGB;"
       id="g3485">
      <path
         style="stroke:none;"
         d="M-3.4531 9.4062 Q-3.4531 7.7656 -3.1172 6.7578 Q-2.7812 5.75 -2.1094 5.2031 Q-1.4375 4.6562 -0.4219 4.6562 Q0.3281 4.6562 0.8906 4.9609 Q1.4531 5.2656 1.8203 5.8281 Q2.1875 6.3906 2.3984 7.2109 Q2.6094 8.0312 2.6094 9.4062 Q2.6094 11.0469 2.2734 12.0547 Q1.9375 13.0625 1.2656 13.6094 Q0.5938 14.1562 -0.4219 14.1562 Q-1.7656 14.1562 -2.5469 13.1875 Q-3.4531 12.0312 -3.4531 9.4062 ZM-2.2812 9.4062 Q-2.2812 11.7031 -1.75 12.4609 Q-1.2188 13.2188 -0.4219 13.2188 Q0.3594 13.2188 0.8984 12.4609 Q1.4375 11.7031 1.4375 9.4062 Q1.4375 7.1094 0.8984 6.3594 Q0.3594 5.6094 -0.4375 5.6094 Q-1.2188 5.6094 -1.7031 6.2656 Q-2.2812 7.125 -2.2812 9.4062 Z"
         id="path3483" />
    </g>
    <g
       transform="translate(217.6667,379.3333)"
       style="font-size:13.3333px; fill:rgb(38,38,38); text-rendering:geometricPrecision; image-rendering:optimizeQuality; color-rendering:optimizeQuality; font-family:'SansSerif'; stroke:rgb(38,38,38); color-interpolation:linearRGB;"
       id="g3489">
      <path
         style="stroke:none;"
         d="M-10.9531 11.5625 L-9.7656 11.4531 Q-9.625 12.3438 -9.1406 12.7812 Q-8.6562 13.2188 -7.9688 13.2188 Q-7.1406 13.2188 -6.5703 12.5938 Q-6 11.9688 -6 10.9531 Q-6 9.9688 -6.5469 9.4062 Q-7.0938 8.8438 -7.9844 8.8438 Q-8.5469 8.8438 -8.9922 9.0938 Q-9.4375 9.3438 -9.6875 9.7344 L-10.75 9.5938 L-9.8594 4.8281 L-5.2344 4.8281 L-5.2344 5.9062 L-8.9375 5.9062 L-9.4375 8.4062 Q-8.6094 7.8281 -7.6875 7.8281 Q-6.4688 7.8281 -5.6328 8.6719 Q-4.7969 9.5156 -4.7969 10.8438 Q-4.7969 12.1094 -5.5312 13.0312 Q-6.4219 14.1562 -7.9688 14.1562 Q-9.2344 14.1562 -10.0391 13.4453 Q-10.8438 12.7344 -10.9531 11.5625 ZM-3.5493 9.4062 Q-3.5493 7.7656 -3.2134 6.7578 Q-2.8775 5.75 -2.2056 5.2031 Q-1.5337 4.6562 -0.5181 4.6562 Q0.2319 4.6562 0.7944 4.9609 Q1.3569 5.2656 1.7241 5.8281 Q2.0913 6.3906 2.3022 7.2109 Q2.5132 8.0312 2.5132 9.4062 Q2.5132 11.0469 2.1772 12.0547 Q1.8413 13.0625 1.1694 13.6094 Q0.4975 14.1562 -0.5181 14.1562 Q-1.8618 14.1562 -2.6431 13.1875 Q-3.5493 12.0312 -3.5493 9.4062 ZM-2.3775 9.4062 Q-2.3775 11.7031 -1.8462 12.4609 Q-1.315 13.2188 -0.5181 13.2188 Q0.2632 13.2188 0.8022 12.4609 Q1.3413 11.7031 1.3413 9.4062 Q1.3413 7.1094 0.8022 6.3594 Q0.2632 5.6094 -0.5337 5.6094 Q-1.315 5.6094 -1.7993 6.2656 Q-2.3775 7.125 -2.3775 9.4062 ZM3.8544 9.4062 Q3.8544 7.7656 4.1904 6.7578 Q4.5263 5.75 5.1982 5.2031 Q5.8701 4.6562 6.8857 4.6562 Q7.6357 4.6562 8.1982 4.9609 Q8.7607 5.2656 9.1279 5.8281 Q9.4951 6.3906 9.706 7.2109 Q9.9169 8.0312 9.9169 9.4062 Q9.9169 11.0469 9.581 12.0547 Q9.2451 13.0625 8.5732 13.6094 Q7.9013 14.1562 6.8857 14.1562 Q5.5419 14.1562 4.7607 13.1875 Q3.8544 12.0312 3.8544 9.4062 ZM5.0263 9.4062 Q5.0263 11.7031 5.5576 12.4609 Q6.0888 13.2188 6.8857 13.2188 Q7.6669 13.2188 8.206 12.4609 Q8.7451 11.7031 8.7451 9.4062 Q8.7451 7.1094 8.206 6.3594 Q7.6669 5.6094 6.8701 5.6094 Q6.0888 5.6094 5.6044 6.2656 Q5.0263 7.125 5.0263 9.4062 Z"
         id="path3487" />
    </g>
    <g
       transform="translate(362.3333,379.3333)"
       style="font-size:13.3333px; fill:rgb(38,38,38); text-rendering:geometricPrecision; image-rendering:optimizeQuality; color-rendering:optimizeQuality; font-family:'SansSerif'; stroke:rgb(38,38,38); color-interpolation:linearRGB;"
       id="g3493">
      <path
         style="stroke:none;"
         d="M-10.1562 14 L-11.2969 14 L-11.2969 6.7188 Q-11.7188 7.1094 -12.3828 7.5078 Q-13.0469 7.9062 -13.5781 8.0938 L-13.5781 6.9844 Q-12.625 6.5469 -11.9062 5.9062 Q-11.1875 5.2656 -10.8906 4.6562 L-10.1562 4.6562 L-10.1562 14 ZM-7.0493 9.4062 Q-7.0493 7.7656 -6.7134 6.7578 Q-6.3775 5.75 -5.7056 5.2031 Q-5.0337 4.6562 -4.0181 4.6562 Q-3.2681 4.6562 -2.7056 4.9609 Q-2.1431 5.2656 -1.7759 5.8281 Q-1.4087 6.3906 -1.1978 7.2109 Q-0.9868 8.0312 -0.9868 9.4062 Q-0.9868 11.0469 -1.3228 12.0547 Q-1.6587 13.0625 -2.3306 13.6094 Q-3.0025 14.1562 -4.0181 14.1562 Q-5.3618 14.1562 -6.1431 13.1875 Q-7.0493 12.0312 -7.0493 9.4062 ZM-5.8775 9.4062 Q-5.8775 11.7031 -5.3462 12.4609 Q-4.815 13.2188 -4.0181 13.2188 Q-3.2368 13.2188 -2.6978 12.4609 Q-2.1587 11.7031 -2.1587 9.4062 Q-2.1587 7.1094 -2.6978 6.3594 Q-3.2368 5.6094 -4.0337 5.6094 Q-4.815 5.6094 -5.2993 6.2656 Q-5.8775 7.125 -5.8775 9.4062 ZM0.3544 9.4062 Q0.3544 7.7656 0.6904 6.7578 Q1.0263 5.75 1.6982 5.2031 Q2.3701 4.6562 3.3857 4.6562 Q4.1357 4.6562 4.6982 4.9609 Q5.2607 5.2656 5.6279 5.8281 Q5.9951 6.3906 6.206 7.2109 Q6.4169 8.0312 6.4169 9.4062 Q6.4169 11.0469 6.081 12.0547 Q5.7451 13.0625 5.0732 13.6094 Q4.4013 14.1562 3.3857 14.1562 Q2.0419 14.1562 1.2607 13.1875 Q0.3544 12.0312 0.3544 9.4062 ZM1.5263 9.4062 Q1.5263 11.7031 2.0576 12.4609 Q2.5888 13.2188 3.3857 13.2188 Q4.1669 13.2188 4.706 12.4609 Q5.2451 11.7031 5.2451 9.4062 Q5.2451 7.1094 4.706 6.3594 Q4.1669 5.6094 3.3701 5.6094 Q2.5888 5.6094 2.1044 6.2656 Q1.5263 7.125 1.5263 9.4062 ZM7.7582 9.4062 Q7.7582 7.7656 8.0941 6.7578 Q8.4301 5.75 9.102 5.2031 Q9.7738 4.6562 10.7895 4.6562 Q11.5395 4.6562 12.102 4.9609 Q12.6645 5.2656 13.0316 5.8281 Q13.3988 6.3906 13.6098 7.2109 Q13.8207 8.0312 13.8207 9.4062 Q13.8207 11.0469 13.4848 12.0547 Q13.1488 13.0625 12.477 13.6094 Q11.8051 14.1562 10.7895 14.1562 Q9.4457 14.1562 8.6645 13.1875 Q7.7582 12.0312 7.7582 9.4062 ZM8.9301 9.4062 Q8.9301 11.7031 9.4613 12.4609 Q9.9926 13.2188 10.7895 13.2188 Q11.5707 13.2188 12.1098 12.4609 Q12.6488 11.7031 12.6488 9.4062 Q12.6488 7.1094 12.1098 6.3594 Q11.5707 5.6094 10.7738 5.6094 Q9.9926 5.6094 9.5082 6.2656 Q8.9301 7.125 8.9301 9.4062 Z"
         id="path3491" />
    </g>
    <g
       transform="translate(507,379.3333)"
       style="font-size:13.3333px; fill:rgb(38,38,38); text-rendering:geometricPrecision; image-rendering:optimizeQuality; color-rendering:optimizeQuality; font-family:'SansSerif'; stroke:rgb(38,38,38); color-interpolation:linearRGB;"
       id="g3497">
      <path
         style="stroke:none;"
         d="M-10.1562 14 L-11.2969 14 L-11.2969 6.7188 Q-11.7188 7.1094 -12.3828 7.5078 Q-13.0469 7.9062 -13.5781 8.0938 L-13.5781 6.9844 Q-12.625 6.5469 -11.9062 5.9062 Q-11.1875 5.2656 -10.8906 4.6562 L-10.1562 4.6562 L-10.1562 14 ZM-7.0493 11.5625 L-5.8618 11.4531 Q-5.7212 12.3438 -5.2368 12.7812 Q-4.7525 13.2188 -4.065 13.2188 Q-3.2368 13.2188 -2.6665 12.5938 Q-2.0962 11.9688 -2.0962 10.9531 Q-2.0962 9.9688 -2.6431 9.4062 Q-3.19 8.8438 -4.0806 8.8438 Q-4.6431 8.8438 -5.0884 9.0938 Q-5.5337 9.3438 -5.7837 9.7344 L-6.8462 9.5938 L-5.9556 4.8281 L-1.3306 4.8281 L-1.3306 5.9062 L-5.0337 5.9062 L-5.5337 8.4062 Q-4.7056 7.8281 -3.7837 7.8281 Q-2.565 7.8281 -1.729 8.6719 Q-0.8931 9.5156 -0.8931 10.8438 Q-0.8931 12.1094 -1.6275 13.0312 Q-2.5181 14.1562 -4.065 14.1562 Q-5.3306 14.1562 -6.1353 13.4453 Q-6.94 12.7344 -7.0493 11.5625 ZM0.3544 9.4062 Q0.3544 7.7656 0.6904 6.7578 Q1.0263 5.75 1.6982 5.2031 Q2.3701 4.6562 3.3857 4.6562 Q4.1357 4.6562 4.6982 4.9609 Q5.2607 5.2656 5.6279 5.8281 Q5.9951 6.3906 6.206 7.2109 Q6.4169 8.0312 6.4169 9.4062 Q6.4169 11.0469 6.081 12.0547 Q5.7451 13.0625 5.0732 13.6094 Q4.4013 14.1562 3.3857 14.1562 Q2.0419 14.1562 1.2607 13.1875 Q0.3544 12.0312 0.3544 9.4062 ZM1.5263 9.4062 Q1.5263 11.7031 2.0576 12.4609 Q2.5888 13.2188 3.3857 13.2188 Q4.1669 13.2188 4.706 12.4609 Q5.2451 11.7031 5.2451 9.4062 Q5.2451 7.1094 4.706 6.3594 Q4.1669 5.6094 3.3701 5.6094 Q2.5888 5.6094 2.1044 6.2656 Q1.5263 7.125 1.5263 9.4062 ZM7.7582 9.4062 Q7.7582 7.7656 8.0941 6.7578 Q8.4301 5.75 9.102 5.2031 Q9.7738 4.6562 10.7895 4.6562 Q11.5395 4.6562 12.102 4.9609 Q12.6645 5.2656 13.0316 5.8281 Q13.3988 6.3906 13.6098 7.2109 Q13.8207 8.0312 13.8207 9.4062 Q13.8207 11.0469 13.4848 12.0547 Q13.1488 13.0625 12.477 13.6094 Q11.8051 14.1562 10.7895 14.1562 Q9.4457 14.1562 8.6645 13.1875 Q7.7582 12.0312 7.7582 9.4062 ZM8.9301 9.4062 Q8.9301 11.7031 9.4613 12.4609 Q9.9926 13.2188 10.7895 13.2188 Q11.5707 13.2188 12.1098 12.4609 Q12.6488 11.7031 12.6488 9.4062 Q12.6488 7.1094 12.1098 6.3594 Q11.5707 5.6094 10.7738 5.6094 Q9.9926 5.6094 9.5082 6.2656 Q8.9301 7.125 8.9301 9.4062 Z"
         id="path3495" />
    </g>
    <g
       transform="translate(290.0002,397.6667)"
       style="font-size:16px; fill:rgb(38,38,38); text-rendering:geometricPrecision; image-rendering:optimizeQuality; color-rendering:optimizeQuality; font-family:'mwa_cmmi10'; stroke:rgb(38,38,38); color-interpolation:linearRGB;"
       id="g3521">
      <path
         style="stroke:none;"
         d="M-32.4907 16.3462 Q-32.4438 15.9868 -32.2876 15.9868 Q-31.7094 15.9868 -31.3735 15.8931 Q-31.0376 15.7993 -30.9438 15.4399 L-30.2563 12.7212 Q-31.1626 13.6274 -32.0844 13.6274 Q-33.0844 13.6274 -33.6626 12.8618 Q-34.2407 12.0962 -34.2407 11.0493 Q-34.2407 10.0337 -33.7094 8.9321 Q-33.1782 7.8306 -32.2798 7.0962 Q-31.3813 6.3618 -30.3344 6.3618 Q-29.8501 6.3618 -29.4594 6.6509 Q-29.0688 6.9399 -28.8657 7.4243 Q-28.7719 7.2368 -28.3423 6.7993 Q-27.9126 6.3618 -27.7407 6.3618 Q-27.5688 6.3618 -27.5688 6.5649 L-29.8032 15.5024 Q-29.8501 15.7368 -29.8501 15.7837 Q-29.8501 15.9868 -28.8032 15.9868 Q-28.7251 15.9868 -28.6782 16.0493 Q-28.6313 16.1118 -28.6313 16.1899 Q-28.6938 16.4087 -28.7251 16.479 Q-28.7563 16.5493 -28.9126 16.5493 L-32.3344 16.5493 Q-32.4907 16.5493 -32.4907 16.3462 ZM-32.0532 13.1899 Q-31.4907 13.1899 -30.9516 12.7681 Q-30.4126 12.3462 -30.0219 11.7524 L-29.1157 8.1587 Q-29.2094 7.5962 -29.5298 7.1899 Q-29.8501 6.7837 -30.3657 6.7837 Q-30.9126 6.7837 -31.3735 7.2212 Q-31.8344 7.6587 -32.1626 8.2681 Q-32.4751 8.9087 -32.7563 10.0259 Q-33.0376 11.1431 -33.0376 11.7524 Q-33.0376 12.3149 -32.8032 12.7524 Q-32.5688 13.1899 -32.0532 13.1899 Z"
         id="path3499" />
      <path
         style="stroke:none;"
         d="M-27.2231 14.9493 Q-27.2231 14.918 -27.2153 14.8555 Q-27.2075 14.793 -27.1997 14.7305 Q-27.1918 14.668 -27.1918 14.6368 L-25.8325 9.1837 Q-25.7856 8.9962 -25.77 8.8868 Q-25.77 8.7149 -26.4887 8.7149 Q-26.5981 8.7149 -26.5981 8.5743 Q-26.5825 8.543 -26.5668 8.4727 Q-26.5512 8.4024 -26.52 8.3634 Q-26.4887 8.3243 -26.4418 8.3243 L-24.9575 8.2149 Q-24.8168 8.2149 -24.8168 8.3399 L-26.4106 14.668 Q-26.4887 14.8555 -26.4887 15.1993 Q-26.4887 15.668 -26.1606 15.668 Q-25.8325 15.668 -25.6606 15.2462 Q-25.4887 14.8243 -25.3481 14.2305 Q-25.3325 14.1524 -25.27 14.1524 L-25.1293 14.1524 Q-25.0981 14.1524 -25.0668 14.1915 Q-25.0356 14.2305 -25.0356 14.2618 Q-25.1606 14.793 -25.2622 15.1055 Q-25.3637 15.418 -25.5981 15.6915 Q-25.8325 15.9649 -26.1918 15.9649 Q-26.6293 15.9649 -26.9262 15.6759 Q-27.2231 15.3868 -27.2231 14.9493 Z"
         id="path3501" />
      <path
         style="stroke:none;"
         d="M-21.9265 15.9649 Q-22.4577 15.9649 -22.864 15.7149 Q-23.2702 15.4649 -23.489 15.0509 Q-23.7077 14.6368 -23.7077 14.1055 Q-23.7077 13.3555 -23.2937 12.6212 Q-22.8796 11.8868 -22.1843 11.4337 Q-21.489 10.9805 -20.739 10.9805 Q-20.3327 10.9805 -20.0124 11.1212 Q-19.6921 11.2618 -19.4499 11.5118 Q-19.2077 11.7618 -19.0827 12.0977 Q-18.9577 12.4337 -18.9577 12.8399 Q-18.9577 13.418 -19.1999 13.9727 Q-19.4421 14.5274 -19.864 14.9805 Q-20.2859 15.4337 -20.8327 15.6993 Q-21.3796 15.9649 -21.9265 15.9649 ZM-21.9109 15.668 Q-21.4265 15.668 -21.0202 15.3399 Q-20.614 15.0118 -20.3484 14.504 Q-20.0827 13.9962 -19.9499 13.4337 Q-19.8171 12.8712 -19.8171 12.4024 Q-19.8171 11.9337 -20.0515 11.5977 Q-20.2859 11.2618 -20.7546 11.2618 Q-21.3952 11.2618 -21.8796 11.8165 Q-22.364 12.3712 -22.6062 13.1368 Q-22.8484 13.9024 -22.8484 14.5274 Q-22.8484 15.0118 -22.6062 15.3399 Q-22.364 15.668 -21.9109 15.668 Z"
         id="path3503" />
      <path
         style="stroke:none;"
         d="M-17.4195 14.5274 Q-17.4195 15.0118 -17.1773 15.3399 Q-16.9351 15.668 -16.482 15.668 Q-15.8257 15.668 -15.2242 15.3712 Q-14.6226 15.0743 -14.232 14.543 Q-14.2007 14.5118 -14.1539 14.5118 Q-14.0914 14.5118 -14.0367 14.5743 Q-13.982 14.6368 -13.982 14.6837 Q-13.982 14.7305 -14.0132 14.7462 Q-14.4039 15.3087 -15.0914 15.6368 Q-15.7789 15.9649 -16.4976 15.9649 Q-17.0289 15.9649 -17.4351 15.7149 Q-17.8414 15.4649 -18.0601 15.043 Q-18.2789 14.6212 -18.2789 14.1055 Q-18.2789 13.3555 -17.8648 12.629 Q-17.4507 11.9024 -16.7632 11.4415 Q-16.0757 10.9805 -15.3101 10.9805 Q-14.8257 10.9805 -14.4273 11.2149 Q-14.0289 11.4493 -14.0289 11.918 Q-14.0289 12.2305 -14.2085 12.4415 Q-14.3882 12.6524 -14.6695 12.6524 Q-14.857 12.6524 -14.9742 12.543 Q-15.0914 12.4337 -15.0914 12.2462 Q-15.0914 11.9962 -14.9039 11.8087 Q-14.7164 11.6212 -14.4664 11.6212 L-14.4507 11.6212 Q-14.5757 11.4337 -14.8179 11.3477 Q-15.0601 11.2618 -15.3257 11.2618 Q-15.9664 11.2618 -16.4507 11.8165 Q-16.9351 12.3712 -17.1773 13.1368 Q-17.4195 13.9024 -17.4195 14.5274 Z"
         id="path3505" />
      <path
         style="stroke:none;"
         d="M-11.9633 15.9649 Q-12.6508 15.9649 -13.0492 15.4415 Q-13.4476 14.918 -13.4476 14.1993 Q-13.4476 13.4962 -13.0804 12.7384 Q-12.7133 11.9805 -12.0961 11.4805 Q-11.4789 10.9805 -10.7601 10.9805 Q-10.432 10.9805 -10.1742 11.1602 Q-9.9164 11.3399 -9.7758 11.6368 Q-9.6508 11.1993 -9.2914 11.1993 Q-9.1508 11.1993 -9.057 11.2852 Q-8.9633 11.3712 -8.9633 11.5118 Q-8.9633 11.543 -8.9633 11.5587 Q-8.9633 11.5743 -8.9789 11.5899 L-9.7445 14.668 Q-9.8226 14.9962 -9.8226 15.1993 Q-9.8226 15.668 -9.5101 15.668 Q-9.1664 15.668 -8.9789 15.2305 Q-8.7914 14.793 -8.682 14.2305 Q-8.6508 14.1524 -8.5883 14.1524 L-8.4476 14.1524 Q-8.4164 14.1524 -8.3851 14.1915 Q-8.3539 14.2305 -8.3539 14.2618 Q-8.557 15.0274 -8.7836 15.4962 Q-9.0101 15.9649 -9.5258 15.9649 Q-9.9008 15.9649 -10.182 15.7462 Q-10.4633 15.5274 -10.5414 15.168 Q-11.2445 15.9649 -11.9633 15.9649 ZM-11.9476 15.668 Q-11.5414 15.668 -11.1742 15.3712 Q-10.807 15.0743 -10.5414 14.668 Q-10.5258 14.668 -10.5258 14.6368 L-9.932 12.2462 L-9.9164 12.2149 Q-9.9789 11.8243 -10.1976 11.543 Q-10.4164 11.2618 -10.7914 11.2618 Q-11.1664 11.2618 -11.4867 11.5665 Q-11.807 11.8712 -12.0258 12.2774 Q-12.2289 12.7305 -12.432 13.4962 Q-12.6351 14.2618 -12.6351 14.6837 Q-12.6351 15.0587 -12.4711 15.3634 Q-12.307 15.668 -11.9476 15.668 Z"
         id="path3507" />
      <path
         style="stroke:none;"
         d="M-7.4649 14.9493 Q-7.4649 14.918 -7.4571 14.8555 Q-7.4493 14.793 -7.4415 14.7305 Q-7.4337 14.668 -7.4337 14.6368 L-6.0743 9.1837 Q-6.0274 8.9962 -6.0118 8.8868 Q-6.0118 8.7149 -6.7306 8.7149 Q-6.8399 8.7149 -6.8399 8.5743 Q-6.8243 8.543 -6.8087 8.4727 Q-6.7931 8.4024 -6.7618 8.3634 Q-6.7306 8.3243 -6.6837 8.3243 L-5.1993 8.2149 Q-5.0587 8.2149 -5.0587 8.3399 L-6.6524 14.668 Q-6.7306 14.8555 -6.7306 15.1993 Q-6.7306 15.668 -6.4024 15.668 Q-6.0743 15.668 -5.9024 15.2462 Q-5.7306 14.8243 -5.5899 14.2305 Q-5.5743 14.1524 -5.5118 14.1524 L-5.3712 14.1524 Q-5.3399 14.1524 -5.3087 14.1915 Q-5.2774 14.2305 -5.2774 14.2618 Q-5.4024 14.793 -5.504 15.1055 Q-5.6056 15.418 -5.8399 15.6915 Q-6.0743 15.9649 -6.4337 15.9649 Q-6.8712 15.9649 -7.1681 15.6759 Q-7.4649 15.3868 -7.4649 14.9493 Z"
         id="path3509" />
      <path
         style="stroke:none;"
         d="M-1.6965 17.4399 L-1.6965 1.4399 L0.491 1.4399 L0.491 2.0806 L-1.0558 2.0806 L-1.0558 16.7993 L0.491 16.7993 L0.491 17.4399 L-1.6965 17.4399 Z"
         id="path3511" />
      <path
         style="stroke:none;"
         d="M2.0917 13.1587 Q2.0917 13.0649 2.1074 13.0181 L3.3105 8.2524 Q3.4199 7.7993 3.4199 7.4712 Q3.4199 6.7837 2.9511 6.7837 Q2.4511 6.7837 2.2089 7.3774 Q1.9667 7.9712 1.748 8.8931 Q1.748 8.9399 1.7011 8.9634 Q1.6542 8.9868 1.6074 8.9868 L1.4199 8.9868 Q1.373 8.9868 1.3339 8.9321 Q1.2949 8.8774 1.2949 8.8306 Q1.4667 8.1274 1.623 7.6431 Q1.7792 7.1587 2.123 6.7603 Q2.4667 6.3618 2.9667 6.3618 Q3.5761 6.3618 4.0371 6.7446 Q4.498 7.1274 4.498 7.7056 Q4.9667 7.0806 5.6074 6.7212 Q6.248 6.3618 6.9667 6.3618 Q7.7324 6.3618 8.2792 6.7524 Q8.8261 7.1431 8.8261 7.8462 Q9.3261 7.1587 9.9824 6.7603 Q10.6386 6.3618 11.4199 6.3618 Q12.248 6.3618 12.7558 6.8149 Q13.2636 7.2681 13.2636 8.0962 Q13.2636 8.7524 12.9667 9.6821 Q12.6699 10.6118 12.2324 11.7524 Q12.0136 12.3149 12.0136 12.7212 Q12.0136 13.1899 12.3886 13.1899 Q13.0136 13.1899 13.4277 12.5181 Q13.8417 11.8462 14.0136 11.0806 Q14.0605 10.9868 14.1386 10.9868 L14.3261 10.9868 Q14.3886 10.9868 14.4355 11.0337 Q14.4824 11.0806 14.4824 11.1274 Q14.4824 11.1431 14.4667 11.1743 Q14.248 12.0806 13.7011 12.854 Q13.1542 13.6274 12.3417 13.6274 Q11.7792 13.6274 11.3808 13.2368 Q10.9824 12.8462 10.9824 12.2837 Q10.9824 12.0024 11.123 11.6587 Q11.5761 10.4556 11.873 9.5103 Q12.1699 8.5649 12.1699 7.8462 Q12.1699 7.4087 11.9902 7.0962 Q11.8105 6.7837 11.3886 6.7837 Q10.5136 6.7837 9.873 7.3149 Q9.2324 7.8462 8.7636 8.7368 Q8.7324 8.8931 8.7167 8.9712 L7.6855 13.0806 Q7.6386 13.2993 7.4433 13.4634 Q7.248 13.6274 7.0136 13.6274 Q6.8261 13.6274 6.6855 13.4946 Q6.5449 13.3618 6.5449 13.1587 Q6.5449 13.0649 6.5605 13.0181 L7.5761 8.9399 Q7.748 8.2837 7.748 7.8462 Q7.748 7.4087 7.5605 7.0962 Q7.373 6.7837 6.9355 6.7837 Q6.3574 6.7837 5.8652 7.0415 Q5.373 7.2993 5.0058 7.7212 Q4.6386 8.1431 4.3261 8.7368 L3.248 13.0806 Q3.1855 13.2993 2.998 13.4634 Q2.8105 13.6274 2.5761 13.6274 Q2.373 13.6274 2.2324 13.4946 Q2.0917 13.3618 2.0917 13.1587 Z"
         id="path3513" />
      <path
         style="stroke:none;"
         d="M15.8118 17.1274 Q15.8118 17.0806 15.8275 17.0649 L21.39 1.6274 Q21.4212 1.5337 21.4993 1.4868 Q21.5775 1.4399 21.6712 1.4399 Q21.8118 1.4399 21.9056 1.5259 Q21.9993 1.6118 21.9993 1.7524 L21.9993 1.8149 L16.4368 17.2524 Q16.3431 17.4399 16.1243 17.4399 Q15.9993 17.4399 15.9056 17.3462 Q15.8118 17.2524 15.8118 17.1274 Z"
         id="path3515" />
      <path
         style="stroke:none;"
         d="M24.2962 12.4556 Q24.7337 13.1899 26.0306 13.1899 Q26.5931 13.1899 27.1009 13.0024 Q27.6087 12.8149 27.9369 12.4321 Q28.265 12.0493 28.265 11.5024 Q28.265 11.0806 27.9681 10.8149 Q27.6712 10.5493 27.2494 10.4556 L26.3744 10.2837 Q25.7806 10.1431 25.3978 9.7368 Q25.015 9.3306 25.015 8.7524 Q25.015 8.0337 25.4056 7.4868 Q25.7962 6.9399 26.4291 6.6509 Q27.0619 6.3618 27.7337 6.3618 Q28.4681 6.3618 29.0384 6.7134 Q29.6087 7.0649 29.6087 7.7368 Q29.6087 8.1118 29.4056 8.3931 Q29.2025 8.6743 28.8275 8.6743 Q28.6244 8.6743 28.4681 8.5337 Q28.3119 8.3931 28.3119 8.1899 Q28.3119 8.0024 28.4212 7.8228 Q28.5306 7.6431 28.7025 7.5415 Q28.8744 7.4399 29.0619 7.4399 Q28.9212 7.0962 28.5384 6.9399 Q28.1556 6.7837 27.7025 6.7837 Q27.2962 6.7837 26.89 6.9478 Q26.4837 7.1118 26.2416 7.4243 Q25.9994 7.7368 25.9994 8.1743 Q25.9994 8.4556 26.2025 8.6743 Q26.4056 8.8931 26.7025 8.9868 L27.6244 9.1743 Q28.0775 9.2681 28.4447 9.5103 Q28.8119 9.7524 29.0306 10.1118 Q29.2494 10.4712 29.2494 10.9399 Q29.2494 11.5337 28.9134 12.1118 Q28.5775 12.6899 28.0931 13.0337 Q27.2494 13.6274 26.015 13.6274 Q25.1556 13.6274 24.4447 13.229 Q23.7337 12.8306 23.7337 12.0649 Q23.7337 11.6274 23.9916 11.2993 Q24.2494 10.9712 24.6869 10.9712 Q24.9369 10.9712 25.1166 11.1274 Q25.2962 11.2837 25.2962 11.5493 Q25.2962 11.9087 25.0228 12.1821 Q24.7494 12.4556 24.3744 12.4556 L24.2962 12.4556 Z"
         id="path3517" />
      <path
         style="stroke:none;"
         d="M30.765 17.4399 L30.765 16.7993 L32.3119 16.7993 L32.3119 2.0806 L30.765 2.0806 L30.765 1.4399 L32.9525 1.4399 L32.9525 17.4399 L30.765 17.4399 Z"
         id="path3519" />
    </g>
    <g
       style="fill:rgb(38,38,38); text-rendering:geometricPrecision; image-rendering:optimizeQuality; color-rendering:optimizeQuality; stroke-linejoin:round; stroke:rgb(38,38,38); color-interpolation:linearRGB; stroke-width:0.6667;"
       id="g3571">
      <line
         y2="31"
         style="fill:none;"
         x1="73"
         x2="73"
         y1="374"
         id="line3523" />
      <line
         y2="31"
         style="fill:none;"
         x1="507"
         x2="507"
         y1="374"
         id="line3525" />
      <line
         y2="374"
         style="fill:none;"
         x1="73"
         x2="77.34"
         y1="374"
         id="line3527" />
      <line
         y2="339.7"
         style="fill:none;"
         x1="73"
         x2="77.34"
         y1="339.7"
         id="line3529" />
      <line
         y2="305.4"
         style="fill:none;"
         x1="73"
         x2="77.34"
         y1="305.4"
         id="line3531" />
      <line
         y2="271.1"
         style="fill:none;"
         x1="73"
         x2="77.34"
         y1="271.1"
         id="line3533" />
      <line
         y2="236.8"
         style="fill:none;"
         x1="73"
         x2="77.34"
         y1="236.8"
         id="line3535" />
      <line
         y2="202.5"
         style="fill:none;"
         x1="73"
         x2="77.34"
         y1="202.5"
         id="line3537" />
      <line
         y2="168.2"
         style="fill:none;"
         x1="73"
         x2="77.34"
         y1="168.2"
         id="line3539" />
      <line
         y2="133.9"
         style="fill:none;"
         x1="73"
         x2="77.34"
         y1="133.9"
         id="line3541" />
      <line
         y2="99.6"
         style="fill:none;"
         x1="73"
         x2="77.34"
         y1="99.6"
         id="line3543" />
      <line
         y2="65.3"
         style="fill:none;"
         x1="73"
         x2="77.34"
         y1="65.3"
         id="line3545" />
      <line
         y2="31"
         style="fill:none;"
         x1="73"
         x2="77.34"
         y1="31"
         id="line3547" />
      <line
         y2="374"
         style="fill:none;"
         x1="507"
         x2="502.66"
         y1="374"
         id="line3549" />
      <line
         y2="339.7"
         style="fill:none;"
         x1="507"
         x2="502.66"
         y1="339.7"
         id="line3551" />
      <line
         y2="305.4"
         style="fill:none;"
         x1="507"
         x2="502.66"
         y1="305.4"
         id="line3553" />
      <line
         y2="271.1"
         style="fill:none;"
         x1="507"
         x2="502.66"
         y1="271.1"
         id="line3555" />
      <line
         y2="236.8"
         style="fill:none;"
         x1="507"
         x2="502.66"
         y1="236.8"
         id="line3557" />
      <line
         y2="202.5"
         style="fill:none;"
         x1="507"
         x2="502.66"
         y1="202.5"
         id="line3559" />
      <line
         y2="168.2"
         style="fill:none;"
         x1="507"
         x2="502.66"
         y1="168.2"
         id="line3561" />
      <line
         y2="133.9"
         style="fill:none;"
         x1="507"
         x2="502.66"
         y1="133.9"
         id="line3563" />
      <line
         y2="99.6"
         style="fill:none;"
         x1="507"
         x2="502.66"
         y1="99.6"
         id="line3565" />
      <line
         y2="65.3"
         style="fill:none;"
         x1="507"
         x2="502.66"
         y1="65.3"
         id="line3567" />
      <line
         y2="31"
         style="fill:none;"
         x1="507"
         x2="502.66"
         y1="31"
         id="line3569" />
    </g>
    <g
       transform="translate(67.6667,374)"
       style="font-size:13.3333px; fill:rgb(38,38,38); text-rendering:geometricPrecision; image-rendering:optimizeQuality; color-rendering:optimizeQuality; font-family:'SansSerif'; stroke:rgb(38,38,38); color-interpolation:linearRGB;"
       id="g3575">
      <path
         style="stroke:none;"
         d="M-22.5938 2.7031 L-22.5938 1.5625 L-19.0781 1.5625 L-19.0781 2.7031 L-22.5938 2.7031 ZM-18.02 3.0469 L-16.8793 2.8906 Q-16.6762 3.8594 -16.2075 4.2891 Q-15.7387 4.7188 -15.0512 4.7188 Q-14.2543 4.7188 -13.6996 4.1641 Q-13.145 3.6094 -13.145 2.7812 Q-13.145 1.9844 -13.6528 1.4766 Q-14.1606 0.9688 -14.9575 0.9688 Q-15.2856 0.9688 -15.77 1.0938 L-15.645 0.0938 Q-15.52 0.1094 -15.4575 0.1094 Q-14.7231 0.1094 -14.1371 -0.2734 Q-13.5512 -0.6562 -13.5512 -1.4531 Q-13.5512 -2.0781 -13.9809 -2.4922 Q-14.4106 -2.9062 -15.0825 -2.9062 Q-15.7543 -2.9062 -16.1918 -2.4844 Q-16.6293 -2.0625 -16.77 -1.2344 L-17.9106 -1.4375 Q-17.6918 -2.5781 -16.9496 -3.2109 Q-16.2075 -3.8438 -15.1137 -3.8438 Q-14.3481 -3.8438 -13.7075 -3.5156 Q-13.0668 -3.1875 -12.7231 -2.625 Q-12.3793 -2.0625 -12.3793 -1.4219 Q-12.3793 -0.8281 -12.7075 -0.3281 Q-13.0356 0.1719 -13.6606 0.4531 Q-12.8481 0.6562 -12.3871 1.25 Q-11.9262 1.8438 -11.9262 2.75 Q-11.9262 3.9688 -12.8168 4.8203 Q-13.7075 5.6719 -15.0668 5.6719 Q-16.2856 5.6719 -17.0981 4.9375 Q-17.9106 4.2031 -18.02 3.0469 ZM-9.9756 5.5 L-9.9756 4.2031 L-8.6787 4.2031 L-8.6787 5.5 L-9.9756 5.5 ZM-6.9175 3.0625 L-5.73 2.9531 Q-5.5894 3.8438 -5.105 4.2812 Q-4.6207 4.7188 -3.9332 4.7188 Q-3.105 4.7188 -2.5347 4.0938 Q-1.9644 3.4688 -1.9644 2.4531 Q-1.9644 1.4688 -2.5113 0.9062 Q-3.0582 0.3438 -3.9488 0.3438 Q-4.5113 0.3438 -4.9566 0.5938 Q-5.4019 0.8438 -5.6519 1.2344 L-6.7144 1.0938 L-5.8238 -3.6719 L-1.1988 -3.6719 L-1.1988 -2.5938 L-4.9019 -2.5938 L-5.4019 -0.0938 Q-4.5738 -0.6719 -3.6519 -0.6719 Q-2.4332 -0.6719 -1.5972 0.1719 Q-0.7613 1.0156 -0.7613 2.3438 Q-0.7613 3.6094 -1.4957 4.5312 Q-2.3863 5.6562 -3.9332 5.6562 Q-5.1988 5.6562 -6.0035 4.9453 Q-6.8082 4.2344 -6.9175 3.0625 Z"
         id="path3573" />
    </g>
    <g
       transform="translate(67.6667,339.7)"
       style="font-size:13.3333px; fill:rgb(38,38,38); text-rendering:geometricPrecision; image-rendering:optimizeQuality; color-rendering:optimizeQuality; font-family:'SansSerif'; stroke:rgb(38,38,38); color-interpolation:linearRGB;"
       id="g3579">
      <path
         style="stroke:none;"
         d="M-11.5938 2.7031 L-11.5938 1.5625 L-8.0781 1.5625 L-8.0781 2.7031 L-11.5938 2.7031 ZM-7.02 3.0469 L-5.8793 2.8906 Q-5.6762 3.8594 -5.2075 4.2891 Q-4.7387 4.7188 -4.0512 4.7188 Q-3.2543 4.7188 -2.6996 4.1641 Q-2.145 3.6094 -2.145 2.7812 Q-2.145 1.9844 -2.6528 1.4766 Q-3.1606 0.9688 -3.9575 0.9688 Q-4.2856 0.9688 -4.77 1.0938 L-4.645 0.0938 Q-4.52 0.1094 -4.4575 0.1094 Q-3.7231 0.1094 -3.1371 -0.2734 Q-2.5512 -0.6562 -2.5512 -1.4531 Q-2.5512 -2.0781 -2.9809 -2.4922 Q-3.4106 -2.9062 -4.0825 -2.9062 Q-4.7543 -2.9062 -5.1918 -2.4844 Q-5.6293 -2.0625 -5.77 -1.2344 L-6.9106 -1.4375 Q-6.6918 -2.5781 -5.9496 -3.2109 Q-5.2075 -3.8438 -4.1137 -3.8438 Q-3.3481 -3.8438 -2.7075 -3.5156 Q-2.0668 -3.1875 -1.7231 -2.625 Q-1.3793 -2.0625 -1.3793 -1.4219 Q-1.3793 -0.8281 -1.7075 -0.3281 Q-2.0356 0.1719 -2.6606 0.4531 Q-1.8481 0.6562 -1.3871 1.25 Q-0.9262 1.8438 -0.9262 2.75 Q-0.9262 3.9688 -1.8168 4.8203 Q-2.7075 5.6719 -4.0668 5.6719 Q-5.2856 5.6719 -6.0981 4.9375 Q-6.9106 4.2031 -7.02 3.0469 Z"
         id="path3577" />
    </g>
    <g
       transform="translate(67.6667,305.4)"
       style="font-size:13.3333px; fill:rgb(38,38,38); text-rendering:geometricPrecision; image-rendering:optimizeQuality; color-rendering:optimizeQuality; font-family:'SansSerif'; stroke:rgb(38,38,38); color-interpolation:linearRGB;"
       id="g3583">
      <path
         style="stroke:none;"
         d="M-22.5938 2.7031 L-22.5938 1.5625 L-19.0781 1.5625 L-19.0781 2.7031 L-22.5938 2.7031 ZM-12.02 4.4062 L-12.02 5.5 L-18.1762 5.5 Q-18.1918 5.0938 -18.0356 4.7031 Q-17.8012 4.0781 -17.2856 3.4688 Q-16.77 2.8594 -15.7856 2.0625 Q-14.27 0.8125 -13.7387 0.0859 Q-13.2075 -0.6406 -13.2075 -1.2812 Q-13.2075 -1.9688 -13.6918 -2.4297 Q-14.1762 -2.8906 -14.9575 -2.8906 Q-15.7856 -2.8906 -16.2778 -2.3984 Q-16.77 -1.9062 -16.7856 -1.0312 L-17.9575 -1.1562 Q-17.8325 -2.4688 -17.0512 -3.1562 Q-16.27 -3.8438 -14.9418 -3.8438 Q-13.5981 -3.8438 -12.8168 -3.1016 Q-12.0356 -2.3594 -12.0356 -1.2656 Q-12.0356 -0.7031 -12.2621 -0.1641 Q-12.4887 0.375 -13.02 0.9766 Q-13.5512 1.5781 -14.7856 2.6094 Q-15.8168 3.4688 -16.1059 3.7812 Q-16.395 4.0938 -16.5825 4.4062 L-12.02 4.4062 ZM-9.9756 5.5 L-9.9756 4.2031 L-8.6787 4.2031 L-8.6787 5.5 L-9.9756 5.5 ZM-6.9175 3.0625 L-5.73 2.9531 Q-5.5894 3.8438 -5.105 4.2812 Q-4.6207 4.7188 -3.9332 4.7188 Q-3.105 4.7188 -2.5347 4.0938 Q-1.9644 3.4688 -1.9644 2.4531 Q-1.9644 1.4688 -2.5113 0.9062 Q-3.0582 0.3438 -3.9488 0.3438 Q-4.5113 0.3438 -4.9566 0.5938 Q-5.4019 0.8438 -5.6519 1.2344 L-6.7144 1.0938 L-5.8238 -3.6719 L-1.1988 -3.6719 L-1.1988 -2.5938 L-4.9019 -2.5938 L-5.4019 -0.0938 Q-4.5738 -0.6719 -3.6519 -0.6719 Q-2.4332 -0.6719 -1.5972 0.1719 Q-0.7613 1.0156 -0.7613 2.3438 Q-0.7613 3.6094 -1.4957 4.5312 Q-2.3863 5.6562 -3.9332 5.6562 Q-5.1988 5.6562 -6.0035 4.9453 Q-6.8082 4.2344 -6.9175 3.0625 Z"
         id="path3581" />
    </g>
    <g
       transform="translate(67.6667,271.1)"
       style="font-size:13.3333px; fill:rgb(38,38,38); text-rendering:geometricPrecision; image-rendering:optimizeQuality; color-rendering:optimizeQuality; font-family:'SansSerif'; stroke:rgb(38,38,38); color-interpolation:linearRGB;"
       id="g3587">
      <path
         style="stroke:none;"
         d="M-11.5938 2.7031 L-11.5938 1.5625 L-8.0781 1.5625 L-8.0781 2.7031 L-11.5938 2.7031 ZM-1.02 4.4062 L-1.02 5.5 L-7.1762 5.5 Q-7.1918 5.0938 -7.0356 4.7031 Q-6.8012 4.0781 -6.2856 3.4688 Q-5.77 2.8594 -4.7856 2.0625 Q-3.27 0.8125 -2.7387 0.0859 Q-2.2075 -0.6406 -2.2075 -1.2812 Q-2.2075 -1.9688 -2.6918 -2.4297 Q-3.1762 -2.8906 -3.9575 -2.8906 Q-4.7856 -2.8906 -5.2778 -2.3984 Q-5.77 -1.9062 -5.7856 -1.0312 L-6.9575 -1.1562 Q-6.8325 -2.4688 -6.0512 -3.1562 Q-5.27 -3.8438 -3.9418 -3.8438 Q-2.5981 -3.8438 -1.8168 -3.1016 Q-1.0356 -2.3594 -1.0356 -1.2656 Q-1.0356 -0.7031 -1.2621 -0.1641 Q-1.4887 0.375 -2.02 0.9766 Q-2.5512 1.5781 -3.7856 2.6094 Q-4.8168 3.4688 -5.1059 3.7812 Q-5.395 4.0938 -5.5825 4.4062 L-1.02 4.4062 Z"
         id="path3585" />
    </g>
    <g
       transform="translate(67.6667,236.8)"
       style="font-size:13.3333px; fill:rgb(38,38,38); text-rendering:geometricPrecision; image-rendering:optimizeQuality; color-rendering:optimizeQuality; font-family:'SansSerif'; stroke:rgb(38,38,38); color-interpolation:linearRGB;"
       id="g3591">
      <path
         style="stroke:none;"
         d="M-22.5938 2.7031 L-22.5938 1.5625 L-19.0781 1.5625 L-19.0781 2.7031 L-22.5938 2.7031 ZM-13.7231 5.5 L-14.8637 5.5 L-14.8637 -1.7812 Q-15.2856 -1.3906 -15.9496 -0.9922 Q-16.6137 -0.5938 -17.145 -0.4062 L-17.145 -1.5156 Q-16.1918 -1.9531 -15.4731 -2.5938 Q-14.7543 -3.2344 -14.4575 -3.8438 L-13.7231 -3.8438 L-13.7231 5.5 ZM-9.9756 5.5 L-9.9756 4.2031 L-8.6787 4.2031 L-8.6787 5.5 L-9.9756 5.5 ZM-6.9175 3.0625 L-5.73 2.9531 Q-5.5894 3.8438 -5.105 4.2812 Q-4.6207 4.7188 -3.9332 4.7188 Q-3.105 4.7188 -2.5347 4.0938 Q-1.9644 3.4688 -1.9644 2.4531 Q-1.9644 1.4688 -2.5113 0.9062 Q-3.0582 0.3438 -3.9488 0.3438 Q-4.5113 0.3438 -4.9566 0.5938 Q-5.4019 0.8438 -5.6519 1.2344 L-6.7144 1.0938 L-5.8238 -3.6719 L-1.1988 -3.6719 L-1.1988 -2.5938 L-4.9019 -2.5938 L-5.4019 -0.0938 Q-4.5738 -0.6719 -3.6519 -0.6719 Q-2.4332 -0.6719 -1.5972 0.1719 Q-0.7613 1.0156 -0.7613 2.3438 Q-0.7613 3.6094 -1.4957 4.5312 Q-2.3863 5.6562 -3.9332 5.6562 Q-5.1988 5.6562 -6.0035 4.9453 Q-6.8082 4.2344 -6.9175 3.0625 Z"
         id="path3589" />
    </g>
    <g
       transform="translate(67.6667,202.5)"
       style="font-size:13.3333px; fill:rgb(38,38,38); text-rendering:geometricPrecision; image-rendering:optimizeQuality; color-rendering:optimizeQuality; font-family:'SansSerif'; stroke:rgb(38,38,38); color-interpolation:linearRGB;"
       id="g3595">
      <path
         style="stroke:none;"
         d="M-11.5938 2.7031 L-11.5938 1.5625 L-8.0781 1.5625 L-8.0781 2.7031 L-11.5938 2.7031 ZM-2.7231 5.5 L-3.8637 5.5 L-3.8637 -1.7812 Q-4.2856 -1.3906 -4.9496 -0.9922 Q-5.6137 -0.5938 -6.145 -0.4062 L-6.145 -1.5156 Q-5.1918 -1.9531 -4.4731 -2.5938 Q-3.7543 -3.2344 -3.4575 -3.8438 L-2.7231 -3.8438 L-2.7231 5.5 Z"
         id="path3593" />
    </g>
    <g
       transform="translate(67.6667,168.2)"
       style="font-size:13.3333px; fill:rgb(38,38,38); text-rendering:geometricPrecision; image-rendering:optimizeQuality; color-rendering:optimizeQuality; font-family:'SansSerif'; stroke:rgb(38,38,38); color-interpolation:linearRGB;"
       id="g3599">
      <path
         style="stroke:none;"
         d="M-22.5938 2.7031 L-22.5938 1.5625 L-19.0781 1.5625 L-19.0781 2.7031 L-22.5938 2.7031 ZM-18.02 0.9062 Q-18.02 -0.7344 -17.684 -1.7422 Q-17.3481 -2.75 -16.6762 -3.2969 Q-16.0043 -3.8438 -14.9887 -3.8438 Q-14.2387 -3.8438 -13.6762 -3.5391 Q-13.1137 -3.2344 -12.7465 -2.6719 Q-12.3793 -2.1094 -12.1684 -1.2891 Q-11.9575 -0.4688 -11.9575 0.9062 Q-11.9575 2.5469 -12.2934 3.5547 Q-12.6293 4.5625 -13.3012 5.1094 Q-13.9731 5.6562 -14.9887 5.6562 Q-16.3325 5.6562 -17.1137 4.6875 Q-18.02 3.5312 -18.02 0.9062 ZM-16.8481 0.9062 Q-16.8481 3.2031 -16.3168 3.9609 Q-15.7856 4.7188 -14.9887 4.7188 Q-14.2075 4.7188 -13.6684 3.9609 Q-13.1293 3.2031 -13.1293 0.9062 Q-13.1293 -1.3906 -13.6684 -2.1406 Q-14.2075 -2.8906 -15.0043 -2.8906 Q-15.7856 -2.8906 -16.27 -2.2344 Q-16.8481 -1.375 -16.8481 0.9062 ZM-9.9756 5.5 L-9.9756 4.2031 L-8.6787 4.2031 L-8.6787 5.5 L-9.9756 5.5 ZM-6.9175 3.0625 L-5.73 2.9531 Q-5.5894 3.8438 -5.105 4.2812 Q-4.6207 4.7188 -3.9332 4.7188 Q-3.105 4.7188 -2.5347 4.0938 Q-1.9644 3.4688 -1.9644 2.4531 Q-1.9644 1.4688 -2.5113 0.9062 Q-3.0582 0.3438 -3.9488 0.3438 Q-4.5113 0.3438 -4.9566 0.5938 Q-5.4019 0.8438 -5.6519 1.2344 L-6.7144 1.0938 L-5.8238 -3.6719 L-1.1988 -3.6719 L-1.1988 -2.5938 L-4.9019 -2.5938 L-5.4019 -0.0938 Q-4.5738 -0.6719 -3.6519 -0.6719 Q-2.4332 -0.6719 -1.5972 0.1719 Q-0.7613 1.0156 -0.7613 2.3438 Q-0.7613 3.6094 -1.4957 4.5312 Q-2.3863 5.6562 -3.9332 5.6562 Q-5.1988 5.6562 -6.0035 4.9453 Q-6.8082 4.2344 -6.9175 3.0625 Z"
         id="path3597" />
    </g>
    <g
       transform="translate(67.6667,133.9)"
       style="font-size:13.3333px; fill:rgb(38,38,38); text-rendering:geometricPrecision; image-rendering:optimizeQuality; color-rendering:optimizeQuality; font-family:'SansSerif'; stroke:rgb(38,38,38); color-interpolation:linearRGB;"
       id="g3603">
      <path
         style="stroke:none;"
         d="M-7.4531 0.9062 Q-7.4531 -0.7344 -7.1172 -1.7422 Q-6.7812 -2.75 -6.1094 -3.2969 Q-5.4375 -3.8438 -4.4219 -3.8438 Q-3.6719 -3.8438 -3.1094 -3.5391 Q-2.5469 -3.2344 -2.1797 -2.6719 Q-1.8125 -2.1094 -1.6016 -1.2891 Q-1.3906 -0.4688 -1.3906 0.9062 Q-1.3906 2.5469 -1.7266 3.5547 Q-2.0625 4.5625 -2.7344 5.1094 Q-3.4062 5.6562 -4.4219 5.6562 Q-5.7656 5.6562 -6.5469 4.6875 Q-7.4531 3.5312 -7.4531 0.9062 ZM-6.2812 0.9062 Q-6.2812 3.2031 -5.75 3.9609 Q-5.2188 4.7188 -4.4219 4.7188 Q-3.6406 4.7188 -3.1016 3.9609 Q-2.5625 3.2031 -2.5625 0.9062 Q-2.5625 -1.3906 -3.1016 -2.1406 Q-3.6406 -2.8906 -4.4375 -2.8906 Q-5.2188 -2.8906 -5.7031 -2.2344 Q-6.2812 -1.375 -6.2812 0.9062 Z"
         id="path3601" />
    </g>
    <g
       transform="translate(67.6667,99.6)"
       style="font-size:13.3333px; fill:rgb(38,38,38); text-rendering:geometricPrecision; image-rendering:optimizeQuality; color-rendering:optimizeQuality; font-family:'SansSerif'; stroke:rgb(38,38,38); color-interpolation:linearRGB;"
       id="g3607">
      <path
         style="stroke:none;"
         d="M-18.4531 0.9062 Q-18.4531 -0.7344 -18.1172 -1.7422 Q-17.7812 -2.75 -17.1094 -3.2969 Q-16.4375 -3.8438 -15.4219 -3.8438 Q-14.6719 -3.8438 -14.1094 -3.5391 Q-13.5469 -3.2344 -13.1797 -2.6719 Q-12.8125 -2.1094 -12.6016 -1.2891 Q-12.3906 -0.4688 -12.3906 0.9062 Q-12.3906 2.5469 -12.7266 3.5547 Q-13.0625 4.5625 -13.7344 5.1094 Q-14.4062 5.6562 -15.4219 5.6562 Q-16.7656 5.6562 -17.5469 4.6875 Q-18.4531 3.5312 -18.4531 0.9062 ZM-17.2812 0.9062 Q-17.2812 3.2031 -16.75 3.9609 Q-16.2188 4.7188 -15.4219 4.7188 Q-14.6406 4.7188 -14.1016 3.9609 Q-13.5625 3.2031 -13.5625 0.9062 Q-13.5625 -1.3906 -14.1016 -2.1406 Q-14.6406 -2.8906 -15.4375 -2.8906 Q-16.2188 -2.8906 -16.7031 -2.2344 Q-17.2812 -1.375 -17.2812 0.9062 ZM-10.4087 5.5 L-10.4087 4.2031 L-9.1118 4.2031 L-9.1118 5.5 L-10.4087 5.5 ZM-7.3507 3.0625 L-6.1632 2.9531 Q-6.0226 3.8438 -5.5382 4.2812 Q-5.0538 4.7188 -4.3663 4.7188 Q-3.5382 4.7188 -2.9679 4.0938 Q-2.3976 3.4688 -2.3976 2.4531 Q-2.3976 1.4688 -2.9445 0.9062 Q-3.4913 0.3438 -4.382 0.3438 Q-4.9445 0.3438 -5.3898 0.5938 Q-5.8351 0.8438 -6.0851 1.2344 L-7.1476 1.0938 L-6.257 -3.6719 L-1.632 -3.6719 L-1.632 -2.5938 L-5.3351 -2.5938 L-5.8351 -0.0938 Q-5.007 -0.6719 -4.0851 -0.6719 Q-2.8663 -0.6719 -2.0304 0.1719 Q-1.1945 1.0156 -1.1945 2.3438 Q-1.1945 3.6094 -1.9288 4.5312 Q-2.8195 5.6562 -4.3663 5.6562 Q-5.632 5.6562 -6.4366 4.9453 Q-7.2413 4.2344 -7.3507 3.0625 Z"
         id="path3605" />
    </g>
    <g
       transform="translate(67.6667,65.3)"
       style="font-size:13.3333px; fill:rgb(38,38,38); text-rendering:geometricPrecision; image-rendering:optimizeQuality; color-rendering:optimizeQuality; font-family:'SansSerif'; stroke:rgb(38,38,38); color-interpolation:linearRGB;"
       id="g3611">
      <path
         style="stroke:none;"
         d="M-3.1562 5.5 L-4.2969 5.5 L-4.2969 -1.7812 Q-4.7188 -1.3906 -5.3828 -0.9922 Q-6.0469 -0.5938 -6.5781 -0.4062 L-6.5781 -1.5156 Q-5.625 -1.9531 -4.9062 -2.5938 Q-4.1875 -3.2344 -3.8906 -3.8438 L-3.1562 -3.8438 L-3.1562 5.5 Z"
         id="path3609" />
    </g>
    <g
       transform="translate(67.6667,31)"
       style="font-size:13.3333px; fill:rgb(38,38,38); text-rendering:geometricPrecision; image-rendering:optimizeQuality; color-rendering:optimizeQuality; font-family:'SansSerif'; stroke:rgb(38,38,38); color-interpolation:linearRGB;"
       id="g3615">
      <path
         style="stroke:none;"
         d="M-14.1562 5.5 L-15.2969 5.5 L-15.2969 -1.7812 Q-15.7188 -1.3906 -16.3828 -0.9922 Q-17.0469 -0.5938 -17.5781 -0.4062 L-17.5781 -1.5156 Q-16.625 -1.9531 -15.9062 -2.5938 Q-15.1875 -3.2344 -14.8906 -3.8438 L-14.1562 -3.8438 L-14.1562 5.5 ZM-10.4087 5.5 L-10.4087 4.2031 L-9.1118 4.2031 L-9.1118 5.5 L-10.4087 5.5 ZM-7.3507 3.0625 L-6.1632 2.9531 Q-6.0226 3.8438 -5.5382 4.2812 Q-5.0538 4.7188 -4.3663 4.7188 Q-3.5382 4.7188 -2.9679 4.0938 Q-2.3976 3.4688 -2.3976 2.4531 Q-2.3976 1.4688 -2.9445 0.9062 Q-3.4913 0.3438 -4.382 0.3438 Q-4.9445 0.3438 -5.3898 0.5938 Q-5.8351 0.8438 -6.0851 1.2344 L-7.1476 1.0938 L-6.257 -3.6719 L-1.632 -3.6719 L-1.632 -2.5938 L-5.3351 -2.5938 L-5.8351 -0.0938 Q-5.007 -0.6719 -4.0851 -0.6719 Q-2.8663 -0.6719 -2.0304 0.1719 Q-1.1945 1.0156 -1.1945 2.3438 Q-1.1945 3.6094 -1.9288 4.5312 Q-2.8195 5.6562 -4.3663 5.6562 Q-5.632 5.6562 -6.4366 4.9453 Q-7.2413 4.2344 -7.3507 3.0625 Z"
         id="path3613" />
    </g>
    <g
       transform="translate(40.6667,202.4998) rotate(-90)"
       style="font-size:21.3333px; fill:rgb(38,38,38); text-rendering:geometricPrecision; image-rendering:optimizeQuality; color-rendering:optimizeQuality; font-family:'mwa_cmmi10'; stroke:rgb(38,38,38); color-interpolation:linearRGB;"
       id="g3645">
      <path
         style="stroke:none;"
         d="M-52.2204 -7.4457 Q-53.5485 -7.4457 -54.3141 -8.4457 Q-55.0798 -9.4457 -55.0798 -10.8051 Q-55.0798 -12.1488 -54.3844 -13.5941 Q-53.6891 -15.0395 -52.5016 -16.0004 Q-51.3141 -16.9613 -49.9548 -16.9613 Q-49.3298 -16.9613 -48.8376 -16.6254 Q-48.3454 -16.2895 -48.0641 -15.6957 Q-47.8298 -16.5395 -47.1423 -16.5395 Q-46.8766 -16.5395 -46.6969 -16.3832 Q-46.5173 -16.227 -46.5173 -15.9613 Q-46.5173 -15.8988 -46.5173 -15.8676 Q-46.5173 -15.8363 -46.5329 -15.7895 L-48.0016 -9.9301 Q-48.1423 -9.3051 -48.1423 -8.8988 Q-48.1423 -7.9926 -47.5329 -7.9926 Q-46.8766 -7.9926 -46.5329 -8.8285 Q-46.1891 -9.6645 -45.9548 -10.7738 Q-45.9235 -10.8832 -45.7985 -10.8832 L-45.5329 -10.8832 Q-45.4548 -10.8832 -45.4079 -10.8129 Q-45.361 -10.7426 -45.361 -10.6801 Q-45.7204 -9.2113 -46.1579 -8.3285 Q-46.5954 -7.4457 -47.5798 -7.4457 Q-48.2829 -7.4457 -48.8298 -7.8598 Q-49.3766 -8.2738 -49.5016 -8.9613 Q-50.861 -7.4457 -52.2204 -7.4457 ZM-52.2048 -7.9926 Q-51.4391 -7.9926 -50.7282 -8.5629 Q-50.0173 -9.1332 -49.5016 -9.8988 Q-49.486 -9.9301 -49.486 -9.9613 L-48.361 -14.5238 L-48.3454 -14.5863 Q-48.4704 -15.3363 -48.8844 -15.8754 Q-49.2985 -16.4145 -50.0016 -16.4145 Q-50.7048 -16.4145 -51.3141 -15.8363 Q-51.9235 -15.2582 -52.3454 -14.4613 Q-52.7516 -13.6332 -53.1266 -12.1645 Q-53.5016 -10.6957 -53.5016 -9.8832 Q-53.5016 -9.1645 -53.1891 -8.5785 Q-52.8766 -7.9926 -52.2048 -7.9926 Z"
         id="path3617" />
      <path
         style="stroke:none;"
         d="M-43.8501 -15.4218 L-43.8501 -15.828 Q-43.8501 -15.8593 -43.8188 -15.9062 L-41.4907 -18.4843 Q-40.9594 -19.0624 -40.6313 -19.4452 Q-40.3032 -19.828 -39.9829 -20.3358 Q-39.6626 -20.8437 -39.4751 -21.3671 Q-39.2876 -21.8905 -39.2876 -22.4687 Q-39.2876 -23.0937 -39.5141 -23.6562 Q-39.7407 -24.2187 -40.1938 -24.5546 Q-40.6469 -24.8905 -41.2876 -24.8905 Q-41.9282 -24.8905 -42.4516 -24.4921 Q-42.9751 -24.0937 -43.1938 -23.4843 Q-43.1313 -23.4999 -43.0219 -23.4999 Q-42.6938 -23.4999 -42.4516 -23.2733 Q-42.2094 -23.0468 -42.2094 -22.6874 Q-42.2094 -22.3437 -42.4516 -22.1015 Q-42.6938 -21.8593 -43.0219 -21.8593 Q-43.3813 -21.8593 -43.6157 -22.1015 Q-43.8501 -22.3437 -43.8501 -22.6874 Q-43.8501 -23.2499 -43.6391 -23.7421 Q-43.4282 -24.2343 -43.0298 -24.6171 Q-42.6313 -24.9999 -42.1313 -25.203 Q-41.6313 -25.4062 -41.0688 -25.4062 Q-40.2094 -25.4062 -39.4673 -25.0468 Q-38.7251 -24.6874 -38.2954 -24.0233 Q-37.8657 -23.3593 -37.8657 -22.4687 Q-37.8657 -21.828 -38.1469 -21.2421 Q-38.4282 -20.6562 -38.8735 -20.1718 Q-39.3188 -19.6874 -40.0219 -19.078 Q-40.7251 -18.4687 -40.9438 -18.2655 L-42.6313 -16.6405 L-41.1938 -16.6405 Q-40.1313 -16.6405 -39.4204 -16.6562 Q-38.7094 -16.6718 -38.6626 -16.7187 Q-38.4907 -16.9062 -38.3032 -18.0937 L-37.8657 -18.0937 L-38.2876 -15.4218 L-43.8501 -15.4218 Z"
         id="path3619" />
      <path
         style="stroke:none;"
         d="M-43.9438 -2.857 Q-43.9438 -2.9039 -43.9282 -2.9898 Q-43.9126 -3.0758 -43.9048 -3.1617 Q-43.8969 -3.2477 -43.8969 -3.2789 L-42.0376 -10.7164 Q-41.9751 -10.9664 -41.9594 -11.1227 Q-41.9594 -11.357 -42.9438 -11.357 Q-43.0844 -11.357 -43.0844 -11.5602 Q-43.0688 -11.5914 -43.0454 -11.6852 Q-43.0219 -11.7789 -42.9829 -11.8336 Q-42.9438 -11.8883 -42.8657 -11.8883 L-40.8501 -12.0445 Q-40.6626 -12.0445 -40.6626 -11.857 L-42.8344 -3.232 Q-42.9438 -2.982 -42.9438 -2.5133 Q-42.9438 -1.8727 -42.4907 -1.8727 Q-42.0376 -1.8727 -41.8032 -2.443 Q-41.5688 -3.0133 -41.3969 -3.8414 Q-41.3657 -3.9352 -41.2719 -3.9352 L-41.0844 -3.9352 Q-41.0376 -3.9352 -40.9985 -3.8883 Q-40.9594 -3.8414 -40.9594 -3.7789 Q-41.1313 -3.0602 -41.2719 -2.6383 Q-41.4126 -2.2164 -41.7251 -1.8414 Q-42.0376 -1.4664 -42.5219 -1.4664 Q-43.1313 -1.4664 -43.5376 -1.857 Q-43.9438 -2.2477 -43.9438 -2.857 Z"
         id="path3621" />
      <path
         style="stroke:none;"
         d="M-36.8348 -1.4664 Q-37.5379 -1.4664 -38.0926 -1.8023 Q-38.6473 -2.1383 -38.952 -2.7086 Q-39.2567 -3.2789 -39.2567 -4.0133 Q-39.2567 -5.0289 -38.6864 -6.0289 Q-38.1161 -7.0289 -37.1707 -7.6461 Q-36.2254 -8.2633 -35.1942 -8.2633 Q-34.6473 -8.2633 -34.2098 -8.0758 Q-33.7723 -7.8883 -33.452 -7.5445 Q-33.1317 -7.2008 -32.9598 -6.7398 Q-32.7879 -6.2789 -32.7879 -5.732 Q-32.7879 -4.9508 -33.1161 -4.193 Q-33.4442 -3.4352 -34.0145 -2.818 Q-34.5848 -2.2008 -35.327 -1.8336 Q-36.0692 -1.4664 -36.8348 -1.4664 ZM-36.8036 -1.8727 Q-36.1317 -1.8727 -35.5848 -2.3258 Q-35.0379 -2.7789 -34.6786 -3.4664 Q-34.3192 -4.1539 -34.1317 -4.9273 Q-33.9442 -5.7008 -33.9442 -6.3258 Q-33.9442 -6.9664 -34.2645 -7.4195 Q-34.5848 -7.8727 -35.2254 -7.8727 Q-36.1004 -7.8727 -36.7645 -7.1227 Q-37.4286 -6.3727 -37.7567 -5.3336 Q-38.0848 -4.2945 -38.0848 -3.4195 Q-38.0848 -2.7789 -37.7567 -2.3258 Q-37.4286 -1.8727 -36.8036 -1.8727 Z"
         id="path3623" />
      <path
         style="stroke:none;"
         d="M-30.8463 -3.4195 Q-30.8463 -2.7789 -30.5182 -2.3258 Q-30.19 -1.8727 -29.565 -1.8727 Q-28.6744 -1.8727 -27.8463 -2.2789 Q-27.0182 -2.6852 -26.5025 -3.4039 Q-26.4557 -3.4508 -26.3932 -3.4508 Q-26.315 -3.4508 -26.2369 -3.3648 Q-26.1588 -3.2789 -26.1588 -3.2164 Q-26.1588 -3.1539 -26.19 -3.1227 Q-26.7369 -2.357 -27.6666 -1.9117 Q-28.5963 -1.4664 -29.5963 -1.4664 Q-30.315 -1.4664 -30.8619 -1.8102 Q-31.4088 -2.1539 -31.7135 -2.7242 Q-32.0182 -3.2945 -32.0182 -4.0133 Q-32.0182 -5.0289 -31.4479 -6.0211 Q-30.8775 -7.0133 -29.94 -7.6383 Q-29.0025 -8.2633 -27.9713 -8.2633 Q-27.2994 -8.2633 -26.7604 -7.943 Q-26.2213 -7.6227 -26.2213 -6.982 Q-26.2213 -6.5602 -26.4635 -6.2711 Q-26.7057 -5.982 -27.0963 -5.982 Q-27.3463 -5.982 -27.5104 -6.1383 Q-27.6744 -6.2945 -27.6744 -6.5289 Q-27.6744 -6.8883 -27.4166 -7.1383 Q-27.1588 -7.3883 -26.815 -7.3883 L-26.7838 -7.3883 Q-26.9713 -7.6383 -27.2994 -7.7555 Q-27.6275 -7.8727 -27.9869 -7.8727 Q-28.8619 -7.8727 -29.526 -7.1227 Q-30.19 -6.3727 -30.5182 -5.3336 Q-30.8463 -4.2945 -30.8463 -3.4195 Z"
         id="path3625" />
      <path
         style="stroke:none;"
         d="M-23.5401 -1.4664 Q-24.4932 -1.4664 -25.0323 -2.1852 Q-25.5713 -2.9039 -25.5713 -3.8727 Q-25.5713 -4.8258 -25.0791 -5.8648 Q-24.5869 -6.9039 -23.7354 -7.5836 Q-22.8838 -8.2633 -21.9151 -8.2633 Q-21.4619 -8.2633 -21.1104 -8.0211 Q-20.7588 -7.7789 -20.5713 -7.3727 Q-20.3994 -7.9664 -19.9151 -7.9664 Q-19.7119 -7.9664 -19.5869 -7.8492 Q-19.4619 -7.732 -19.4619 -7.5445 Q-19.4619 -7.4977 -19.4619 -7.482 Q-19.4619 -7.4664 -19.4776 -7.4352 L-20.5244 -3.2477 Q-20.6338 -2.7945 -20.6338 -2.5133 Q-20.6338 -1.8727 -20.1963 -1.8727 Q-19.7276 -1.8727 -19.4776 -2.4664 Q-19.2276 -3.0602 -19.0713 -3.8414 Q-19.0401 -3.9352 -18.9463 -3.9352 L-18.7588 -3.9352 Q-18.7119 -3.9352 -18.6729 -3.8805 Q-18.6338 -3.8258 -18.6338 -3.7789 Q-18.8994 -2.732 -19.2119 -2.0992 Q-19.5244 -1.4664 -20.2276 -1.4664 Q-20.7276 -1.4664 -21.1182 -1.7633 Q-21.5088 -2.0602 -21.6026 -2.5602 Q-22.5713 -1.4664 -23.5401 -1.4664 ZM-23.5244 -1.8727 Q-22.9776 -1.8727 -22.4698 -2.2789 Q-21.9619 -2.6852 -21.6026 -3.232 Q-21.5869 -3.2477 -21.5869 -3.2789 L-20.7744 -6.5289 L-20.7588 -6.5758 Q-20.8526 -7.107 -21.1494 -7.4898 Q-21.4463 -7.8727 -21.9463 -7.8727 Q-22.4619 -7.8727 -22.8994 -7.4586 Q-23.3369 -7.0445 -23.6338 -6.482 Q-23.9151 -5.8883 -24.1885 -4.8414 Q-24.4619 -3.7945 -24.4619 -3.2164 Q-24.4619 -2.7008 -24.2354 -2.2867 Q-24.0088 -1.8727 -23.5244 -1.8727 Z"
         id="path3627" />
      <path
         style="stroke:none;"
         d="M-17.5996 -2.857 Q-17.5996 -2.9039 -17.584 -2.9898 Q-17.5684 -3.0758 -17.5605 -3.1617 Q-17.5527 -3.2477 -17.5527 -3.2789 L-15.6934 -10.7164 Q-15.6309 -10.9664 -15.6152 -11.1227 Q-15.6152 -11.357 -16.5996 -11.357 Q-16.7402 -11.357 -16.7402 -11.5602 Q-16.7246 -11.5914 -16.7012 -11.6852 Q-16.6777 -11.7789 -16.6387 -11.8336 Q-16.5996 -11.8883 -16.5215 -11.8883 L-14.5059 -12.0445 Q-14.3184 -12.0445 -14.3184 -11.857 L-16.4902 -3.232 Q-16.5996 -2.982 -16.5996 -2.5133 Q-16.5996 -1.8727 -16.1465 -1.8727 Q-15.6934 -1.8727 -15.459 -2.443 Q-15.2246 -3.0133 -15.0527 -3.8414 Q-15.0215 -3.9352 -14.9277 -3.9352 L-14.7402 -3.9352 Q-14.6934 -3.9352 -14.6543 -3.8883 Q-14.6152 -3.8414 -14.6152 -3.7789 Q-14.7871 -3.0602 -14.9277 -2.6383 Q-15.0684 -2.2164 -15.3809 -1.8414 Q-15.6934 -1.4664 -16.1777 -1.4664 Q-16.7871 -1.4664 -17.1934 -1.857 Q-17.5996 -2.2477 -17.5996 -2.857 Z"
         id="path3629" />
      <path
         style="stroke:none;"
         d="M-9.9552 -2.4301 L-9.9552 -23.4301 L-7.0802 -23.4301 L-7.0802 -22.5863 L-9.1114 -22.5863 L-9.1114 -3.2738 L-7.0802 -3.2738 L-7.0802 -2.4301 L-9.9552 -2.4301 Z"
         id="path3631" />
      <path
         style="stroke:none;"
         d="M-4.8886 -8.0395 Q-4.8886 -8.1645 -4.873 -8.227 L-3.3105 -14.4926 Q-3.1542 -15.0707 -3.1542 -15.5082 Q-3.1542 -16.4145 -3.7636 -16.4145 Q-4.4199 -16.4145 -4.7402 -15.6332 Q-5.0605 -14.852 -5.3574 -13.6488 Q-5.3574 -13.5863 -5.4199 -13.5473 Q-5.4824 -13.5082 -5.5292 -13.5082 L-5.7792 -13.5082 Q-5.8417 -13.5082 -5.8964 -13.5863 Q-5.9511 -13.6645 -5.9511 -13.727 Q-5.7167 -14.6488 -5.5136 -15.2816 Q-5.3105 -15.9145 -4.8574 -16.4379 Q-4.4042 -16.9613 -3.748 -16.9613 Q-2.9511 -16.9613 -2.3495 -16.4613 Q-1.748 -15.9613 -1.748 -15.1957 Q-1.123 -16.0238 -0.2792 -16.4926 Q0.5645 -16.9613 1.502 -16.9613 Q2.502 -16.9613 3.2208 -16.4535 Q3.9395 -15.9457 3.9395 -15.0082 Q4.5958 -15.9301 5.463 -16.4457 Q6.3301 -16.9613 7.3458 -16.9613 Q8.4395 -16.9613 9.0958 -16.3676 Q9.752 -15.7738 9.752 -14.6957 Q9.752 -13.8363 9.3692 -12.6176 Q8.9864 -11.3988 8.4239 -9.8832 Q8.1114 -9.1645 8.1114 -8.6176 Q8.1114 -7.9926 8.6114 -7.9926 Q9.4239 -7.9926 9.9708 -8.8754 Q10.5176 -9.7582 10.7364 -10.7738 Q10.7989 -10.8832 10.9239 -10.8832 L11.1583 -10.8832 Q11.252 -10.8832 11.3067 -10.8285 Q11.3614 -10.7738 11.3614 -10.7113 Q11.3614 -10.6801 11.3458 -10.6488 Q11.0489 -9.4613 10.338 -8.4535 Q9.627 -7.4457 8.5645 -7.4457 Q7.8145 -7.4457 7.2989 -7.9535 Q6.7833 -8.4613 6.7833 -9.1801 Q6.7833 -9.5551 6.9551 -10.0082 Q7.5489 -11.5863 7.9395 -12.8285 Q8.3301 -14.0707 8.3301 -15.0082 Q8.3301 -15.602 8.0958 -16.0082 Q7.8614 -16.4145 7.3145 -16.4145 Q6.1583 -16.4145 5.3223 -15.7113 Q4.4864 -15.0082 3.8614 -13.852 Q3.8301 -13.6488 3.7989 -13.5395 L2.4551 -8.1488 Q2.377 -7.852 2.127 -7.6488 Q1.877 -7.4457 1.5645 -7.4457 Q1.3145 -7.4457 1.127 -7.6098 Q0.9395 -7.7738 0.9395 -8.0395 Q0.9395 -8.1645 0.9551 -8.227 L2.2989 -13.5707 Q2.5176 -14.4301 2.5176 -15.0082 Q2.5176 -15.602 2.2755 -16.0082 Q2.0333 -16.4145 1.4708 -16.4145 Q0.6895 -16.4145 0.0489 -16.0785 Q-0.5917 -15.7426 -1.0761 -15.1801 Q-1.5605 -14.6176 -1.9667 -13.852 L-3.3886 -8.1488 Q-3.4511 -7.852 -3.7089 -7.6488 Q-3.9667 -7.4457 -4.2636 -7.4457 Q-4.5292 -7.4457 -4.7089 -7.6098 Q-4.8886 -7.7738 -4.8886 -8.0395 Z"
         id="path3633" />
      <path
         style="stroke:none;"
         d="M12.9674 -15.4218 L12.9674 -15.828 Q12.9674 -15.8593 12.9986 -15.9062 L15.3267 -18.4843 Q15.858 -19.0624 16.1861 -19.4452 Q16.5142 -19.828 16.8345 -20.3358 Q17.1549 -20.8437 17.3424 -21.3671 Q17.5299 -21.8905 17.5299 -22.4687 Q17.5299 -23.0937 17.3033 -23.6562 Q17.0767 -24.2187 16.6236 -24.5546 Q16.1705 -24.8905 15.5299 -24.8905 Q14.8892 -24.8905 14.3658 -24.4921 Q13.8424 -24.0937 13.6236 -23.4843 Q13.6861 -23.4999 13.7955 -23.4999 Q14.1236 -23.4999 14.3658 -23.2733 Q14.608 -23.0468 14.608 -22.6874 Q14.608 -22.3437 14.3658 -22.1015 Q14.1236 -21.8593 13.7955 -21.8593 Q13.4361 -21.8593 13.2017 -22.1015 Q12.9674 -22.3437 12.9674 -22.6874 Q12.9674 -23.2499 13.1783 -23.7421 Q13.3892 -24.2343 13.7877 -24.6171 Q14.1861 -24.9999 14.6861 -25.203 Q15.1861 -25.4062 15.7486 -25.4062 Q16.608 -25.4062 17.3502 -25.0468 Q18.0924 -24.6874 18.522 -24.0233 Q18.9517 -23.3593 18.9517 -22.4687 Q18.9517 -21.828 18.6705 -21.2421 Q18.3892 -20.6562 17.9439 -20.1718 Q17.4986 -19.6874 16.7955 -19.078 Q16.0924 -18.4687 15.8736 -18.2655 L14.1861 -16.6405 L15.6236 -16.6405 Q16.6861 -16.6405 17.397 -16.6562 Q18.108 -16.6718 18.1549 -16.7187 Q18.3267 -16.9062 18.5142 -18.0937 L18.9517 -18.0937 L18.5299 -15.4218 L12.9674 -15.4218 Z"
         id="path3635" />
      <path
         style="stroke:none;"
         d="M21.9226 -2.852 Q21.9226 -2.9145 21.9538 -2.9301 L29.2507 -23.1801 Q29.2976 -23.2895 29.3991 -23.3598 Q29.5007 -23.4301 29.6257 -23.4301 Q29.8132 -23.4301 29.9304 -23.3207 Q30.0476 -23.2113 30.0476 -23.0082 L30.0476 -22.9301 L22.7507 -2.6801 Q22.6257 -2.4301 22.3444 -2.4301 Q22.1726 -2.4301 22.0476 -2.5551 Q21.9226 -2.6801 21.9226 -2.852 Z"
         id="path3637" />
      <path
         style="stroke:none;"
         d="M33.2455 -8.9613 Q33.808 -7.9926 35.5111 -7.9926 Q36.2455 -7.9926 36.9096 -8.2504 Q37.5736 -8.5082 38.0111 -9.0082 Q38.4486 -9.5082 38.4486 -10.227 Q38.4486 -10.7738 38.058 -11.1176 Q37.6674 -11.4613 37.1049 -11.5863 L35.9643 -11.8051 Q35.1986 -12.0082 34.6908 -12.5395 Q34.183 -13.0707 34.183 -13.8363 Q34.183 -14.7582 34.6908 -15.477 Q35.1986 -16.1957 36.0268 -16.5785 Q36.8549 -16.9613 37.7611 -16.9613 Q38.7143 -16.9613 39.4643 -16.5082 Q40.2143 -16.0551 40.2143 -15.1488 Q40.2143 -14.6801 39.9408 -14.3051 Q39.6674 -13.9301 39.183 -13.9301 Q38.9174 -13.9301 38.7143 -14.1098 Q38.5111 -14.2895 38.5111 -14.5707 Q38.5111 -14.8207 38.6518 -15.0473 Q38.7924 -15.2738 39.0189 -15.4145 Q39.2455 -15.5551 39.4955 -15.5551 Q39.308 -16.0082 38.8002 -16.2113 Q38.2924 -16.4145 37.7143 -16.4145 Q37.183 -16.4145 36.6518 -16.2035 Q36.1205 -15.9926 35.7924 -15.5707 Q35.4643 -15.1488 35.4643 -14.5863 Q35.4643 -14.2113 35.7299 -13.9223 Q35.9955 -13.6332 36.3861 -13.5082 L37.6049 -13.2738 Q38.1986 -13.1488 38.683 -12.8363 Q39.1674 -12.5238 39.4486 -12.0473 Q39.7299 -11.5707 39.7299 -10.9457 Q39.7299 -10.1645 39.2924 -9.4066 Q38.8549 -8.6488 38.2299 -8.1957 Q37.1049 -7.4457 35.4955 -7.4457 Q34.3705 -7.4457 33.4408 -7.9613 Q32.5111 -8.477 32.5111 -9.4926 Q32.5111 -10.0551 32.8393 -10.4848 Q33.1674 -10.9145 33.7455 -10.9145 Q34.0893 -10.9145 34.3158 -10.7035 Q34.5424 -10.4926 34.5424 -10.1645 Q34.5424 -9.6801 34.183 -9.3207 Q33.8236 -8.9613 33.3393 -8.9613 L33.2455 -8.9613 Z"
         id="path3639" />
      <path
         style="stroke:none;"
         d="M42.1674 -15.4218 L42.1674 -15.828 Q42.1674 -15.8593 42.1986 -15.9062 L44.5268 -18.4843 Q45.058 -19.0624 45.3861 -19.4452 Q45.7143 -19.828 46.0346 -20.3358 Q46.3549 -20.8437 46.5424 -21.3671 Q46.7299 -21.8905 46.7299 -22.4687 Q46.7299 -23.0937 46.5033 -23.6562 Q46.2768 -24.2187 45.8236 -24.5546 Q45.3705 -24.8905 44.7299 -24.8905 Q44.0893 -24.8905 43.5658 -24.4921 Q43.0424 -24.0937 42.8236 -23.4843 Q42.8861 -23.4999 42.9955 -23.4999 Q43.3236 -23.4999 43.5658 -23.2733 Q43.808 -23.0468 43.808 -22.6874 Q43.808 -22.3437 43.5658 -22.1015 Q43.3236 -21.8593 42.9955 -21.8593 Q42.6361 -21.8593 42.4018 -22.1015 Q42.1674 -22.3437 42.1674 -22.6874 Q42.1674 -23.2499 42.3783 -23.7421 Q42.5893 -24.2343 42.9877 -24.6171 Q43.3861 -24.9999 43.8861 -25.203 Q44.3861 -25.4062 44.9486 -25.4062 Q45.808 -25.4062 46.5502 -25.0468 Q47.2924 -24.6874 47.7221 -24.0233 Q48.1518 -23.3593 48.1518 -22.4687 Q48.1518 -21.828 47.8705 -21.2421 Q47.5893 -20.6562 47.1439 -20.1718 Q46.6986 -19.6874 45.9955 -19.078 Q45.2924 -18.4687 45.0736 -18.2655 L43.3861 -16.6405 L44.8236 -16.6405 Q45.8861 -16.6405 46.5971 -16.6562 Q47.308 -16.6718 47.3549 -16.7187 Q47.5268 -16.9062 47.7143 -18.0937 L48.1518 -18.0937 L47.7299 -15.4218 L42.1674 -15.4218 Z"
         id="path3641" />
      <path
         style="stroke:none;"
         d="M50.4195 -2.4301 L50.4195 -3.2738 L52.4507 -3.2738 L52.4507 -22.5863 L50.4195 -22.5863 L50.4195 -23.4301 L53.2945 -23.4301 L53.2945 -2.4301 L50.4195 -2.4301 Z"
         id="path3643" />
    </g>
    <g
       transform="translate(73,28)"
       style="font-size:13.3333px; fill:rgb(38,38,38); text-rendering:geometricPrecision; image-rendering:optimizeQuality; color-rendering:optimizeQuality; font-family:'mwb_cmsy10'; stroke:rgb(38,38,38); color-interpolation:linearRGB;"
       id="g3649">
      <path
         style="stroke:none;"
         d="M1.9062 -0.375 Q1.9062 -0.4688 1.9688 -0.5625 L4.6719 -3.25 L1.9688 -5.9531 Q1.9062 -6.0156 1.9062 -6.125 Q1.9062 -6.2188 1.9844 -6.3047 Q2.0625 -6.3906 2.1719 -6.3906 Q2.2656 -6.3906 2.375 -6.2969 L5.0625 -3.6094 L7.7344 -6.2969 Q7.8438 -6.3906 7.9219 -6.3906 Q8.0312 -6.3906 8.1094 -6.3125 Q8.1875 -6.2344 8.1875 -6.125 Q8.1875 -6.0156 8.125 -5.9531 L5.4219 -3.25 L8.125 -0.5625 Q8.1875 -0.4688 8.1875 -0.375 Q8.1875 -0.2656 8.1094 -0.1875 Q8.0312 -0.1094 7.9219 -0.1094 Q7.8281 -0.1094 7.7344 -0.2031 L5.0625 -2.8906 L2.375 -0.2031 Q2.2656 -0.1094 2.1719 -0.1094 Q2.0625 -0.1094 1.9844 -0.1953 Q1.9062 -0.2812 1.9062 -0.375 Z"
         id="path3647" />
    </g>
    <g
       transform="translate(84,28)"
       style="font-size:13.3333px; fill:rgb(38,38,38); text-rendering:geometricPrecision; image-rendering:optimizeQuality; color-rendering:optimizeQuality; font-family:'SansSerif'; stroke:rgb(38,38,38); color-interpolation:linearRGB;"
       id="g3653">
      <path
         style="stroke:none;"
         d="M4.8438 0 L3.7031 0 L3.7031 -7.2812 Q3.2812 -6.8906 2.6172 -6.4922 Q1.9531 -6.0938 1.4219 -5.9062 L1.4219 -7.0156 Q2.375 -7.4531 3.0938 -8.0938 Q3.8125 -8.7344 4.1094 -9.3438 L4.8438 -9.3438 L4.8438 0 ZM7.9507 -4.5938 Q7.9507 -6.2344 8.2866 -7.2422 Q8.6225 -8.25 9.2944 -8.7969 Q9.9663 -9.3438 10.9819 -9.3438 Q11.7319 -9.3438 12.2944 -9.0391 Q12.8569 -8.7344 13.2241 -8.1719 Q13.5913 -7.6094 13.8022 -6.7891 Q14.0132 -5.9688 14.0132 -4.5938 Q14.0132 -2.9531 13.6772 -1.9453 Q13.3413 -0.9375 12.6694 -0.3906 Q11.9975 0.1562 10.9819 0.1562 Q9.6382 0.1562 8.8569 -0.8125 Q7.9507 -1.9688 7.9507 -4.5938 ZM9.1225 -4.5938 Q9.1225 -2.2969 9.6538 -1.5391 Q10.185 -0.7812 10.9819 -0.7812 Q11.7632 -0.7812 12.3022 -1.5391 Q12.8413 -2.2969 12.8413 -4.5938 Q12.8413 -6.8906 12.3022 -7.6406 Q11.7632 -8.3906 10.9663 -8.3906 Q10.185 -8.3906 9.7007 -7.7344 Q9.1225 -6.875 9.1225 -4.5938 Z"
         id="path3651" />
    </g>
    <g
       transform="translate(99,22)"
       style="font-size:10.6667px; fill:rgb(38,38,38); text-rendering:geometricPrecision; image-rendering:optimizeQuality; color-rendering:optimizeQuality; font-family:'SansSerif'; stroke:rgb(38,38,38); color-interpolation:linearRGB;"
       id="g3657">
      <path
         style="stroke:none;"
         d="M0.4531 -2.0625 L1.4688 -2.1562 Q1.5781 -1.4062 1.9922 -1.0312 Q2.4062 -0.6562 2.9844 -0.6562 Q3.6875 -0.6562 4.1719 -1.1875 Q4.6562 -1.7188 4.6562 -2.5781 Q4.6562 -3.4062 4.1875 -3.8828 Q3.7188 -4.3594 2.9688 -4.3594 Q2.5 -4.3594 2.125 -4.1484 Q1.75 -3.9375 1.5312 -3.6094 L0.625 -3.7188 L1.3906 -7.7656 L5.3125 -7.7656 L5.3125 -6.8438 L2.1719 -6.8438 L1.7344 -4.7344 Q2.4531 -5.2188 3.2344 -5.2188 Q4.2656 -5.2188 4.9688 -4.5078 Q5.6719 -3.7969 5.6719 -2.6719 Q5.6719 -1.5938 5.0469 -0.8281 Q4.2969 0.1406 2.9844 0.1406 Q1.9062 0.1406 1.2266 -0.4609 Q0.5469 -1.0625 0.4531 -2.0625 Z"
         id="path3655" />
    </g>
    <g
       transform="translate(290.0003,28.25)"
       style="font-size:14.6667px; text-rendering:geometricPrecision; image-rendering:optimizeQuality; color-rendering:optimizeQuality; font-family:'SansSerif'; color-interpolation:linearRGB; font-weight:bold;"
       id="g3661">
      <path
         style="stroke:none;"
         d="M-55.4531 -7.5 L-53.3438 -7.7031 Q-53.1562 -6.6406 -52.5781 -6.1406 Q-52 -5.6406 -51 -5.6406 Q-49.9531 -5.6406 -49.4219 -6.0859 Q-48.8906 -6.5312 -48.8906 -7.125 Q-48.8906 -7.5 -49.1172 -7.7656 Q-49.3438 -8.0312 -49.9062 -8.2344 Q-50.2812 -8.3594 -51.6406 -8.7031 Q-53.375 -9.1406 -54.0781 -9.7656 Q-55.0625 -10.6562 -55.0625 -11.9219 Q-55.0625 -12.75 -54.6016 -13.4609 Q-54.1406 -14.1719 -53.2656 -14.5469 Q-52.3906 -14.9219 -51.1562 -14.9219 Q-49.125 -14.9219 -48.1094 -14.0312 Q-47.0938 -13.1406 -47.0312 -11.6719 L-49.2031 -11.5781 Q-49.3438 -12.4062 -49.7969 -12.7656 Q-50.25 -13.125 -51.1719 -13.125 Q-52.125 -13.125 -52.6562 -12.7344 Q-53 -12.4844 -53 -12.0781 Q-53 -11.6875 -52.6719 -11.4219 Q-52.2656 -11.0781 -50.6797 -10.7031 Q-49.0938 -10.3281 -48.3359 -9.9297 Q-47.5781 -9.5312 -47.1562 -8.8359 Q-46.7344 -8.1406 -46.7344 -7.125 Q-46.7344 -6.2031 -47.2422 -5.3984 Q-47.75 -4.5938 -48.6875 -4.2031 Q-49.625 -3.8125 -51.0312 -3.8125 Q-53.0625 -3.8125 -54.1562 -4.75 Q-55.25 -5.6875 -55.4531 -7.5 ZM-45.2088 -11.7812 L-43.2869 -11.7812 L-43.2869 -10.6406 Q-42.9119 -11.2188 -42.2791 -11.5859 Q-41.6463 -11.9531 -40.865 -11.9531 Q-39.5056 -11.9531 -38.5603 -10.8906 Q-37.615 -9.8281 -37.615 -7.9375 Q-37.615 -5.9844 -38.5681 -4.9062 Q-39.5213 -3.8281 -40.8806 -3.8281 Q-41.5213 -3.8281 -42.0447 -4.0859 Q-42.5681 -4.3438 -43.1463 -4.9531 L-43.1463 -1.0469 L-45.2088 -1.0469 L-45.2088 -11.7812 ZM-43.1775 -8.0156 Q-43.1775 -6.7031 -42.6541 -6.0781 Q-42.1306 -5.4531 -41.3806 -5.4531 Q-40.6619 -5.4531 -40.1853 -6.0312 Q-39.7088 -6.6094 -39.7088 -7.9219 Q-39.7088 -9.1406 -40.201 -9.7344 Q-40.6931 -10.3281 -41.4119 -10.3281 Q-42.1775 -10.3281 -42.6775 -9.7422 Q-43.1775 -9.1562 -43.1775 -8.0156 ZM-31.6936 -6.4688 L-29.6468 -6.125 Q-30.0374 -5 -30.889 -4.4141 Q-31.7405 -3.8281 -33.0218 -3.8281 Q-35.053 -3.8281 -36.0218 -5.1562 Q-36.803 -6.2188 -36.803 -7.8281 Q-36.803 -9.7656 -35.7874 -10.8594 Q-34.7718 -11.9531 -33.2249 -11.9531 Q-31.4905 -11.9531 -30.4905 -10.8047 Q-29.4905 -9.6562 -29.5374 -7.2969 L-34.6936 -7.2969 Q-34.6624 -6.375 -34.1858 -5.8672 Q-33.7093 -5.3594 -33.0061 -5.3594 Q-32.5218 -5.3594 -32.1936 -5.625 Q-31.8655 -5.8906 -31.6936 -6.4688 ZM-31.5686 -8.5625 Q-31.5999 -9.4531 -32.0374 -9.9141 Q-32.4749 -10.375 -33.0999 -10.375 Q-33.7718 -10.375 -34.2249 -9.8906 Q-34.6624 -9.3906 -34.6468 -8.5625 L-31.5686 -8.5625 ZM-23.5425 -6.4688 L-21.4957 -6.125 Q-21.8863 -5 -22.7379 -4.4141 Q-23.5894 -3.8281 -24.8707 -3.8281 Q-26.9019 -3.8281 -27.8707 -5.1562 Q-28.6519 -6.2188 -28.6519 -7.8281 Q-28.6519 -9.7656 -27.6363 -10.8594 Q-26.6207 -11.9531 -25.0738 -11.9531 Q-23.3394 -11.9531 -22.3394 -10.8047 Q-21.3394 -9.6562 -21.3863 -7.2969 L-26.5425 -7.2969 Q-26.5113 -6.375 -26.0347 -5.8672 Q-25.5582 -5.3594 -24.855 -5.3594 Q-24.3707 -5.3594 -24.0425 -5.625 Q-23.7144 -5.8906 -23.5425 -6.4688 ZM-23.4175 -8.5625 Q-23.4488 -9.4531 -23.8863 -9.9141 Q-24.3238 -10.375 -24.9488 -10.375 Q-25.6207 -10.375 -26.0738 -9.8906 Q-26.5113 -9.3906 -26.4957 -8.5625 L-23.4175 -8.5625 ZM-12.7664 -4 L-14.6727 -4 L-14.6727 -5.1406 Q-15.1414 -4.4688 -15.7899 -4.1484 Q-16.4383 -3.8281 -17.0946 -3.8281 Q-18.4383 -3.8281 -19.3992 -4.9062 Q-20.3602 -5.9844 -20.3602 -7.9219 Q-20.3602 -9.8906 -19.4305 -10.9219 Q-18.5008 -11.9531 -17.0789 -11.9531 Q-15.7664 -11.9531 -14.8133 -10.875 L-14.8133 -14.7344 L-12.7664 -14.7344 L-12.7664 -4 ZM-18.2508 -8.0625 Q-18.2508 -6.8125 -17.9071 -6.25 Q-17.4071 -5.4531 -16.5164 -5.4531 Q-15.8133 -5.4531 -15.3133 -6.0547 Q-14.8133 -6.6562 -14.8133 -7.8594 Q-14.8133 -9.2031 -15.2977 -9.7891 Q-15.7821 -10.375 -16.5321 -10.375 Q-17.2664 -10.375 -17.7586 -9.7969 Q-18.2508 -9.2188 -18.2508 -8.0625 ZM-7.3512 -8 Q-7.3512 -9.0312 -6.8434 -9.9844 Q-6.3356 -10.9375 -5.4059 -11.4453 Q-4.4762 -11.9531 -3.3356 -11.9531 Q-1.57 -11.9531 -0.445 -10.8047 Q0.68 -9.6562 0.68 -7.9062 Q0.68 -6.1406 -0.4606 -4.9844 Q-1.6012 -3.8281 -3.32 -3.8281 Q-4.3981 -3.8281 -5.3668 -4.3125 Q-6.3356 -4.7969 -6.8434 -5.7266 Q-7.3512 -6.6562 -7.3512 -8 ZM-5.2418 -7.8906 Q-5.2418 -6.7344 -4.6871 -6.1172 Q-4.1325 -5.5 -3.3356 -5.5 Q-2.5231 -5.5 -1.9762 -6.1172 Q-1.4293 -6.7344 -1.4293 -7.9062 Q-1.4293 -9.0469 -1.9762 -9.6641 Q-2.5231 -10.2812 -3.3356 -10.2812 Q-4.1325 -10.2812 -4.6871 -9.6641 Q-5.2418 -9.0469 -5.2418 -7.8906 ZM1.1795 -11.7812 L2.3202 -11.7812 L2.3202 -12.3594 Q2.3202 -13.3438 2.5311 -13.8281 Q2.742 -14.3125 3.3045 -14.6172 Q3.867 -14.9219 4.7264 -14.9219 Q5.6014 -14.9219 6.4452 -14.6562 L6.1639 -13.2188 Q5.6795 -13.3438 5.2264 -13.3438 Q4.7733 -13.3438 4.578 -13.1328 Q4.3827 -12.9219 4.3827 -12.3281 L4.3827 -11.7812 L5.9295 -11.7812 L5.9295 -10.1562 L4.3827 -10.1562 L4.3827 -4 L2.3202 -4 L2.3202 -10.1562 L1.1795 -10.1562 L1.1795 -11.7812 ZM10.5072 -7.5 L12.6165 -7.7031 Q12.804 -6.6406 13.3822 -6.1406 Q13.9603 -5.6406 14.9603 -5.6406 Q16.0072 -5.6406 16.5384 -6.0859 Q17.0697 -6.5312 17.0697 -7.125 Q17.0697 -7.5 16.8431 -7.7656 Q16.6165 -8.0312 16.054 -8.2344 Q15.679 -8.3594 14.3197 -8.7031 Q12.5853 -9.1406 11.8822 -9.7656 Q10.8978 -10.6562 10.8978 -11.9219 Q10.8978 -12.75 11.3587 -13.4609 Q11.8197 -14.1719 12.6947 -14.5469 Q13.5697 -14.9219 14.804 -14.9219 Q16.8353 -14.9219 17.8509 -14.0312 Q18.8665 -13.1406 18.929 -11.6719 L16.7572 -11.5781 Q16.6165 -12.4062 16.1634 -12.7656 Q15.7103 -13.125 14.7884 -13.125 Q13.8353 -13.125 13.304 -12.7344 Q12.9603 -12.4844 12.9603 -12.0781 Q12.9603 -11.6875 13.2884 -11.4219 Q13.6947 -11.0781 15.2806 -10.7031 Q16.8665 -10.3281 17.6243 -9.9297 Q18.3822 -9.5312 18.804 -8.8359 Q19.2259 -8.1406 19.2259 -7.125 Q19.2259 -6.2031 18.7181 -5.3984 Q18.2103 -4.5938 17.2728 -4.2031 Q16.3353 -3.8125 14.929 -3.8125 Q12.8978 -3.8125 11.804 -4.75 Q10.7103 -5.6875 10.5072 -7.5 ZM20.3296 -8 Q20.3296 -9.0312 20.8374 -9.9844 Q21.3453 -10.9375 22.2749 -11.4453 Q23.2046 -11.9531 24.3453 -11.9531 Q26.1109 -11.9531 27.2359 -10.8047 Q28.3609 -9.6562 28.3609 -7.9062 Q28.3609 -6.1406 27.2203 -4.9844 Q26.0796 -3.8281 24.3609 -3.8281 Q23.2828 -3.8281 22.314 -4.3125 Q21.3453 -4.7969 20.8374 -5.7266 Q20.3296 -6.6562 20.3296 -8 ZM22.439 -7.8906 Q22.439 -6.7344 22.9937 -6.1172 Q23.5484 -5.5 24.3453 -5.5 Q25.1578 -5.5 25.7046 -6.1172 Q26.2515 -6.7344 26.2515 -7.9062 Q26.2515 -9.0469 25.7046 -9.6641 Q25.1578 -10.2812 24.3453 -10.2812 Q23.5484 -10.2812 22.9937 -9.6641 Q22.439 -9.0469 22.439 -7.8906 ZM34.8916 -4 L34.8916 -5.1719 Q34.4541 -4.5469 33.7666 -4.1875 Q33.0791 -3.8281 32.3135 -3.8281 Q31.5166 -3.8281 30.8994 -4.1719 Q30.2823 -4.5156 30.001 -5.1406 Q29.7198 -5.7656 29.7198 -6.8594 L29.7198 -11.7812 L31.7823 -11.7812 L31.7823 -8.2031 Q31.7823 -6.5625 31.8916 -6.1953 Q32.001 -5.8281 32.3057 -5.6094 Q32.6104 -5.3906 33.0635 -5.3906 Q33.5948 -5.3906 34.0166 -5.6797 Q34.4385 -5.9688 34.5869 -6.3984 Q34.7354 -6.8281 34.7354 -8.5 L34.7354 -11.7812 L36.7979 -11.7812 L36.7979 -4 L34.8916 -4 ZM45.7974 -4 L43.7349 -4 L43.7349 -7.9688 Q43.7349 -9.2344 43.6021 -9.6016 Q43.4693 -9.9688 43.1724 -10.1719 Q42.8755 -10.375 42.4536 -10.375 Q41.9224 -10.375 41.5005 -10.0859 Q41.0786 -9.7969 40.9224 -9.3125 Q40.7661 -8.8281 40.7661 -7.5156 L40.7661 -4 L38.7036 -4 L38.7036 -11.7812 L40.6099 -11.7812 L40.6099 -10.6406 Q41.6255 -11.9531 43.1724 -11.9531 Q43.8599 -11.9531 44.4224 -11.7109 Q44.9849 -11.4688 45.2739 -11.0859 Q45.563 -10.7031 45.6802 -10.2188 Q45.7974 -9.7344 45.7974 -8.8281 L45.7974 -4 ZM54.7969 -4 L52.8906 -4 L52.8906 -5.1406 Q52.4219 -4.4688 51.7734 -4.1484 Q51.125 -3.8281 50.4688 -3.8281 Q49.125 -3.8281 48.1641 -4.9062 Q47.2031 -5.9844 47.2031 -7.9219 Q47.2031 -9.8906 48.1328 -10.9219 Q49.0625 -11.9531 50.4844 -11.9531 Q51.7969 -11.9531 52.75 -10.875 L52.75 -14.7344 L54.7969 -14.7344 L54.7969 -4 ZM49.3125 -8.0625 Q49.3125 -6.8125 49.6562 -6.25 Q50.1562 -5.4531 51.0469 -5.4531 Q51.75 -5.4531 52.25 -6.0547 Q52.75 -6.6562 52.75 -7.8594 Q52.75 -9.2031 52.2656 -9.7891 Q51.7812 -10.375 51.0312 -10.375 Q50.2969 -10.375 49.8047 -9.7969 Q49.3125 -9.2188 49.3125 -8.0625 Z"
         id="path3659" />
    </g>
    <g
       style="stroke-linecap:butt; text-rendering:geometricPrecision; color-rendering:optimizeQuality; image-rendering:optimizeQuality; stroke-linejoin:round; color-interpolation:linearRGB; stroke-width:1.6667;"
       id="g3665">
      <path
         d="M73 40.5842 L75.8933 40.5979 L78.7867 40.6391 L81.68 40.7077 L84.5733 40.8037 L87.4667 40.9272 L90.36 41.0781 L93.2533 41.2565 L96.1467 41.4623 L99.04 41.6955 L101.9333 41.9562 L104.8267 42.2443 L107.72 42.5599 L110.6133 42.9029 L113.5067 43.2733 L116.4 43.6712 L119.2933 44.0965 L122.1867 44.5493 L125.08 45.0295 L127.9733 45.5371 L130.8667 46.0722 L133.76 46.6347 L136.6533 47.2247 L139.5467 47.8421 L142.44 48.4869 L145.3333 49.1592 L148.2267 49.8589 L151.12 50.5861 L154.0133 51.3407 L156.9067 52.1227 L159.8 52.9322 L162.6933 53.7691 L165.5867 54.6335 L168.48 55.5253 L171.3733 56.4445 L174.2667 57.3912 L177.16 58.3653 L180.0533 59.3669 L182.9467 60.3959 L185.84 61.4523 L188.7333 62.5362 L191.6267 63.6475 L194.52 64.7863 L197.4133 65.9525 L200.3067 67.1461 L203.2 68.3672 L206.0933 69.6157 L208.9867 70.8917 L211.88 72.1951 L214.7733 73.5259 L217.6667 74.8842 L220.56 76.2699 L223.4533 77.6831 L226.3467 79.1237 L229.24 80.5917 L232.1333 82.0872 L235.0267 83.6101 L237.92 85.1605 L240.8133 86.7383 L243.7067 88.3435 L246.6 89.9762 L249.4933 91.6363 L252.3867 93.3239 L255.28 95.0389 L258.1733 96.7813 L261.0667 98.5512 L263.96 100.3485 L266.8533 102.1733 L269.7467 104.0255 L272.64 105.9051 L275.5333 107.8122 L278.4267 109.7467 L281.32 111.7087 L284.2133 113.6981 L287.1067 115.7149 L290 117.7592 L292.8933 119.8309 L295.7867 121.9301 L298.68 124.0567 L301.5733 126.2107 L304.4667 128.3922 L307.36 130.6011 L310.2533 132.8375 L313.1467 135.1013 L316.04 137.3925 L318.9333 139.7112 L321.8267 142.0573 L324.72 144.4309 L327.6133 146.8319 L330.5067 149.2603 L333.4 151.7162 L336.2933 154.1995 L339.1867 156.7103 L342.08 159.2485 L344.9733 161.8141 L347.8667 164.4072 L350.76 167.0277 L353.6533 169.6757 L356.5467 172.3511 L359.44 175.0539 L362.3333 177.7842 L365.2267 180.5419 L368.12 183.3271 L371.0133 186.1397 L373.9067 188.9797 L376.8 191.8472 L379.6933 194.7421 L382.5867 197.6645 L385.48 200.6143 L388.3733 203.5915 L391.2667 206.5962 L394.16 209.6283 L397.0533 212.6879 L399.9467 215.7749 L402.84 218.8893 L405.7333 222.0312 L408.6267 225.2005 L411.52 228.3973 L414.4133 231.6215 L417.3067 234.8731 L420.2 238.1522 L423.0933 241.4587 L425.9867 244.7927 L428.88 248.1541 L431.7733 251.5429 L434.6667 254.9592 L437.56 258.403 L440.4533 261.8741 L443.3467 265.3727 L446.24 268.8987 L449.1333 272.4522 L452.0267 276.0331 L454.92 279.6415 L457.8133 283.2773 L460.7067 286.9406 L463.6 290.6312 L466.4933 294.3493 L469.3867 298.0949 L472.28 301.8679 L475.1733 305.6683 L478.0667 309.4962 L480.96 313.3515 L483.8533 317.2343 L486.7467 321.1445 L489.64 325.0821 L492.5333 329.0472 L495.4267 333.0397 L498.32 337.0597 L501.2133 341.1071 L504.1067 345.1819 L507 349.2842"
         style="fill:none; fill-rule:evenodd;"
         id="path3663" />
    </g>
  </g>
  <rect
     style="fill:none;stroke:none"
     id="rect3675"
     width="123.41463"
     height="21.463415"
     x="227.80489"
     y="6.829268" />
  <rect
     style="fill:none;stroke:none"
     id="rect3677"
     width="76.585365"
     height="20.487804"
     x="253.17073"
     y="397.56097" />
  <rect
     style="fill:none;stroke:none"
     id="rect3679"
     width="31.219513"
     height="119.51219"
     x="7.3170733"
     y="143.90244" />
  <rect
     style="fill:none;stroke:none"
     id="rect3681"
     width="33.170731"
     height="17.073172"
     x="73.658539"
     y="10.243902" />
  <rect
     style="fill:none;stroke:none"
     id="rect3683"
     width="25.365854"
     height="358.04877"
     x="44.390244"
     y="22.926828" />
  <rect
     style="fill:none;stroke:none"
     id="rect3685"
     width="465.36584"
     height="9.7560978"
     x="59.024391"
     y="384.87805" />
</svg>
