<?xml version="1.0" encoding="UTF-8" standalone="no"?>
<svg
   xmlns:dc="http://purl.org/dc/elements/1.1/"
   xmlns:cc="http://creativecommons.org/ns#"
   xmlns:rdf="http://www.w3.org/1999/02/22-rdf-syntax-ns#"
   xmlns:svg="http://www.w3.org/2000/svg"
   xmlns="http://www.w3.org/2000/svg"
   xmlns:sodipodi="http://sodipodi.sourceforge.net/DTD/sodipodi-0.dtd"
   xmlns:inkscape="http://www.inkscape.org/namespaces/inkscape"
   style="fill-opacity:1; color-rendering:auto; color-interpolation:auto; text-rendering:auto; stroke:black; stroke-linecap:square; stroke-miterlimit:10; shape-rendering:auto; stroke-opacity:1; fill:black; stroke-dasharray:none; font-weight:normal; stroke-width:1; font-family:'Dialog'; font-style:normal; stroke-linejoin:miter; font-size:12px; stroke-dashoffset:0; image-rendering:auto;"
   width="560"
   height="420"
   version="1.1"
   id="svg3141"
   sodipodi:docname="UnclampedMachNumber.svg"
   inkscape:version="0.92.4 (5da689c313, 2019-01-14)">
  <metadata
     id="metadata3145">
    <rdf:RDF>
      <cc:Work
         rdf:about="">
        <dc:format>image/svg+xml</dc:format>
        <dc:type
           rdf:resource="http://purl.org/dc/dcmitype/StillImage" />
      </cc:Work>
    </rdf:RDF>
  </metadata>
  <sodipodi:namedview
     pagecolor="#ffffff"
     bordercolor="#666666"
     borderopacity="1"
     objecttolerance="10"
     gridtolerance="10"
     guidetolerance="10"
     inkscape:pageopacity="0"
     inkscape:pageshadow="2"
     inkscape:window-width="1920"
     inkscape:window-height="1147"
     id="namedview3143"
     showgrid="false"
     inkscape:zoom="2.05"
     inkscape:cx="301.15137"
     inkscape:cy="202.62716"
     inkscape:window-x="-8"
     inkscape:window-y="-8"
     inkscape:window-maximized="1"
     inkscape:current-layer="svg3141" />
  <!--Generated by the Batik Graphics2D SVG Generator-->
  <defs
     id="genericDefs" />
  <g
     id="g3139">
    <defs
       id="defs1">
      <clipPath
         clipPathUnits="userSpaceOnUse"
         id="clipPath1">
        <path
           d="M0 0 L560 0 L560 420 L0 420 L0 0 Z"
           id="path2919" />
      </clipPath>
    </defs>
    <g
       style="fill:white; stroke:white;"
       id="g2925">
      <rect
         x="0"
         y="0"
         width="560"
         style="clip-path:url(#clipPath1); stroke:none;"
         height="420"
         clip-path="url(#clipPath1)"
         id="rect2923" />
    </g>
    <g
       style="fill:white; text-rendering:optimizeSpeed; color-rendering:optimizeSpeed; image-rendering:optimizeSpeed; shape-rendering:crispEdges; stroke:white; color-interpolation:sRGB;"
       id="g2931">
      <rect
         x="0"
         width="560"
         height="420"
         y="0"
         style="stroke:none;"
         id="rect2927" />
      <path
         style="stroke:none;"
         d="M73 374 L507 374 L507 31 L73 31 Z"
         id="path2929" />
    </g>
    <g
       style="stroke-linecap:butt; fill-opacity:0.149; fill:rgb(38,38,38); text-rendering:geometricPrecision; image-rendering:optimizeQuality; color-rendering:optimizeQuality; stroke-linejoin:round; stroke:rgb(38,38,38); color-interpolation:linearRGB; stroke-width:0.6667; stroke-opacity:0.149;"
       id="g2981">
      <line
         y2="31"
         style="fill:none;"
         x1="73"
         x2="73"
         y1="374"
         id="line2933" />
      <line
         y2="31"
         style="fill:none;"
         x1="217.6667"
         x2="217.6667"
         y1="374"
         id="line2935" />
      <line
         y2="31"
         style="fill:none;"
         x1="362.3333"
         x2="362.3333"
         y1="374"
         id="line2937" />
      <line
         y2="31"
         style="fill:none;"
         x1="507"
         x2="507"
         y1="374"
         id="line2939" />
      <line
         y2="374"
         style="fill:none;"
         x1="507"
         x2="73"
         y1="374"
         id="line2941" />
      <line
         y2="335.8889"
         style="fill:none;"
         x1="507"
         x2="73"
         y1="335.8889"
         id="line2943" />
      <line
         y2="297.7778"
         style="fill:none;"
         x1="507"
         x2="73"
         y1="297.7778"
         id="line2945" />
      <line
         y2="259.6667"
         style="fill:none;"
         x1="507"
         x2="73"
         y1="259.6667"
         id="line2947" />
      <line
         y2="221.5556"
         style="fill:none;"
         x1="507"
         x2="73"
         y1="221.5556"
         id="line2949" />
      <line
         y2="183.4444"
         style="fill:none;"
         x1="507"
         x2="73"
         y1="183.4444"
         id="line2951" />
      <line
         y2="145.3333"
         style="fill:none;"
         x1="507"
         x2="73"
         y1="145.3333"
         id="line2953" />
      <line
         y2="107.2222"
         style="fill:none;"
         x1="507"
         x2="73"
         y1="107.2222"
         id="line2955" />
      <line
         y2="69.1111"
         style="fill:none;"
         x1="507"
         x2="73"
         y1="69.1111"
         id="line2957" />
      <line
         y2="31"
         style="fill:none;"
         x1="507"
         x2="73"
         y1="31"
         id="line2959" />
      <line
         x1="73"
         x2="507"
         y1="374"
         style="stroke-linecap:square; fill-opacity:1; fill:none; stroke-opacity:1;"
         y2="374"
         id="line2961" />
      <line
         x1="73"
         x2="507"
         y1="31"
         style="stroke-linecap:square; fill-opacity:1; fill:none; stroke-opacity:1;"
         y2="31"
         id="line2963" />
      <line
         x1="73"
         x2="73"
         y1="374"
         style="stroke-linecap:square; fill-opacity:1; fill:none; stroke-opacity:1;"
         y2="369.66"
         id="line2965" />
      <line
         x1="217.6667"
         x2="217.6667"
         y1="374"
         style="stroke-linecap:square; fill-opacity:1; fill:none; stroke-opacity:1;"
         y2="369.66"
         id="line2967" />
      <line
         x1="362.3333"
         x2="362.3333"
         y1="374"
         style="stroke-linecap:square; fill-opacity:1; fill:none; stroke-opacity:1;"
         y2="369.66"
         id="line2969" />
      <line
         x1="507"
         x2="507"
         y1="374"
         style="stroke-linecap:square; fill-opacity:1; fill:none; stroke-opacity:1;"
         y2="369.66"
         id="line2971" />
      <line
         x1="73"
         x2="73"
         y1="31"
         style="stroke-linecap:square; fill-opacity:1; fill:none; stroke-opacity:1;"
         y2="35.34"
         id="line2973" />
      <line
         x1="217.6667"
         x2="217.6667"
         y1="31"
         style="stroke-linecap:square; fill-opacity:1; fill:none; stroke-opacity:1;"
         y2="35.34"
         id="line2975" />
      <line
         x1="362.3333"
         x2="362.3333"
         y1="31"
         style="stroke-linecap:square; fill-opacity:1; fill:none; stroke-opacity:1;"
         y2="35.34"
         id="line2977" />
      <line
         x1="507"
         x2="507"
         y1="31"
         style="stroke-linecap:square; fill-opacity:1; fill:none; stroke-opacity:1;"
         y2="35.34"
         id="line2979" />
    </g>
    <g
       transform="translate(73,379.3333)"
       style="font-size:13.3333px; fill:rgb(38,38,38); text-rendering:geometricPrecision; image-rendering:optimizeQuality; color-rendering:optimizeQuality; font-family:'SansSerif'; stroke:rgb(38,38,38); color-interpolation:linearRGB;"
       id="g2985">
      <path
         style="stroke:none;"
         d="M-3.4531 9.4062 Q-3.4531 7.7656 -3.1172 6.7578 Q-2.7812 5.75 -2.1094 5.2031 Q-1.4375 4.6562 -0.4219 4.6562 Q0.3281 4.6562 0.8906 4.9609 Q1.4531 5.2656 1.8203 5.8281 Q2.1875 6.3906 2.3984 7.2109 Q2.6094 8.0312 2.6094 9.4062 Q2.6094 11.0469 2.2734 12.0547 Q1.9375 13.0625 1.2656 13.6094 Q0.5938 14.1562 -0.4219 14.1562 Q-1.7656 14.1562 -2.5469 13.1875 Q-3.4531 12.0312 -3.4531 9.4062 ZM-2.2812 9.4062 Q-2.2812 11.7031 -1.75 12.4609 Q-1.2188 13.2188 -0.4219 13.2188 Q0.3594 13.2188 0.8984 12.4609 Q1.4375 11.7031 1.4375 9.4062 Q1.4375 7.1094 0.8984 6.3594 Q0.3594 5.6094 -0.4375 5.6094 Q-1.2188 5.6094 -1.7031 6.2656 Q-2.2812 7.125 -2.2812 9.4062 Z"
         id="path2983" />
    </g>
    <g
       transform="translate(217.6667,379.3333)"
       style="font-size:13.3333px; fill:rgb(38,38,38); text-rendering:geometricPrecision; image-rendering:optimizeQuality; color-rendering:optimizeQuality; font-family:'SansSerif'; stroke:rgb(38,38,38); color-interpolation:linearRGB;"
       id="g2989">
      <path
         style="stroke:none;"
         d="M-10.9531 11.5625 L-9.7656 11.4531 Q-9.625 12.3438 -9.1406 12.7812 Q-8.6562 13.2188 -7.9688 13.2188 Q-7.1406 13.2188 -6.5703 12.5938 Q-6 11.9688 -6 10.9531 Q-6 9.9688 -6.5469 9.4062 Q-7.0938 8.8438 -7.9844 8.8438 Q-8.5469 8.8438 -8.9922 9.0938 Q-9.4375 9.3438 -9.6875 9.7344 L-10.75 9.5938 L-9.8594 4.8281 L-5.2344 4.8281 L-5.2344 5.9062 L-8.9375 5.9062 L-9.4375 8.4062 Q-8.6094 7.8281 -7.6875 7.8281 Q-6.4688 7.8281 -5.6328 8.6719 Q-4.7969 9.5156 -4.7969 10.8438 Q-4.7969 12.1094 -5.5312 13.0312 Q-6.4219 14.1562 -7.9688 14.1562 Q-9.2344 14.1562 -10.0391 13.4453 Q-10.8438 12.7344 -10.9531 11.5625 ZM-3.5493 9.4062 Q-3.5493 7.7656 -3.2134 6.7578 Q-2.8775 5.75 -2.2056 5.2031 Q-1.5337 4.6562 -0.5181 4.6562 Q0.2319 4.6562 0.7944 4.9609 Q1.3569 5.2656 1.7241 5.8281 Q2.0913 6.3906 2.3022 7.2109 Q2.5132 8.0312 2.5132 9.4062 Q2.5132 11.0469 2.1772 12.0547 Q1.8413 13.0625 1.1694 13.6094 Q0.4975 14.1562 -0.5181 14.1562 Q-1.8618 14.1562 -2.6431 13.1875 Q-3.5493 12.0312 -3.5493 9.4062 ZM-2.3775 9.4062 Q-2.3775 11.7031 -1.8462 12.4609 Q-1.315 13.2188 -0.5181 13.2188 Q0.2632 13.2188 0.8022 12.4609 Q1.3413 11.7031 1.3413 9.4062 Q1.3413 7.1094 0.8022 6.3594 Q0.2632 5.6094 -0.5337 5.6094 Q-1.315 5.6094 -1.7993 6.2656 Q-2.3775 7.125 -2.3775 9.4062 ZM3.8544 9.4062 Q3.8544 7.7656 4.1904 6.7578 Q4.5263 5.75 5.1982 5.2031 Q5.8701 4.6562 6.8857 4.6562 Q7.6357 4.6562 8.1982 4.9609 Q8.7607 5.2656 9.1279 5.8281 Q9.4951 6.3906 9.706 7.2109 Q9.9169 8.0312 9.9169 9.4062 Q9.9169 11.0469 9.581 12.0547 Q9.2451 13.0625 8.5732 13.6094 Q7.9013 14.1562 6.8857 14.1562 Q5.5419 14.1562 4.7607 13.1875 Q3.8544 12.0312 3.8544 9.4062 ZM5.0263 9.4062 Q5.0263 11.7031 5.5576 12.4609 Q6.0888 13.2188 6.8857 13.2188 Q7.6669 13.2188 8.206 12.4609 Q8.7451 11.7031 8.7451 9.4062 Q8.7451 7.1094 8.206 6.3594 Q7.6669 5.6094 6.8701 5.6094 Q6.0888 5.6094 5.6044 6.2656 Q5.0263 7.125 5.0263 9.4062 Z"
         id="path2987" />
    </g>
    <g
       transform="translate(362.3333,379.3333)"
       style="font-size:13.3333px; fill:rgb(38,38,38); text-rendering:geometricPrecision; image-rendering:optimizeQuality; color-rendering:optimizeQuality; font-family:'SansSerif'; stroke:rgb(38,38,38); color-interpolation:linearRGB;"
       id="g2993">
      <path
         style="stroke:none;"
         d="M-10.1562 14 L-11.2969 14 L-11.2969 6.7188 Q-11.7188 7.1094 -12.3828 7.5078 Q-13.0469 7.9062 -13.5781 8.0938 L-13.5781 6.9844 Q-12.625 6.5469 -11.9062 5.9062 Q-11.1875 5.2656 -10.8906 4.6562 L-10.1562 4.6562 L-10.1562 14 ZM-7.0493 9.4062 Q-7.0493 7.7656 -6.7134 6.7578 Q-6.3775 5.75 -5.7056 5.2031 Q-5.0337 4.6562 -4.0181 4.6562 Q-3.2681 4.6562 -2.7056 4.9609 Q-2.1431 5.2656 -1.7759 5.8281 Q-1.4087 6.3906 -1.1978 7.2109 Q-0.9868 8.0312 -0.9868 9.4062 Q-0.9868 11.0469 -1.3228 12.0547 Q-1.6587 13.0625 -2.3306 13.6094 Q-3.0025 14.1562 -4.0181 14.1562 Q-5.3618 14.1562 -6.1431 13.1875 Q-7.0493 12.0312 -7.0493 9.4062 ZM-5.8775 9.4062 Q-5.8775 11.7031 -5.3462 12.4609 Q-4.815 13.2188 -4.0181 13.2188 Q-3.2368 13.2188 -2.6978 12.4609 Q-2.1587 11.7031 -2.1587 9.4062 Q-2.1587 7.1094 -2.6978 6.3594 Q-3.2368 5.6094 -4.0337 5.6094 Q-4.815 5.6094 -5.2993 6.2656 Q-5.8775 7.125 -5.8775 9.4062 ZM0.3544 9.4062 Q0.3544 7.7656 0.6904 6.7578 Q1.0263 5.75 1.6982 5.2031 Q2.3701 4.6562 3.3857 4.6562 Q4.1357 4.6562 4.6982 4.9609 Q5.2607 5.2656 5.6279 5.8281 Q5.9951 6.3906 6.206 7.2109 Q6.4169 8.0312 6.4169 9.4062 Q6.4169 11.0469 6.081 12.0547 Q5.7451 13.0625 5.0732 13.6094 Q4.4013 14.1562 3.3857 14.1562 Q2.0419 14.1562 1.2607 13.1875 Q0.3544 12.0312 0.3544 9.4062 ZM1.5263 9.4062 Q1.5263 11.7031 2.0576 12.4609 Q2.5888 13.2188 3.3857 13.2188 Q4.1669 13.2188 4.706 12.4609 Q5.2451 11.7031 5.2451 9.4062 Q5.2451 7.1094 4.706 6.3594 Q4.1669 5.6094 3.3701 5.6094 Q2.5888 5.6094 2.1044 6.2656 Q1.5263 7.125 1.5263 9.4062 ZM7.7582 9.4062 Q7.7582 7.7656 8.0941 6.7578 Q8.4301 5.75 9.102 5.2031 Q9.7738 4.6562 10.7895 4.6562 Q11.5395 4.6562 12.102 4.9609 Q12.6645 5.2656 13.0316 5.8281 Q13.3988 6.3906 13.6098 7.2109 Q13.8207 8.0312 13.8207 9.4062 Q13.8207 11.0469 13.4848 12.0547 Q13.1488 13.0625 12.477 13.6094 Q11.8051 14.1562 10.7895 14.1562 Q9.4457 14.1562 8.6645 13.1875 Q7.7582 12.0312 7.7582 9.4062 ZM8.9301 9.4062 Q8.9301 11.7031 9.4613 12.4609 Q9.9926 13.2188 10.7895 13.2188 Q11.5707 13.2188 12.1098 12.4609 Q12.6488 11.7031 12.6488 9.4062 Q12.6488 7.1094 12.1098 6.3594 Q11.5707 5.6094 10.7738 5.6094 Q9.9926 5.6094 9.5082 6.2656 Q8.9301 7.125 8.9301 9.4062 Z"
         id="path2991" />
    </g>
    <g
       transform="translate(507,379.3333)"
       style="font-size:13.3333px; fill:rgb(38,38,38); text-rendering:geometricPrecision; image-rendering:optimizeQuality; color-rendering:optimizeQuality; font-family:'SansSerif'; stroke:rgb(38,38,38); color-interpolation:linearRGB;"
       id="g2997">
      <path
         style="stroke:none;"
         d="M-10.1562 14 L-11.2969 14 L-11.2969 6.7188 Q-11.7188 7.1094 -12.3828 7.5078 Q-13.0469 7.9062 -13.5781 8.0938 L-13.5781 6.9844 Q-12.625 6.5469 -11.9062 5.9062 Q-11.1875 5.2656 -10.8906 4.6562 L-10.1562 4.6562 L-10.1562 14 ZM-7.0493 11.5625 L-5.8618 11.4531 Q-5.7212 12.3438 -5.2368 12.7812 Q-4.7525 13.2188 -4.065 13.2188 Q-3.2368 13.2188 -2.6665 12.5938 Q-2.0962 11.9688 -2.0962 10.9531 Q-2.0962 9.9688 -2.6431 9.4062 Q-3.19 8.8438 -4.0806 8.8438 Q-4.6431 8.8438 -5.0884 9.0938 Q-5.5337 9.3438 -5.7837 9.7344 L-6.8462 9.5938 L-5.9556 4.8281 L-1.3306 4.8281 L-1.3306 5.9062 L-5.0337 5.9062 L-5.5337 8.4062 Q-4.7056 7.8281 -3.7837 7.8281 Q-2.565 7.8281 -1.729 8.6719 Q-0.8931 9.5156 -0.8931 10.8438 Q-0.8931 12.1094 -1.6275 13.0312 Q-2.5181 14.1562 -4.065 14.1562 Q-5.3306 14.1562 -6.1353 13.4453 Q-6.94 12.7344 -7.0493 11.5625 ZM0.3544 9.4062 Q0.3544 7.7656 0.6904 6.7578 Q1.0263 5.75 1.6982 5.2031 Q2.3701 4.6562 3.3857 4.6562 Q4.1357 4.6562 4.6982 4.9609 Q5.2607 5.2656 5.6279 5.8281 Q5.9951 6.3906 6.206 7.2109 Q6.4169 8.0312 6.4169 9.4062 Q6.4169 11.0469 6.081 12.0547 Q5.7451 13.0625 5.0732 13.6094 Q4.4013 14.1562 3.3857 14.1562 Q2.0419 14.1562 1.2607 13.1875 Q0.3544 12.0312 0.3544 9.4062 ZM1.5263 9.4062 Q1.5263 11.7031 2.0576 12.4609 Q2.5888 13.2188 3.3857 13.2188 Q4.1669 13.2188 4.706 12.4609 Q5.2451 11.7031 5.2451 9.4062 Q5.2451 7.1094 4.706 6.3594 Q4.1669 5.6094 3.3701 5.6094 Q2.5888 5.6094 2.1044 6.2656 Q1.5263 7.125 1.5263 9.4062 ZM7.7582 9.4062 Q7.7582 7.7656 8.0941 6.7578 Q8.4301 5.75 9.102 5.2031 Q9.7738 4.6562 10.7895 4.6562 Q11.5395 4.6562 12.102 4.9609 Q12.6645 5.2656 13.0316 5.8281 Q13.3988 6.3906 13.6098 7.2109 Q13.8207 8.0312 13.8207 9.4062 Q13.8207 11.0469 13.4848 12.0547 Q13.1488 13.0625 12.477 13.6094 Q11.8051 14.1562 10.7895 14.1562 Q9.4457 14.1562 8.6645 13.1875 Q7.7582 12.0312 7.7582 9.4062 ZM8.9301 9.4062 Q8.9301 11.7031 9.4613 12.4609 Q9.9926 13.2188 10.7895 13.2188 Q11.5707 13.2188 12.1098 12.4609 Q12.6488 11.7031 12.6488 9.4062 Q12.6488 7.1094 12.1098 6.3594 Q11.5707 5.6094 10.7738 5.6094 Q9.9926 5.6094 9.5082 6.2656 Q8.9301 7.125 8.9301 9.4062 Z"
         id="path2995" />
    </g>
    <g
       transform="translate(290.0002,397.6667)"
       style="font-size:16px; fill:rgb(38,38,38); text-rendering:geometricPrecision; image-rendering:optimizeQuality; color-rendering:optimizeQuality; font-family:'mwa_cmmi10'; stroke:rgb(38,38,38); color-interpolation:linearRGB;"
       id="g3021">
      <path
         style="stroke:none;"
         d="M-32.4907 16.3462 Q-32.4438 15.9868 -32.2876 15.9868 Q-31.7094 15.9868 -31.3735 15.8931 Q-31.0376 15.7993 -30.9438 15.4399 L-30.2563 12.7212 Q-31.1626 13.6274 -32.0844 13.6274 Q-33.0844 13.6274 -33.6626 12.8618 Q-34.2407 12.0962 -34.2407 11.0493 Q-34.2407 10.0337 -33.7094 8.9321 Q-33.1782 7.8306 -32.2798 7.0962 Q-31.3813 6.3618 -30.3344 6.3618 Q-29.8501 6.3618 -29.4594 6.6509 Q-29.0688 6.9399 -28.8657 7.4243 Q-28.7719 7.2368 -28.3423 6.7993 Q-27.9126 6.3618 -27.7407 6.3618 Q-27.5688 6.3618 -27.5688 6.5649 L-29.8032 15.5024 Q-29.8501 15.7368 -29.8501 15.7837 Q-29.8501 15.9868 -28.8032 15.9868 Q-28.7251 15.9868 -28.6782 16.0493 Q-28.6313 16.1118 -28.6313 16.1899 Q-28.6938 16.4087 -28.7251 16.479 Q-28.7563 16.5493 -28.9126 16.5493 L-32.3344 16.5493 Q-32.4907 16.5493 -32.4907 16.3462 ZM-32.0532 13.1899 Q-31.4907 13.1899 -30.9516 12.7681 Q-30.4126 12.3462 -30.0219 11.7524 L-29.1157 8.1587 Q-29.2094 7.5962 -29.5298 7.1899 Q-29.8501 6.7837 -30.3657 6.7837 Q-30.9126 6.7837 -31.3735 7.2212 Q-31.8344 7.6587 -32.1626 8.2681 Q-32.4751 8.9087 -32.7563 10.0259 Q-33.0376 11.1431 -33.0376 11.7524 Q-33.0376 12.3149 -32.8032 12.7524 Q-32.5688 13.1899 -32.0532 13.1899 Z"
         id="path2999" />
      <path
         style="stroke:none;"
         d="M-27.2231 14.9493 Q-27.2231 14.918 -27.2153 14.8555 Q-27.2075 14.793 -27.1997 14.7305 Q-27.1918 14.668 -27.1918 14.6368 L-25.8325 9.1837 Q-25.7856 8.9962 -25.77 8.8868 Q-25.77 8.7149 -26.4887 8.7149 Q-26.5981 8.7149 -26.5981 8.5743 Q-26.5825 8.543 -26.5668 8.4727 Q-26.5512 8.4024 -26.52 8.3634 Q-26.4887 8.3243 -26.4418 8.3243 L-24.9575 8.2149 Q-24.8168 8.2149 -24.8168 8.3399 L-26.4106 14.668 Q-26.4887 14.8555 -26.4887 15.1993 Q-26.4887 15.668 -26.1606 15.668 Q-25.8325 15.668 -25.6606 15.2462 Q-25.4887 14.8243 -25.3481 14.2305 Q-25.3325 14.1524 -25.27 14.1524 L-25.1293 14.1524 Q-25.0981 14.1524 -25.0668 14.1915 Q-25.0356 14.2305 -25.0356 14.2618 Q-25.1606 14.793 -25.2622 15.1055 Q-25.3637 15.418 -25.5981 15.6915 Q-25.8325 15.9649 -26.1918 15.9649 Q-26.6293 15.9649 -26.9262 15.6759 Q-27.2231 15.3868 -27.2231 14.9493 Z"
         id="path3001" />
      <path
         style="stroke:none;"
         d="M-21.9265 15.9649 Q-22.4577 15.9649 -22.864 15.7149 Q-23.2702 15.4649 -23.489 15.0509 Q-23.7077 14.6368 -23.7077 14.1055 Q-23.7077 13.3555 -23.2937 12.6212 Q-22.8796 11.8868 -22.1843 11.4337 Q-21.489 10.9805 -20.739 10.9805 Q-20.3327 10.9805 -20.0124 11.1212 Q-19.6921 11.2618 -19.4499 11.5118 Q-19.2077 11.7618 -19.0827 12.0977 Q-18.9577 12.4337 -18.9577 12.8399 Q-18.9577 13.418 -19.1999 13.9727 Q-19.4421 14.5274 -19.864 14.9805 Q-20.2859 15.4337 -20.8327 15.6993 Q-21.3796 15.9649 -21.9265 15.9649 ZM-21.9109 15.668 Q-21.4265 15.668 -21.0202 15.3399 Q-20.614 15.0118 -20.3484 14.504 Q-20.0827 13.9962 -19.9499 13.4337 Q-19.8171 12.8712 -19.8171 12.4024 Q-19.8171 11.9337 -20.0515 11.5977 Q-20.2859 11.2618 -20.7546 11.2618 Q-21.3952 11.2618 -21.8796 11.8165 Q-22.364 12.3712 -22.6062 13.1368 Q-22.8484 13.9024 -22.8484 14.5274 Q-22.8484 15.0118 -22.6062 15.3399 Q-22.364 15.668 -21.9109 15.668 Z"
         id="path3003" />
      <path
         style="stroke:none;"
         d="M-17.4195 14.5274 Q-17.4195 15.0118 -17.1773 15.3399 Q-16.9351 15.668 -16.482 15.668 Q-15.8257 15.668 -15.2242 15.3712 Q-14.6226 15.0743 -14.232 14.543 Q-14.2007 14.5118 -14.1539 14.5118 Q-14.0914 14.5118 -14.0367 14.5743 Q-13.982 14.6368 -13.982 14.6837 Q-13.982 14.7305 -14.0132 14.7462 Q-14.4039 15.3087 -15.0914 15.6368 Q-15.7789 15.9649 -16.4976 15.9649 Q-17.0289 15.9649 -17.4351 15.7149 Q-17.8414 15.4649 -18.0601 15.043 Q-18.2789 14.6212 -18.2789 14.1055 Q-18.2789 13.3555 -17.8648 12.629 Q-17.4507 11.9024 -16.7632 11.4415 Q-16.0757 10.9805 -15.3101 10.9805 Q-14.8257 10.9805 -14.4273 11.2149 Q-14.0289 11.4493 -14.0289 11.918 Q-14.0289 12.2305 -14.2085 12.4415 Q-14.3882 12.6524 -14.6695 12.6524 Q-14.857 12.6524 -14.9742 12.543 Q-15.0914 12.4337 -15.0914 12.2462 Q-15.0914 11.9962 -14.9039 11.8087 Q-14.7164 11.6212 -14.4664 11.6212 L-14.4507 11.6212 Q-14.5757 11.4337 -14.8179 11.3477 Q-15.0601 11.2618 -15.3257 11.2618 Q-15.9664 11.2618 -16.4507 11.8165 Q-16.9351 12.3712 -17.1773 13.1368 Q-17.4195 13.9024 -17.4195 14.5274 Z"
         id="path3005" />
      <path
         style="stroke:none;"
         d="M-11.9633 15.9649 Q-12.6508 15.9649 -13.0492 15.4415 Q-13.4476 14.918 -13.4476 14.1993 Q-13.4476 13.4962 -13.0804 12.7384 Q-12.7133 11.9805 -12.0961 11.4805 Q-11.4789 10.9805 -10.7601 10.9805 Q-10.432 10.9805 -10.1742 11.1602 Q-9.9164 11.3399 -9.7758 11.6368 Q-9.6508 11.1993 -9.2914 11.1993 Q-9.1508 11.1993 -9.057 11.2852 Q-8.9633 11.3712 -8.9633 11.5118 Q-8.9633 11.543 -8.9633 11.5587 Q-8.9633 11.5743 -8.9789 11.5899 L-9.7445 14.668 Q-9.8226 14.9962 -9.8226 15.1993 Q-9.8226 15.668 -9.5101 15.668 Q-9.1664 15.668 -8.9789 15.2305 Q-8.7914 14.793 -8.682 14.2305 Q-8.6508 14.1524 -8.5883 14.1524 L-8.4476 14.1524 Q-8.4164 14.1524 -8.3851 14.1915 Q-8.3539 14.2305 -8.3539 14.2618 Q-8.557 15.0274 -8.7836 15.4962 Q-9.0101 15.9649 -9.5258 15.9649 Q-9.9008 15.9649 -10.182 15.7462 Q-10.4633 15.5274 -10.5414 15.168 Q-11.2445 15.9649 -11.9633 15.9649 ZM-11.9476 15.668 Q-11.5414 15.668 -11.1742 15.3712 Q-10.807 15.0743 -10.5414 14.668 Q-10.5258 14.668 -10.5258 14.6368 L-9.932 12.2462 L-9.9164 12.2149 Q-9.9789 11.8243 -10.1976 11.543 Q-10.4164 11.2618 -10.7914 11.2618 Q-11.1664 11.2618 -11.4867 11.5665 Q-11.807 11.8712 -12.0258 12.2774 Q-12.2289 12.7305 -12.432 13.4962 Q-12.6351 14.2618 -12.6351 14.6837 Q-12.6351 15.0587 -12.4711 15.3634 Q-12.307 15.668 -11.9476 15.668 Z"
         id="path3007" />
      <path
         style="stroke:none;"
         d="M-7.4649 14.9493 Q-7.4649 14.918 -7.4571 14.8555 Q-7.4493 14.793 -7.4415 14.7305 Q-7.4337 14.668 -7.4337 14.6368 L-6.0743 9.1837 Q-6.0274 8.9962 -6.0118 8.8868 Q-6.0118 8.7149 -6.7306 8.7149 Q-6.8399 8.7149 -6.8399 8.5743 Q-6.8243 8.543 -6.8087 8.4727 Q-6.7931 8.4024 -6.7618 8.3634 Q-6.7306 8.3243 -6.6837 8.3243 L-5.1993 8.2149 Q-5.0587 8.2149 -5.0587 8.3399 L-6.6524 14.668 Q-6.7306 14.8555 -6.7306 15.1993 Q-6.7306 15.668 -6.4024 15.668 Q-6.0743 15.668 -5.9024 15.2462 Q-5.7306 14.8243 -5.5899 14.2305 Q-5.5743 14.1524 -5.5118 14.1524 L-5.3712 14.1524 Q-5.3399 14.1524 -5.3087 14.1915 Q-5.2774 14.2305 -5.2774 14.2618 Q-5.4024 14.793 -5.504 15.1055 Q-5.6056 15.418 -5.8399 15.6915 Q-6.0743 15.9649 -6.4337 15.9649 Q-6.8712 15.9649 -7.1681 15.6759 Q-7.4649 15.3868 -7.4649 14.9493 Z"
         id="path3009" />
      <path
         style="stroke:none;"
         d="M-1.6965 17.4399 L-1.6965 1.4399 L0.491 1.4399 L0.491 2.0806 L-1.0558 2.0806 L-1.0558 16.7993 L0.491 16.7993 L0.491 17.4399 L-1.6965 17.4399 Z"
         id="path3011" />
      <path
         style="stroke:none;"
         d="M2.0917 13.1587 Q2.0917 13.0649 2.1074 13.0181 L3.3105 8.2524 Q3.4199 7.7993 3.4199 7.4712 Q3.4199 6.7837 2.9511 6.7837 Q2.4511 6.7837 2.2089 7.3774 Q1.9667 7.9712 1.748 8.8931 Q1.748 8.9399 1.7011 8.9634 Q1.6542 8.9868 1.6074 8.9868 L1.4199 8.9868 Q1.373 8.9868 1.3339 8.9321 Q1.2949 8.8774 1.2949 8.8306 Q1.4667 8.1274 1.623 7.6431 Q1.7792 7.1587 2.123 6.7603 Q2.4667 6.3618 2.9667 6.3618 Q3.5761 6.3618 4.0371 6.7446 Q4.498 7.1274 4.498 7.7056 Q4.9667 7.0806 5.6074 6.7212 Q6.248 6.3618 6.9667 6.3618 Q7.7324 6.3618 8.2792 6.7524 Q8.8261 7.1431 8.8261 7.8462 Q9.3261 7.1587 9.9824 6.7603 Q10.6386 6.3618 11.4199 6.3618 Q12.248 6.3618 12.7558 6.8149 Q13.2636 7.2681 13.2636 8.0962 Q13.2636 8.7524 12.9667 9.6821 Q12.6699 10.6118 12.2324 11.7524 Q12.0136 12.3149 12.0136 12.7212 Q12.0136 13.1899 12.3886 13.1899 Q13.0136 13.1899 13.4277 12.5181 Q13.8417 11.8462 14.0136 11.0806 Q14.0605 10.9868 14.1386 10.9868 L14.3261 10.9868 Q14.3886 10.9868 14.4355 11.0337 Q14.4824 11.0806 14.4824 11.1274 Q14.4824 11.1431 14.4667 11.1743 Q14.248 12.0806 13.7011 12.854 Q13.1542 13.6274 12.3417 13.6274 Q11.7792 13.6274 11.3808 13.2368 Q10.9824 12.8462 10.9824 12.2837 Q10.9824 12.0024 11.123 11.6587 Q11.5761 10.4556 11.873 9.5103 Q12.1699 8.5649 12.1699 7.8462 Q12.1699 7.4087 11.9902 7.0962 Q11.8105 6.7837 11.3886 6.7837 Q10.5136 6.7837 9.873 7.3149 Q9.2324 7.8462 8.7636 8.7368 Q8.7324 8.8931 8.7167 8.9712 L7.6855 13.0806 Q7.6386 13.2993 7.4433 13.4634 Q7.248 13.6274 7.0136 13.6274 Q6.8261 13.6274 6.6855 13.4946 Q6.5449 13.3618 6.5449 13.1587 Q6.5449 13.0649 6.5605 13.0181 L7.5761 8.9399 Q7.748 8.2837 7.748 7.8462 Q7.748 7.4087 7.5605 7.0962 Q7.373 6.7837 6.9355 6.7837 Q6.3574 6.7837 5.8652 7.0415 Q5.373 7.2993 5.0058 7.7212 Q4.6386 8.1431 4.3261 8.7368 L3.248 13.0806 Q3.1855 13.2993 2.998 13.4634 Q2.8105 13.6274 2.5761 13.6274 Q2.373 13.6274 2.2324 13.4946 Q2.0917 13.3618 2.0917 13.1587 Z"
         id="path3013" />
      <path
         style="stroke:none;"
         d="M15.8118 17.1274 Q15.8118 17.0806 15.8275 17.0649 L21.39 1.6274 Q21.4212 1.5337 21.4993 1.4868 Q21.5775 1.4399 21.6712 1.4399 Q21.8118 1.4399 21.9056 1.5259 Q21.9993 1.6118 21.9993 1.7524 L21.9993 1.8149 L16.4368 17.2524 Q16.3431 17.4399 16.1243 17.4399 Q15.9993 17.4399 15.9056 17.3462 Q15.8118 17.2524 15.8118 17.1274 Z"
         id="path3015" />
      <path
         style="stroke:none;"
         d="M24.2962 12.4556 Q24.7337 13.1899 26.0306 13.1899 Q26.5931 13.1899 27.1009 13.0024 Q27.6087 12.8149 27.9369 12.4321 Q28.265 12.0493 28.265 11.5024 Q28.265 11.0806 27.9681 10.8149 Q27.6712 10.5493 27.2494 10.4556 L26.3744 10.2837 Q25.7806 10.1431 25.3978 9.7368 Q25.015 9.3306 25.015 8.7524 Q25.015 8.0337 25.4056 7.4868 Q25.7962 6.9399 26.4291 6.6509 Q27.0619 6.3618 27.7337 6.3618 Q28.4681 6.3618 29.0384 6.7134 Q29.6087 7.0649 29.6087 7.7368 Q29.6087 8.1118 29.4056 8.3931 Q29.2025 8.6743 28.8275 8.6743 Q28.6244 8.6743 28.4681 8.5337 Q28.3119 8.3931 28.3119 8.1899 Q28.3119 8.0024 28.4212 7.8228 Q28.5306 7.6431 28.7025 7.5415 Q28.8744 7.4399 29.0619 7.4399 Q28.9212 7.0962 28.5384 6.9399 Q28.1556 6.7837 27.7025 6.7837 Q27.2962 6.7837 26.89 6.9478 Q26.4837 7.1118 26.2416 7.4243 Q25.9994 7.7368 25.9994 8.1743 Q25.9994 8.4556 26.2025 8.6743 Q26.4056 8.8931 26.7025 8.9868 L27.6244 9.1743 Q28.0775 9.2681 28.4447 9.5103 Q28.8119 9.7524 29.0306 10.1118 Q29.2494 10.4712 29.2494 10.9399 Q29.2494 11.5337 28.9134 12.1118 Q28.5775 12.6899 28.0931 13.0337 Q27.2494 13.6274 26.015 13.6274 Q25.1556 13.6274 24.4447 13.229 Q23.7337 12.8306 23.7337 12.0649 Q23.7337 11.6274 23.9916 11.2993 Q24.2494 10.9712 24.6869 10.9712 Q24.9369 10.9712 25.1166 11.1274 Q25.2962 11.2837 25.2962 11.5493 Q25.2962 11.9087 25.0228 12.1821 Q24.7494 12.4556 24.3744 12.4556 L24.2962 12.4556 Z"
         id="path3017" />
      <path
         style="stroke:none;"
         d="M30.765 17.4399 L30.765 16.7993 L32.3119 16.7993 L32.3119 2.0806 L30.765 2.0806 L30.765 1.4399 L32.9525 1.4399 L32.9525 17.4399 L30.765 17.4399 Z"
         id="path3019" />
    </g>
    <g
       style="fill:rgb(38,38,38); text-rendering:geometricPrecision; image-rendering:optimizeQuality; color-rendering:optimizeQuality; stroke-linejoin:round; stroke:rgb(38,38,38); color-interpolation:linearRGB; stroke-width:0.6667;"
       id="g3067">
      <line
         y2="31"
         style="fill:none;"
         x1="73"
         x2="73"
         y1="374"
         id="line3023" />
      <line
         y2="31"
         style="fill:none;"
         x1="507"
         x2="507"
         y1="374"
         id="line3025" />
      <line
         y2="374"
         style="fill:none;"
         x1="73"
         x2="77.34"
         y1="374"
         id="line3027" />
      <line
         y2="335.8889"
         style="fill:none;"
         x1="73"
         x2="77.34"
         y1="335.8889"
         id="line3029" />
      <line
         y2="297.7778"
         style="fill:none;"
         x1="73"
         x2="77.34"
         y1="297.7778"
         id="line3031" />
      <line
         y2="259.6667"
         style="fill:none;"
         x1="73"
         x2="77.34"
         y1="259.6667"
         id="line3033" />
      <line
         y2="221.5556"
         style="fill:none;"
         x1="73"
         x2="77.34"
         y1="221.5556"
         id="line3035" />
      <line
         y2="183.4444"
         style="fill:none;"
         x1="73"
         x2="77.34"
         y1="183.4444"
         id="line3037" />
      <line
         y2="145.3333"
         style="fill:none;"
         x1="73"
         x2="77.34"
         y1="145.3333"
         id="line3039" />
      <line
         y2="107.2222"
         style="fill:none;"
         x1="73"
         x2="77.34"
         y1="107.2222"
         id="line3041" />
      <line
         y2="69.1111"
         style="fill:none;"
         x1="73"
         x2="77.34"
         y1="69.1111"
         id="line3043" />
      <line
         y2="31"
         style="fill:none;"
         x1="73"
         x2="77.34"
         y1="31"
         id="line3045" />
      <line
         y2="374"
         style="fill:none;"
         x1="507"
         x2="502.66"
         y1="374"
         id="line3047" />
      <line
         y2="335.8889"
         style="fill:none;"
         x1="507"
         x2="502.66"
         y1="335.8889"
         id="line3049" />
      <line
         y2="297.7778"
         style="fill:none;"
         x1="507"
         x2="502.66"
         y1="297.7778"
         id="line3051" />
      <line
         y2="259.6667"
         style="fill:none;"
         x1="507"
         x2="502.66"
         y1="259.6667"
         id="line3053" />
      <line
         y2="221.5556"
         style="fill:none;"
         x1="507"
         x2="502.66"
         y1="221.5556"
         id="line3055" />
      <line
         y2="183.4444"
         style="fill:none;"
         x1="507"
         x2="502.66"
         y1="183.4444"
         id="line3057" />
      <line
         y2="145.3333"
         style="fill:none;"
         x1="507"
         x2="502.66"
         y1="145.3333"
         id="line3059" />
      <line
         y2="107.2222"
         style="fill:none;"
         x1="507"
         x2="502.66"
         y1="107.2222"
         id="line3061" />
      <line
         y2="69.1111"
         style="fill:none;"
         x1="507"
         x2="502.66"
         y1="69.1111"
         id="line3063" />
      <line
         y2="31"
         style="fill:none;"
         x1="507"
         x2="502.66"
         y1="31"
         id="line3065" />
    </g>
    <g
       transform="translate(67.6667,374)"
       style="font-size:13.3333px; fill:rgb(38,38,38); text-rendering:geometricPrecision; image-rendering:optimizeQuality; color-rendering:optimizeQuality; font-family:'SansSerif'; stroke:rgb(38,38,38); color-interpolation:linearRGB;"
       id="g3071">
      <path
         style="stroke:none;"
         d="M-26.5938 2.7031 L-26.5938 1.5625 L-23.0781 1.5625 L-23.0781 2.7031 L-26.5938 2.7031 ZM-18.3637 5.5 L-18.3637 3.2656 L-22.395 3.2656 L-22.395 2.2188 L-18.1606 -3.8125 L-17.2231 -3.8125 L-17.2231 2.2188 L-15.9575 2.2188 L-15.9575 3.2656 L-17.2231 3.2656 L-17.2231 5.5 L-18.3637 5.5 ZM-18.3637 2.2188 L-18.3637 -1.9688 L-21.2856 2.2188 L-18.3637 2.2188 ZM-14.6162 0.9062 Q-14.6162 -0.7344 -14.2802 -1.7422 Q-13.9443 -2.75 -13.2724 -3.2969 Q-12.6006 -3.8438 -11.5849 -3.8438 Q-10.8349 -3.8438 -10.2724 -3.5391 Q-9.7099 -3.2344 -9.3427 -2.6719 Q-8.9756 -2.1094 -8.7646 -1.2891 Q-8.5537 -0.4688 -8.5537 0.9062 Q-8.5537 2.5469 -8.8896 3.5547 Q-9.2256 4.5625 -9.8974 5.1094 Q-10.5693 5.6562 -11.5849 5.6562 Q-12.9287 5.6562 -13.7099 4.6875 Q-14.6162 3.5312 -14.6162 0.9062 ZM-13.4443 0.9062 Q-13.4443 3.2031 -12.9131 3.9609 Q-12.3818 4.7188 -11.5849 4.7188 Q-10.8037 4.7188 -10.2646 3.9609 Q-9.7256 3.2031 -9.7256 0.9062 Q-9.7256 -1.3906 -10.2646 -2.1406 Q-10.8037 -2.8906 -11.6006 -2.8906 Q-12.3818 -2.8906 -12.8662 -2.2344 Q-13.4443 -1.375 -13.4443 0.9062 ZM-7.2124 0.9062 Q-7.2124 -0.7344 -6.8765 -1.7422 Q-6.5405 -2.75 -5.8687 -3.2969 Q-5.1968 -3.8438 -4.1812 -3.8438 Q-3.4312 -3.8438 -2.8687 -3.5391 Q-2.3062 -3.2344 -1.939 -2.6719 Q-1.5718 -2.1094 -1.3608 -1.2891 Q-1.1499 -0.4688 -1.1499 0.9062 Q-1.1499 2.5469 -1.4858 3.5547 Q-1.8218 4.5625 -2.4937 5.1094 Q-3.1655 5.6562 -4.1812 5.6562 Q-5.5249 5.6562 -6.3062 4.6875 Q-7.2124 3.5312 -7.2124 0.9062 ZM-6.0405 0.9062 Q-6.0405 3.2031 -5.5093 3.9609 Q-4.978 4.7188 -4.1812 4.7188 Q-3.3999 4.7188 -2.8608 3.9609 Q-2.3218 3.2031 -2.3218 0.9062 Q-2.3218 -1.3906 -2.8608 -2.1406 Q-3.3999 -2.8906 -4.1968 -2.8906 Q-4.978 -2.8906 -5.4624 -2.2344 Q-6.0405 -1.375 -6.0405 0.9062 Z"
         id="path3069" />
    </g>
    <g
       transform="translate(67.6667,335.8889)"
       style="font-size:13.3333px; fill:rgb(38,38,38); text-rendering:geometricPrecision; image-rendering:optimizeQuality; color-rendering:optimizeQuality; font-family:'SansSerif'; stroke:rgb(38,38,38); color-interpolation:linearRGB;"
       id="g3075">
      <path
         style="stroke:none;"
         d="M-26.5938 2.7031 L-26.5938 1.5625 L-23.0781 1.5625 L-23.0781 2.7031 L-26.5938 2.7031 ZM-22.02 3.0469 L-20.8793 2.8906 Q-20.6762 3.8594 -20.2075 4.2891 Q-19.7387 4.7188 -19.0512 4.7188 Q-18.2543 4.7188 -17.6996 4.1641 Q-17.145 3.6094 -17.145 2.7812 Q-17.145 1.9844 -17.6528 1.4766 Q-18.1606 0.9688 -18.9575 0.9688 Q-19.2856 0.9688 -19.77 1.0938 L-19.645 0.0938 Q-19.52 0.1094 -19.4575 0.1094 Q-18.7231 0.1094 -18.1371 -0.2734 Q-17.5512 -0.6562 -17.5512 -1.4531 Q-17.5512 -2.0781 -17.9809 -2.4922 Q-18.4106 -2.9062 -19.0825 -2.9062 Q-19.7543 -2.9062 -20.1918 -2.4844 Q-20.6293 -2.0625 -20.77 -1.2344 L-21.9106 -1.4375 Q-21.6918 -2.5781 -20.9496 -3.2109 Q-20.2075 -3.8438 -19.1137 -3.8438 Q-18.3481 -3.8438 -17.7075 -3.5156 Q-17.0668 -3.1875 -16.7231 -2.625 Q-16.3793 -2.0625 -16.3793 -1.4219 Q-16.3793 -0.8281 -16.7075 -0.3281 Q-17.0356 0.1719 -17.6606 0.4531 Q-16.8481 0.6562 -16.3871 1.25 Q-15.9262 1.8438 -15.9262 2.75 Q-15.9262 3.9688 -16.8168 4.8203 Q-17.7075 5.6719 -19.0668 5.6719 Q-20.2856 5.6719 -21.0981 4.9375 Q-21.9106 4.2031 -22.02 3.0469 ZM-14.6162 0.9062 Q-14.6162 -0.7344 -14.2802 -1.7422 Q-13.9443 -2.75 -13.2724 -3.2969 Q-12.6006 -3.8438 -11.5849 -3.8438 Q-10.8349 -3.8438 -10.2724 -3.5391 Q-9.7099 -3.2344 -9.3427 -2.6719 Q-8.9756 -2.1094 -8.7646 -1.2891 Q-8.5537 -0.4688 -8.5537 0.9062 Q-8.5537 2.5469 -8.8896 3.5547 Q-9.2256 4.5625 -9.8974 5.1094 Q-10.5693 5.6562 -11.5849 5.6562 Q-12.9287 5.6562 -13.7099 4.6875 Q-14.6162 3.5312 -14.6162 0.9062 ZM-13.4443 0.9062 Q-13.4443 3.2031 -12.9131 3.9609 Q-12.3818 4.7188 -11.5849 4.7188 Q-10.8037 4.7188 -10.2646 3.9609 Q-9.7256 3.2031 -9.7256 0.9062 Q-9.7256 -1.3906 -10.2646 -2.1406 Q-10.8037 -2.8906 -11.6006 -2.8906 Q-12.3818 -2.8906 -12.8662 -2.2344 Q-13.4443 -1.375 -13.4443 0.9062 ZM-7.2124 0.9062 Q-7.2124 -0.7344 -6.8765 -1.7422 Q-6.5405 -2.75 -5.8687 -3.2969 Q-5.1968 -3.8438 -4.1812 -3.8438 Q-3.4312 -3.8438 -2.8687 -3.5391 Q-2.3062 -3.2344 -1.939 -2.6719 Q-1.5718 -2.1094 -1.3608 -1.2891 Q-1.1499 -0.4688 -1.1499 0.9062 Q-1.1499 2.5469 -1.4858 3.5547 Q-1.8218 4.5625 -2.4937 5.1094 Q-3.1655 5.6562 -4.1812 5.6562 Q-5.5249 5.6562 -6.3062 4.6875 Q-7.2124 3.5312 -7.2124 0.9062 ZM-6.0405 0.9062 Q-6.0405 3.2031 -5.5093 3.9609 Q-4.978 4.7188 -4.1812 4.7188 Q-3.3999 4.7188 -2.8608 3.9609 Q-2.3218 3.2031 -2.3218 0.9062 Q-2.3218 -1.3906 -2.8608 -2.1406 Q-3.3999 -2.8906 -4.1968 -2.8906 Q-4.978 -2.8906 -5.4624 -2.2344 Q-6.0405 -1.375 -6.0405 0.9062 Z"
         id="path3073" />
    </g>
    <g
       transform="translate(67.6667,297.7778)"
       style="font-size:13.3333px; fill:rgb(38,38,38); text-rendering:geometricPrecision; image-rendering:optimizeQuality; color-rendering:optimizeQuality; font-family:'SansSerif'; stroke:rgb(38,38,38); color-interpolation:linearRGB;"
       id="g3079">
      <path
         style="stroke:none;"
         d="M-26.5938 2.7031 L-26.5938 1.5625 L-23.0781 1.5625 L-23.0781 2.7031 L-26.5938 2.7031 ZM-16.02 4.4062 L-16.02 5.5 L-22.1762 5.5 Q-22.1918 5.0938 -22.0356 4.7031 Q-21.8012 4.0781 -21.2856 3.4688 Q-20.77 2.8594 -19.7856 2.0625 Q-18.27 0.8125 -17.7387 0.0859 Q-17.2075 -0.6406 -17.2075 -1.2812 Q-17.2075 -1.9688 -17.6918 -2.4297 Q-18.1762 -2.8906 -18.9575 -2.8906 Q-19.7856 -2.8906 -20.2778 -2.3984 Q-20.77 -1.9062 -20.7856 -1.0312 L-21.9575 -1.1562 Q-21.8325 -2.4688 -21.0512 -3.1562 Q-20.27 -3.8438 -18.9418 -3.8438 Q-17.5981 -3.8438 -16.8168 -3.1016 Q-16.0356 -2.3594 -16.0356 -1.2656 Q-16.0356 -0.7031 -16.2621 -0.1641 Q-16.4887 0.375 -17.02 0.9766 Q-17.5512 1.5781 -18.7856 2.6094 Q-19.8168 3.4688 -20.1059 3.7812 Q-20.395 4.0938 -20.5825 4.4062 L-16.02 4.4062 ZM-14.6162 0.9062 Q-14.6162 -0.7344 -14.2802 -1.7422 Q-13.9443 -2.75 -13.2724 -3.2969 Q-12.6006 -3.8438 -11.5849 -3.8438 Q-10.8349 -3.8438 -10.2724 -3.5391 Q-9.7099 -3.2344 -9.3427 -2.6719 Q-8.9756 -2.1094 -8.7646 -1.2891 Q-8.5537 -0.4688 -8.5537 0.9062 Q-8.5537 2.5469 -8.8896 3.5547 Q-9.2256 4.5625 -9.8974 5.1094 Q-10.5693 5.6562 -11.5849 5.6562 Q-12.9287 5.6562 -13.7099 4.6875 Q-14.6162 3.5312 -14.6162 0.9062 ZM-13.4443 0.9062 Q-13.4443 3.2031 -12.9131 3.9609 Q-12.3818 4.7188 -11.5849 4.7188 Q-10.8037 4.7188 -10.2646 3.9609 Q-9.7256 3.2031 -9.7256 0.9062 Q-9.7256 -1.3906 -10.2646 -2.1406 Q-10.8037 -2.8906 -11.6006 -2.8906 Q-12.3818 -2.8906 -12.8662 -2.2344 Q-13.4443 -1.375 -13.4443 0.9062 ZM-7.2124 0.9062 Q-7.2124 -0.7344 -6.8765 -1.7422 Q-6.5405 -2.75 -5.8687 -3.2969 Q-5.1968 -3.8438 -4.1812 -3.8438 Q-3.4312 -3.8438 -2.8687 -3.5391 Q-2.3062 -3.2344 -1.939 -2.6719 Q-1.5718 -2.1094 -1.3608 -1.2891 Q-1.1499 -0.4688 -1.1499 0.9062 Q-1.1499 2.5469 -1.4858 3.5547 Q-1.8218 4.5625 -2.4937 5.1094 Q-3.1655 5.6562 -4.1812 5.6562 Q-5.5249 5.6562 -6.3062 4.6875 Q-7.2124 3.5312 -7.2124 0.9062 ZM-6.0405 0.9062 Q-6.0405 3.2031 -5.5093 3.9609 Q-4.978 4.7188 -4.1812 4.7188 Q-3.3999 4.7188 -2.8608 3.9609 Q-2.3218 3.2031 -2.3218 0.9062 Q-2.3218 -1.3906 -2.8608 -2.1406 Q-3.3999 -2.8906 -4.1968 -2.8906 Q-4.978 -2.8906 -5.4624 -2.2344 Q-6.0405 -1.375 -6.0405 0.9062 Z"
         id="path3077" />
    </g>
    <g
       transform="translate(67.6667,259.6667)"
       style="font-size:13.3333px; fill:rgb(38,38,38); text-rendering:geometricPrecision; image-rendering:optimizeQuality; color-rendering:optimizeQuality; font-family:'SansSerif'; stroke:rgb(38,38,38); color-interpolation:linearRGB;"
       id="g3083">
      <path
         style="stroke:none;"
         d="M-26.5938 2.7031 L-26.5938 1.5625 L-23.0781 1.5625 L-23.0781 2.7031 L-26.5938 2.7031 ZM-17.7231 5.5 L-18.8637 5.5 L-18.8637 -1.7812 Q-19.2856 -1.3906 -19.9496 -0.9922 Q-20.6137 -0.5938 -21.145 -0.4062 L-21.145 -1.5156 Q-20.1918 -1.9531 -19.4731 -2.5938 Q-18.7543 -3.2344 -18.4575 -3.8438 L-17.7231 -3.8438 L-17.7231 5.5 ZM-14.6162 0.9062 Q-14.6162 -0.7344 -14.2802 -1.7422 Q-13.9443 -2.75 -13.2724 -3.2969 Q-12.6006 -3.8438 -11.5849 -3.8438 Q-10.8349 -3.8438 -10.2724 -3.5391 Q-9.7099 -3.2344 -9.3427 -2.6719 Q-8.9756 -2.1094 -8.7646 -1.2891 Q-8.5537 -0.4688 -8.5537 0.9062 Q-8.5537 2.5469 -8.8896 3.5547 Q-9.2256 4.5625 -9.8974 5.1094 Q-10.5693 5.6562 -11.5849 5.6562 Q-12.9287 5.6562 -13.7099 4.6875 Q-14.6162 3.5312 -14.6162 0.9062 ZM-13.4443 0.9062 Q-13.4443 3.2031 -12.9131 3.9609 Q-12.3818 4.7188 -11.5849 4.7188 Q-10.8037 4.7188 -10.2646 3.9609 Q-9.7256 3.2031 -9.7256 0.9062 Q-9.7256 -1.3906 -10.2646 -2.1406 Q-10.8037 -2.8906 -11.6006 -2.8906 Q-12.3818 -2.8906 -12.8662 -2.2344 Q-13.4443 -1.375 -13.4443 0.9062 ZM-7.2124 0.9062 Q-7.2124 -0.7344 -6.8765 -1.7422 Q-6.5405 -2.75 -5.8687 -3.2969 Q-5.1968 -3.8438 -4.1812 -3.8438 Q-3.4312 -3.8438 -2.8687 -3.5391 Q-2.3062 -3.2344 -1.939 -2.6719 Q-1.5718 -2.1094 -1.3608 -1.2891 Q-1.1499 -0.4688 -1.1499 0.9062 Q-1.1499 2.5469 -1.4858 3.5547 Q-1.8218 4.5625 -2.4937 5.1094 Q-3.1655 5.6562 -4.1812 5.6562 Q-5.5249 5.6562 -6.3062 4.6875 Q-7.2124 3.5312 -7.2124 0.9062 ZM-6.0405 0.9062 Q-6.0405 3.2031 -5.5093 3.9609 Q-4.978 4.7188 -4.1812 4.7188 Q-3.3999 4.7188 -2.8608 3.9609 Q-2.3218 3.2031 -2.3218 0.9062 Q-2.3218 -1.3906 -2.8608 -2.1406 Q-3.3999 -2.8906 -4.1968 -2.8906 Q-4.978 -2.8906 -5.4624 -2.2344 Q-6.0405 -1.375 -6.0405 0.9062 Z"
         id="path3081" />
    </g>
    <g
       transform="translate(67.6667,221.5556)"
       style="font-size:13.3333px; fill:rgb(38,38,38); text-rendering:geometricPrecision; image-rendering:optimizeQuality; color-rendering:optimizeQuality; font-family:'SansSerif'; stroke:rgb(38,38,38); color-interpolation:linearRGB;"
       id="g3087">
      <path
         style="stroke:none;"
         d="M-7.4531 0.9062 Q-7.4531 -0.7344 -7.1172 -1.7422 Q-6.7812 -2.75 -6.1094 -3.2969 Q-5.4375 -3.8438 -4.4219 -3.8438 Q-3.6719 -3.8438 -3.1094 -3.5391 Q-2.5469 -3.2344 -2.1797 -2.6719 Q-1.8125 -2.1094 -1.6016 -1.2891 Q-1.3906 -0.4688 -1.3906 0.9062 Q-1.3906 2.5469 -1.7266 3.5547 Q-2.0625 4.5625 -2.7344 5.1094 Q-3.4062 5.6562 -4.4219 5.6562 Q-5.7656 5.6562 -6.5469 4.6875 Q-7.4531 3.5312 -7.4531 0.9062 ZM-6.2812 0.9062 Q-6.2812 3.2031 -5.75 3.9609 Q-5.2188 4.7188 -4.4219 4.7188 Q-3.6406 4.7188 -3.1016 3.9609 Q-2.5625 3.2031 -2.5625 0.9062 Q-2.5625 -1.3906 -3.1016 -2.1406 Q-3.6406 -2.8906 -4.4375 -2.8906 Q-5.2188 -2.8906 -5.7031 -2.2344 Q-6.2812 -1.375 -6.2812 0.9062 Z"
         id="path3085" />
    </g>
    <g
       transform="translate(67.6667,183.4444)"
       style="font-size:13.3333px; fill:rgb(38,38,38); text-rendering:geometricPrecision; image-rendering:optimizeQuality; color-rendering:optimizeQuality; font-family:'SansSerif'; stroke:rgb(38,38,38); color-interpolation:linearRGB;"
       id="g3091">
      <path
         style="stroke:none;"
         d="M-18.1562 5.5 L-19.2969 5.5 L-19.2969 -1.7812 Q-19.7188 -1.3906 -20.3828 -0.9922 Q-21.0469 -0.5938 -21.5781 -0.4062 L-21.5781 -1.5156 Q-20.625 -1.9531 -19.9062 -2.5938 Q-19.1875 -3.2344 -18.8906 -3.8438 L-18.1562 -3.8438 L-18.1562 5.5 ZM-15.0493 0.9062 Q-15.0493 -0.7344 -14.7134 -1.7422 Q-14.3775 -2.75 -13.7056 -3.2969 Q-13.0337 -3.8438 -12.0181 -3.8438 Q-11.2681 -3.8438 -10.7056 -3.5391 Q-10.1431 -3.2344 -9.7759 -2.6719 Q-9.4087 -2.1094 -9.1978 -1.2891 Q-8.9868 -0.4688 -8.9868 0.9062 Q-8.9868 2.5469 -9.3228 3.5547 Q-9.6587 4.5625 -10.3306 5.1094 Q-11.0025 5.6562 -12.0181 5.6562 Q-13.3618 5.6562 -14.1431 4.6875 Q-15.0493 3.5312 -15.0493 0.9062 ZM-13.8775 0.9062 Q-13.8775 3.2031 -13.3462 3.9609 Q-12.815 4.7188 -12.0181 4.7188 Q-11.2368 4.7188 -10.6978 3.9609 Q-10.1587 3.2031 -10.1587 0.9062 Q-10.1587 -1.3906 -10.6978 -2.1406 Q-11.2368 -2.8906 -12.0337 -2.8906 Q-12.815 -2.8906 -13.2993 -2.2344 Q-13.8775 -1.375 -13.8775 0.9062 ZM-7.6456 0.9062 Q-7.6456 -0.7344 -7.3096 -1.7422 Q-6.9737 -2.75 -6.3018 -3.2969 Q-5.6299 -3.8438 -4.6143 -3.8438 Q-3.8643 -3.8438 -3.3018 -3.5391 Q-2.7393 -3.2344 -2.3721 -2.6719 Q-2.0049 -2.1094 -1.794 -1.2891 Q-1.5831 -0.4688 -1.5831 0.9062 Q-1.5831 2.5469 -1.919 3.5547 Q-2.2549 4.5625 -2.9268 5.1094 Q-3.5987 5.6562 -4.6143 5.6562 Q-5.9581 5.6562 -6.7393 4.6875 Q-7.6456 3.5312 -7.6456 0.9062 ZM-6.4737 0.9062 Q-6.4737 3.2031 -5.9424 3.9609 Q-5.4112 4.7188 -4.6143 4.7188 Q-3.8331 4.7188 -3.294 3.9609 Q-2.7549 3.2031 -2.7549 0.9062 Q-2.7549 -1.3906 -3.294 -2.1406 Q-3.8331 -2.8906 -4.6299 -2.8906 Q-5.4112 -2.8906 -5.8956 -2.2344 Q-6.4737 -1.375 -6.4737 0.9062 Z"
         id="path3089" />
    </g>
    <g
       transform="translate(67.6667,145.3333)"
       style="font-size:13.3333px; fill:rgb(38,38,38); text-rendering:geometricPrecision; image-rendering:optimizeQuality; color-rendering:optimizeQuality; font-family:'SansSerif'; stroke:rgb(38,38,38); color-interpolation:linearRGB;"
       id="g3095">
      <path
         style="stroke:none;"
         d="M-16.4531 4.4062 L-16.4531 5.5 L-22.6094 5.5 Q-22.625 5.0938 -22.4688 4.7031 Q-22.2344 4.0781 -21.7188 3.4688 Q-21.2031 2.8594 -20.2188 2.0625 Q-18.7031 0.8125 -18.1719 0.0859 Q-17.6406 -0.6406 -17.6406 -1.2812 Q-17.6406 -1.9688 -18.125 -2.4297 Q-18.6094 -2.8906 -19.3906 -2.8906 Q-20.2188 -2.8906 -20.7109 -2.3984 Q-21.2031 -1.9062 -21.2188 -1.0312 L-22.3906 -1.1562 Q-22.2656 -2.4688 -21.4844 -3.1562 Q-20.7031 -3.8438 -19.375 -3.8438 Q-18.0312 -3.8438 -17.25 -3.1016 Q-16.4688 -2.3594 -16.4688 -1.2656 Q-16.4688 -0.7031 -16.6953 -0.1641 Q-16.9219 0.375 -17.4531 0.9766 Q-17.9844 1.5781 -19.2188 2.6094 Q-20.25 3.4688 -20.5391 3.7812 Q-20.8281 4.0938 -21.0156 4.4062 L-16.4531 4.4062 ZM-15.0493 0.9062 Q-15.0493 -0.7344 -14.7134 -1.7422 Q-14.3775 -2.75 -13.7056 -3.2969 Q-13.0337 -3.8438 -12.0181 -3.8438 Q-11.2681 -3.8438 -10.7056 -3.5391 Q-10.1431 -3.2344 -9.7759 -2.6719 Q-9.4087 -2.1094 -9.1978 -1.2891 Q-8.9868 -0.4688 -8.9868 0.9062 Q-8.9868 2.5469 -9.3228 3.5547 Q-9.6587 4.5625 -10.3306 5.1094 Q-11.0025 5.6562 -12.0181 5.6562 Q-13.3618 5.6562 -14.1431 4.6875 Q-15.0493 3.5312 -15.0493 0.9062 ZM-13.8775 0.9062 Q-13.8775 3.2031 -13.3462 3.9609 Q-12.815 4.7188 -12.0181 4.7188 Q-11.2368 4.7188 -10.6978 3.9609 Q-10.1587 3.2031 -10.1587 0.9062 Q-10.1587 -1.3906 -10.6978 -2.1406 Q-11.2368 -2.8906 -12.0337 -2.8906 Q-12.815 -2.8906 -13.2993 -2.2344 Q-13.8775 -1.375 -13.8775 0.9062 ZM-7.6456 0.9062 Q-7.6456 -0.7344 -7.3096 -1.7422 Q-6.9737 -2.75 -6.3018 -3.2969 Q-5.6299 -3.8438 -4.6143 -3.8438 Q-3.8643 -3.8438 -3.3018 -3.5391 Q-2.7393 -3.2344 -2.3721 -2.6719 Q-2.0049 -2.1094 -1.794 -1.2891 Q-1.5831 -0.4688 -1.5831 0.9062 Q-1.5831 2.5469 -1.919 3.5547 Q-2.2549 4.5625 -2.9268 5.1094 Q-3.5987 5.6562 -4.6143 5.6562 Q-5.9581 5.6562 -6.7393 4.6875 Q-7.6456 3.5312 -7.6456 0.9062 ZM-6.4737 0.9062 Q-6.4737 3.2031 -5.9424 3.9609 Q-5.4112 4.7188 -4.6143 4.7188 Q-3.8331 4.7188 -3.294 3.9609 Q-2.7549 3.2031 -2.7549 0.9062 Q-2.7549 -1.3906 -3.294 -2.1406 Q-3.8331 -2.8906 -4.6299 -2.8906 Q-5.4112 -2.8906 -5.8956 -2.2344 Q-6.4737 -1.375 -6.4737 0.9062 Z"
         id="path3093" />
    </g>
    <g
       transform="translate(67.6667,107.2222)"
       style="font-size:13.3333px; fill:rgb(38,38,38); text-rendering:geometricPrecision; image-rendering:optimizeQuality; color-rendering:optimizeQuality; font-family:'SansSerif'; stroke:rgb(38,38,38); color-interpolation:linearRGB;"
       id="g3099">
      <path
         style="stroke:none;"
         d="M-22.4531 3.0469 L-21.3125 2.8906 Q-21.1094 3.8594 -20.6406 4.2891 Q-20.1719 4.7188 -19.4844 4.7188 Q-18.6875 4.7188 -18.1328 4.1641 Q-17.5781 3.6094 -17.5781 2.7812 Q-17.5781 1.9844 -18.0859 1.4766 Q-18.5938 0.9688 -19.3906 0.9688 Q-19.7188 0.9688 -20.2031 1.0938 L-20.0781 0.0938 Q-19.9531 0.1094 -19.8906 0.1094 Q-19.1562 0.1094 -18.5703 -0.2734 Q-17.9844 -0.6562 -17.9844 -1.4531 Q-17.9844 -2.0781 -18.4141 -2.4922 Q-18.8438 -2.9062 -19.5156 -2.9062 Q-20.1875 -2.9062 -20.625 -2.4844 Q-21.0625 -2.0625 -21.2031 -1.2344 L-22.3438 -1.4375 Q-22.125 -2.5781 -21.3828 -3.2109 Q-20.6406 -3.8438 -19.5469 -3.8438 Q-18.7812 -3.8438 -18.1406 -3.5156 Q-17.5 -3.1875 -17.1562 -2.625 Q-16.8125 -2.0625 -16.8125 -1.4219 Q-16.8125 -0.8281 -17.1406 -0.3281 Q-17.4688 0.1719 -18.0938 0.4531 Q-17.2812 0.6562 -16.8203 1.25 Q-16.3594 1.8438 -16.3594 2.75 Q-16.3594 3.9688 -17.25 4.8203 Q-18.1406 5.6719 -19.5 5.6719 Q-20.7188 5.6719 -21.5312 4.9375 Q-22.3438 4.2031 -22.4531 3.0469 ZM-15.0493 0.9062 Q-15.0493 -0.7344 -14.7134 -1.7422 Q-14.3775 -2.75 -13.7056 -3.2969 Q-13.0337 -3.8438 -12.0181 -3.8438 Q-11.2681 -3.8438 -10.7056 -3.5391 Q-10.1431 -3.2344 -9.7759 -2.6719 Q-9.4087 -2.1094 -9.1978 -1.2891 Q-8.9868 -0.4688 -8.9868 0.9062 Q-8.9868 2.5469 -9.3228 3.5547 Q-9.6587 4.5625 -10.3306 5.1094 Q-11.0025 5.6562 -12.0181 5.6562 Q-13.3618 5.6562 -14.1431 4.6875 Q-15.0493 3.5312 -15.0493 0.9062 ZM-13.8775 0.9062 Q-13.8775 3.2031 -13.3462 3.9609 Q-12.815 4.7188 -12.0181 4.7188 Q-11.2368 4.7188 -10.6978 3.9609 Q-10.1587 3.2031 -10.1587 0.9062 Q-10.1587 -1.3906 -10.6978 -2.1406 Q-11.2368 -2.8906 -12.0337 -2.8906 Q-12.815 -2.8906 -13.2993 -2.2344 Q-13.8775 -1.375 -13.8775 0.9062 ZM-7.6456 0.9062 Q-7.6456 -0.7344 -7.3096 -1.7422 Q-6.9737 -2.75 -6.3018 -3.2969 Q-5.6299 -3.8438 -4.6143 -3.8438 Q-3.8643 -3.8438 -3.3018 -3.5391 Q-2.7393 -3.2344 -2.3721 -2.6719 Q-2.0049 -2.1094 -1.794 -1.2891 Q-1.5831 -0.4688 -1.5831 0.9062 Q-1.5831 2.5469 -1.919 3.5547 Q-2.2549 4.5625 -2.9268 5.1094 Q-3.5987 5.6562 -4.6143 5.6562 Q-5.9581 5.6562 -6.7393 4.6875 Q-7.6456 3.5312 -7.6456 0.9062 ZM-6.4737 0.9062 Q-6.4737 3.2031 -5.9424 3.9609 Q-5.4112 4.7188 -4.6143 4.7188 Q-3.8331 4.7188 -3.294 3.9609 Q-2.7549 3.2031 -2.7549 0.9062 Q-2.7549 -1.3906 -3.294 -2.1406 Q-3.8331 -2.8906 -4.6299 -2.8906 Q-5.4112 -2.8906 -5.8956 -2.2344 Q-6.4737 -1.375 -6.4737 0.9062 Z"
         id="path3097" />
    </g>
    <g
       transform="translate(67.6667,69.1111)"
       style="font-size:13.3333px; fill:rgb(38,38,38); text-rendering:geometricPrecision; image-rendering:optimizeQuality; color-rendering:optimizeQuality; font-family:'SansSerif'; stroke:rgb(38,38,38); color-interpolation:linearRGB;"
       id="g3103">
      <path
         style="stroke:none;"
         d="M-18.7969 5.5 L-18.7969 3.2656 L-22.8281 3.2656 L-22.8281 2.2188 L-18.5938 -3.8125 L-17.6562 -3.8125 L-17.6562 2.2188 L-16.3906 2.2188 L-16.3906 3.2656 L-17.6562 3.2656 L-17.6562 5.5 L-18.7969 5.5 ZM-18.7969 2.2188 L-18.7969 -1.9688 L-21.7188 2.2188 L-18.7969 2.2188 ZM-15.0493 0.9062 Q-15.0493 -0.7344 -14.7134 -1.7422 Q-14.3775 -2.75 -13.7056 -3.2969 Q-13.0337 -3.8438 -12.0181 -3.8438 Q-11.2681 -3.8438 -10.7056 -3.5391 Q-10.1431 -3.2344 -9.7759 -2.6719 Q-9.4087 -2.1094 -9.1978 -1.2891 Q-8.9868 -0.4688 -8.9868 0.9062 Q-8.9868 2.5469 -9.3228 3.5547 Q-9.6587 4.5625 -10.3306 5.1094 Q-11.0025 5.6562 -12.0181 5.6562 Q-13.3618 5.6562 -14.1431 4.6875 Q-15.0493 3.5312 -15.0493 0.9062 ZM-13.8775 0.9062 Q-13.8775 3.2031 -13.3462 3.9609 Q-12.815 4.7188 -12.0181 4.7188 Q-11.2368 4.7188 -10.6978 3.9609 Q-10.1587 3.2031 -10.1587 0.9062 Q-10.1587 -1.3906 -10.6978 -2.1406 Q-11.2368 -2.8906 -12.0337 -2.8906 Q-12.815 -2.8906 -13.2993 -2.2344 Q-13.8775 -1.375 -13.8775 0.9062 ZM-7.6456 0.9062 Q-7.6456 -0.7344 -7.3096 -1.7422 Q-6.9737 -2.75 -6.3018 -3.2969 Q-5.6299 -3.8438 -4.6143 -3.8438 Q-3.8643 -3.8438 -3.3018 -3.5391 Q-2.7393 -3.2344 -2.3721 -2.6719 Q-2.0049 -2.1094 -1.794 -1.2891 Q-1.5831 -0.4688 -1.5831 0.9062 Q-1.5831 2.5469 -1.919 3.5547 Q-2.2549 4.5625 -2.9268 5.1094 Q-3.5987 5.6562 -4.6143 5.6562 Q-5.9581 5.6562 -6.7393 4.6875 Q-7.6456 3.5312 -7.6456 0.9062 ZM-6.4737 0.9062 Q-6.4737 3.2031 -5.9424 3.9609 Q-5.4112 4.7188 -4.6143 4.7188 Q-3.8331 4.7188 -3.294 3.9609 Q-2.7549 3.2031 -2.7549 0.9062 Q-2.7549 -1.3906 -3.294 -2.1406 Q-3.8331 -2.8906 -4.6299 -2.8906 Q-5.4112 -2.8906 -5.8956 -2.2344 Q-6.4737 -1.375 -6.4737 0.9062 Z"
         id="path3101" />
    </g>
    <g
       transform="translate(67.6667,31)"
       style="font-size:13.3333px; fill:rgb(38,38,38); text-rendering:geometricPrecision; image-rendering:optimizeQuality; color-rendering:optimizeQuality; font-family:'SansSerif'; stroke:rgb(38,38,38); color-interpolation:linearRGB;"
       id="g3107">
      <path
         style="stroke:none;"
         d="M-22.4531 3.0625 L-21.2656 2.9531 Q-21.125 3.8438 -20.6406 4.2812 Q-20.1562 4.7188 -19.4688 4.7188 Q-18.6406 4.7188 -18.0703 4.0938 Q-17.5 3.4688 -17.5 2.4531 Q-17.5 1.4688 -18.0469 0.9062 Q-18.5938 0.3438 -19.4844 0.3438 Q-20.0469 0.3438 -20.4922 0.5938 Q-20.9375 0.8438 -21.1875 1.2344 L-22.25 1.0938 L-21.3594 -3.6719 L-16.7344 -3.6719 L-16.7344 -2.5938 L-20.4375 -2.5938 L-20.9375 -0.0938 Q-20.1094 -0.6719 -19.1875 -0.6719 Q-17.9688 -0.6719 -17.1328 0.1719 Q-16.2969 1.0156 -16.2969 2.3438 Q-16.2969 3.6094 -17.0312 4.5312 Q-17.9219 5.6562 -19.4688 5.6562 Q-20.7344 5.6562 -21.5391 4.9453 Q-22.3438 4.2344 -22.4531 3.0625 ZM-15.0493 0.9062 Q-15.0493 -0.7344 -14.7134 -1.7422 Q-14.3775 -2.75 -13.7056 -3.2969 Q-13.0337 -3.8438 -12.0181 -3.8438 Q-11.2681 -3.8438 -10.7056 -3.5391 Q-10.1431 -3.2344 -9.7759 -2.6719 Q-9.4087 -2.1094 -9.1978 -1.2891 Q-8.9868 -0.4688 -8.9868 0.9062 Q-8.9868 2.5469 -9.3228 3.5547 Q-9.6587 4.5625 -10.3306 5.1094 Q-11.0025 5.6562 -12.0181 5.6562 Q-13.3618 5.6562 -14.1431 4.6875 Q-15.0493 3.5312 -15.0493 0.9062 ZM-13.8775 0.9062 Q-13.8775 3.2031 -13.3462 3.9609 Q-12.815 4.7188 -12.0181 4.7188 Q-11.2368 4.7188 -10.6978 3.9609 Q-10.1587 3.2031 -10.1587 0.9062 Q-10.1587 -1.3906 -10.6978 -2.1406 Q-11.2368 -2.8906 -12.0337 -2.8906 Q-12.815 -2.8906 -13.2993 -2.2344 Q-13.8775 -1.375 -13.8775 0.9062 ZM-7.6456 0.9062 Q-7.6456 -0.7344 -7.3096 -1.7422 Q-6.9737 -2.75 -6.3018 -3.2969 Q-5.6299 -3.8438 -4.6143 -3.8438 Q-3.8643 -3.8438 -3.3018 -3.5391 Q-2.7393 -3.2344 -2.3721 -2.6719 Q-2.0049 -2.1094 -1.794 -1.2891 Q-1.5831 -0.4688 -1.5831 0.9062 Q-1.5831 2.5469 -1.919 3.5547 Q-2.2549 4.5625 -2.9268 5.1094 Q-3.5987 5.6562 -4.6143 5.6562 Q-5.9581 5.6562 -6.7393 4.6875 Q-7.6456 3.5312 -7.6456 0.9062 ZM-6.4737 0.9062 Q-6.4737 3.2031 -5.9424 3.9609 Q-5.4112 4.7188 -4.6143 4.7188 Q-3.8331 4.7188 -3.294 3.9609 Q-2.7549 3.2031 -2.7549 0.9062 Q-2.7549 -1.3906 -3.294 -2.1406 Q-3.8331 -2.8906 -4.6299 -2.8906 Q-5.4112 -2.8906 -5.8956 -2.2344 Q-6.4737 -1.375 -6.4737 0.9062 Z"
         id="path3105" />
    </g>
    <g
       transform="translate(36.6667,202.4998) rotate(-90)"
       style="font-size:21.3333px; fill:rgb(38,38,38); text-rendering:geometricPrecision; image-rendering:optimizeQuality; color-rendering:optimizeQuality; font-family:'mwa_cmmi10'; stroke:rgb(38,38,38); color-interpolation:linearRGB;"
       id="g3129">
      <path
         style="stroke:none;"
         d="M-39.5882 -7.6801 Q-39.7913 -7.6801 -39.7913 -7.9613 Q-39.7757 -8.0082 -39.7444 -8.1332 Q-39.7132 -8.2582 -39.6663 -8.3363 Q-39.6194 -8.4145 -39.5101 -8.4145 Q-37.5101 -8.4145 -37.1819 -9.6957 L-34.4632 -20.6645 Q-34.4163 -20.8676 -34.4163 -20.9457 Q-34.4163 -21.1801 -34.6663 -21.2113 Q-35.0569 -21.2895 -36.1819 -21.2895 Q-36.3851 -21.2895 -36.3851 -21.5707 Q-36.3694 -21.6176 -36.3382 -21.7426 Q-36.3069 -21.8676 -36.2522 -21.9457 Q-36.1976 -22.0238 -36.1194 -22.0238 L-32.4163 -22.0238 Q-32.1819 -22.0238 -32.1507 -21.7895 L-30.5101 -9.7582 L-22.8538 -21.7895 Q-22.7132 -22.0238 -22.4632 -22.0238 L-18.8851 -22.0238 Q-18.6819 -22.0238 -18.6819 -21.7426 Q-18.6976 -21.6957 -18.7288 -21.5707 Q-18.7601 -21.4457 -18.8147 -21.3676 Q-18.8694 -21.2895 -18.9476 -21.2895 Q-20.2288 -21.2895 -20.7444 -21.1488 Q-21.0101 -21.0551 -21.1351 -20.5707 L-24.0257 -9.0395 Q-24.0569 -8.8363 -24.0569 -8.7426 Q-24.0569 -8.6645 -24.0335 -8.6098 Q-24.0101 -8.5551 -23.9632 -8.5395 Q-23.9163 -8.5238 -23.8069 -8.5082 Q-23.4163 -8.4145 -22.2913 -8.4145 Q-22.0882 -8.4145 -22.0882 -8.1488 Q-22.1663 -7.852 -22.2054 -7.766 Q-22.2444 -7.6801 -22.4319 -7.6801 L-27.9319 -7.6801 Q-28.1351 -7.6801 -28.1351 -7.9613 Q-28.1194 -8.0082 -28.0882 -8.1332 Q-28.0569 -8.2582 -28.0022 -8.3363 Q-27.9476 -8.4145 -27.8694 -8.4145 Q-26.5882 -8.4145 -26.0726 -8.5551 Q-25.8069 -8.6488 -25.6819 -9.1332 L-22.6507 -21.2895 L-31.1351 -7.9145 Q-31.2601 -7.6801 -31.5569 -7.6801 Q-31.8226 -7.6801 -31.8538 -7.9145 L-33.6351 -21.1176 L-36.5257 -9.602 Q-36.5413 -9.5551 -36.5491 -9.477 Q-36.5569 -9.3988 -36.5726 -9.3051 Q-36.5726 -8.7582 -36.096 -8.5863 Q-35.6194 -8.4145 -34.9319 -8.4145 Q-34.7288 -8.4145 -34.7288 -8.1488 Q-34.7913 -7.8676 -34.8382 -7.7738 Q-34.8851 -7.6801 -35.0882 -7.6801 L-39.5882 -7.6801 Z"
         id="path3109" />
      <path
         style="stroke:none;"
         d="M-16.8785 -15.4218 L-16.8785 -15.828 Q-16.8785 -15.8593 -16.8472 -15.9062 L-14.5191 -18.4843 Q-13.9879 -19.0624 -13.6597 -19.4452 Q-13.3316 -19.828 -13.0113 -20.3358 Q-12.691 -20.8437 -12.5035 -21.3671 Q-12.316 -21.8905 -12.316 -22.4687 Q-12.316 -23.0937 -12.5425 -23.6562 Q-12.7691 -24.2187 -13.2222 -24.5546 Q-13.6754 -24.8905 -14.316 -24.8905 Q-14.9566 -24.8905 -15.48 -24.4921 Q-16.0035 -24.0937 -16.2222 -23.4843 Q-16.1597 -23.4999 -16.0504 -23.4999 Q-15.7222 -23.4999 -15.48 -23.2733 Q-15.2379 -23.0468 -15.2379 -22.6874 Q-15.2379 -22.3437 -15.48 -22.1015 Q-15.7222 -21.8593 -16.0504 -21.8593 Q-16.4097 -21.8593 -16.6441 -22.1015 Q-16.8785 -22.3437 -16.8785 -22.6874 Q-16.8785 -23.2499 -16.6675 -23.7421 Q-16.4566 -24.2343 -16.0582 -24.6171 Q-15.6597 -24.9999 -15.1597 -25.203 Q-14.6597 -25.4062 -14.0972 -25.4062 Q-13.2379 -25.4062 -12.4957 -25.0468 Q-11.7535 -24.6874 -11.3238 -24.0233 Q-10.8941 -23.3593 -10.8941 -22.4687 Q-10.8941 -21.828 -11.1754 -21.2421 Q-11.4566 -20.6562 -11.9019 -20.1718 Q-12.3472 -19.6874 -13.0504 -19.078 Q-13.7535 -18.4687 -13.9722 -18.2655 L-15.6597 -16.6405 L-14.2222 -16.6405 Q-13.1597 -16.6405 -12.4488 -16.6562 Q-11.7379 -16.6718 -11.691 -16.7187 Q-11.5191 -16.9062 -11.3316 -18.0937 L-10.8941 -18.0937 L-11.316 -15.4218 L-16.8785 -15.4218 Z"
         id="path3111" />
      <path
         style="stroke:none;"
         d="M-19.2981 -2.857 Q-19.2981 -2.9039 -19.2825 -2.9898 Q-19.2669 -3.0758 -19.2591 -3.1617 Q-19.2512 -3.2477 -19.2512 -3.2789 L-17.3919 -10.7164 Q-17.3294 -10.9664 -17.3137 -11.1227 Q-17.3137 -11.357 -18.2981 -11.357 Q-18.4387 -11.357 -18.4387 -11.5602 Q-18.4231 -11.5914 -18.3997 -11.6852 Q-18.3762 -11.7789 -18.3372 -11.8336 Q-18.2981 -11.8883 -18.22 -11.8883 L-16.2044 -12.0445 Q-16.0169 -12.0445 -16.0169 -11.857 L-18.1887 -3.232 Q-18.2981 -2.982 -18.2981 -2.5133 Q-18.2981 -1.8727 -17.845 -1.8727 Q-17.3919 -1.8727 -17.1575 -2.443 Q-16.9231 -3.0133 -16.7512 -3.8414 Q-16.72 -3.9352 -16.6262 -3.9352 L-16.4387 -3.9352 Q-16.3919 -3.9352 -16.3528 -3.8883 Q-16.3137 -3.8414 -16.3137 -3.7789 Q-16.4856 -3.0602 -16.6262 -2.6383 Q-16.7669 -2.2164 -17.0794 -1.8414 Q-17.3919 -1.4664 -17.8762 -1.4664 Q-18.4856 -1.4664 -18.8919 -1.857 Q-19.2981 -2.2477 -19.2981 -2.857 Z"
         id="path3113" />
      <path
         style="stroke:none;"
         d="M-12.1891 -1.4664 Q-12.8922 -1.4664 -13.4469 -1.8023 Q-14.0016 -2.1383 -14.3063 -2.7086 Q-14.611 -3.2789 -14.611 -4.0133 Q-14.611 -5.0289 -14.0407 -6.0289 Q-13.4703 -7.0289 -12.525 -7.6461 Q-11.5797 -8.2633 -10.5485 -8.2633 Q-10.0016 -8.2633 -9.5641 -8.0758 Q-9.1266 -7.8883 -8.8063 -7.5445 Q-8.486 -7.2008 -8.3141 -6.7398 Q-8.1422 -6.2789 -8.1422 -5.732 Q-8.1422 -4.9508 -8.4703 -4.193 Q-8.7985 -3.4352 -9.3688 -2.818 Q-9.9391 -2.2008 -10.6813 -1.8336 Q-11.4235 -1.4664 -12.1891 -1.4664 ZM-12.1578 -1.8727 Q-11.486 -1.8727 -10.9391 -2.3258 Q-10.3922 -2.7789 -10.0328 -3.4664 Q-9.6735 -4.1539 -9.486 -4.9273 Q-9.2985 -5.7008 -9.2985 -6.3258 Q-9.2985 -6.9664 -9.6188 -7.4195 Q-9.9391 -7.8727 -10.5797 -7.8727 Q-11.4547 -7.8727 -12.1188 -7.1227 Q-12.7828 -6.3727 -13.111 -5.3336 Q-13.4391 -4.2945 -13.4391 -3.4195 Q-13.4391 -2.7789 -13.111 -2.3258 Q-12.7828 -1.8727 -12.1578 -1.8727 Z"
         id="path3115" />
      <path
         style="stroke:none;"
         d="M-6.2006 -3.4195 Q-6.2006 -2.7789 -5.8725 -2.3258 Q-5.5443 -1.8727 -4.9193 -1.8727 Q-4.0287 -1.8727 -3.2006 -2.2789 Q-2.3725 -2.6852 -1.8568 -3.4039 Q-1.81 -3.4508 -1.7475 -3.4508 Q-1.6693 -3.4508 -1.5912 -3.3648 Q-1.5131 -3.2789 -1.5131 -3.2164 Q-1.5131 -3.1539 -1.5443 -3.1227 Q-2.0912 -2.357 -3.0209 -1.9117 Q-3.9506 -1.4664 -4.9506 -1.4664 Q-5.6693 -1.4664 -6.2162 -1.8102 Q-6.7631 -2.1539 -7.0678 -2.7242 Q-7.3725 -3.2945 -7.3725 -4.0133 Q-7.3725 -5.0289 -6.8021 -6.0211 Q-6.2318 -7.0133 -5.2943 -7.6383 Q-4.3568 -8.2633 -3.3256 -8.2633 Q-2.6537 -8.2633 -2.1146 -7.943 Q-1.5756 -7.6227 -1.5756 -6.982 Q-1.5756 -6.5602 -1.8178 -6.2711 Q-2.06 -5.982 -2.4506 -5.982 Q-2.7006 -5.982 -2.8646 -6.1383 Q-3.0287 -6.2945 -3.0287 -6.5289 Q-3.0287 -6.8883 -2.7709 -7.1383 Q-2.5131 -7.3883 -2.1693 -7.3883 L-2.1381 -7.3883 Q-2.3256 -7.6383 -2.6537 -7.7555 Q-2.9818 -7.8727 -3.3412 -7.8727 Q-4.2162 -7.8727 -4.8803 -7.1227 Q-5.5443 -6.3727 -5.8725 -5.3336 Q-6.2006 -4.2945 -6.2006 -3.4195 Z"
         id="path3117" />
      <path
         style="stroke:none;"
         d="M1.1056 -1.4664 Q0.1525 -1.4664 -0.3866 -2.1852 Q-0.9256 -2.9039 -0.9256 -3.8727 Q-0.9256 -4.8258 -0.4334 -5.8648 Q0.0588 -6.9039 0.9103 -7.5836 Q1.7619 -8.2633 2.7306 -8.2633 Q3.1838 -8.2633 3.5353 -8.0211 Q3.8869 -7.7789 4.0744 -7.3727 Q4.2463 -7.9664 4.7306 -7.9664 Q4.9338 -7.9664 5.0588 -7.8492 Q5.1838 -7.732 5.1838 -7.5445 Q5.1838 -7.4977 5.1838 -7.482 Q5.1838 -7.4664 5.1681 -7.4352 L4.1213 -3.2477 Q4.0119 -2.7945 4.0119 -2.5133 Q4.0119 -1.8727 4.4494 -1.8727 Q4.9181 -1.8727 5.1681 -2.4664 Q5.4181 -3.0602 5.5744 -3.8414 Q5.6056 -3.9352 5.6994 -3.9352 L5.8869 -3.9352 Q5.9338 -3.9352 5.9728 -3.8805 Q6.0119 -3.8258 6.0119 -3.7789 Q5.7463 -2.732 5.4338 -2.0992 Q5.1213 -1.4664 4.4181 -1.4664 Q3.9181 -1.4664 3.5275 -1.7633 Q3.1369 -2.0602 3.0431 -2.5602 Q2.0744 -1.4664 1.1056 -1.4664 ZM1.1213 -1.8727 Q1.6681 -1.8727 2.1759 -2.2789 Q2.6838 -2.6852 3.0431 -3.232 Q3.0588 -3.2477 3.0588 -3.2789 L3.8713 -6.5289 L3.8869 -6.5758 Q3.7931 -7.107 3.4963 -7.4898 Q3.1994 -7.8727 2.6994 -7.8727 Q2.1838 -7.8727 1.7463 -7.4586 Q1.3088 -7.0445 1.0119 -6.482 Q0.7306 -5.8883 0.4572 -4.8414 Q0.1838 -3.7945 0.1838 -3.2164 Q0.1838 -2.7008 0.4103 -2.2867 Q0.6369 -1.8727 1.1213 -1.8727 Z"
         id="path3119" />
      <path
         style="stroke:none;"
         d="M7.0461 -2.857 Q7.0461 -2.9039 7.0617 -2.9898 Q7.0773 -3.0758 7.0852 -3.1617 Q7.093 -3.2477 7.093 -3.2789 L8.9523 -10.7164 Q9.0148 -10.9664 9.0305 -11.1227 Q9.0305 -11.357 8.0461 -11.357 Q7.9055 -11.357 7.9055 -11.5602 Q7.9211 -11.5914 7.9445 -11.6852 Q7.968 -11.7789 8.007 -11.8336 Q8.0461 -11.8883 8.1242 -11.8883 L10.1398 -12.0445 Q10.3273 -12.0445 10.3273 -11.857 L8.1555 -3.232 Q8.0461 -2.982 8.0461 -2.5133 Q8.0461 -1.8727 8.4992 -1.8727 Q8.9523 -1.8727 9.1867 -2.443 Q9.4211 -3.0133 9.593 -3.8414 Q9.6242 -3.9352 9.718 -3.9352 L9.9055 -3.9352 Q9.9523 -3.9352 9.9914 -3.8883 Q10.0305 -3.8414 10.0305 -3.7789 Q9.8586 -3.0602 9.718 -2.6383 Q9.5773 -2.2164 9.2648 -1.8414 Q8.9523 -1.4664 8.468 -1.4664 Q7.8586 -1.4664 7.4523 -1.857 Q7.0461 -2.2477 7.0461 -2.857 Z"
         id="path3121" />
      <path
         style="stroke:none;"
         d="M14.6905 -2.4301 L14.6905 -23.4301 L17.5655 -23.4301 L17.5655 -22.5863 L15.5343 -22.5863 L15.5343 -3.2738 L17.5655 -3.2738 L17.5655 -2.4301 L14.6905 -2.4301 Z"
         id="path3123" />
      <path
         style="stroke:none;"
         d="M20.2727 -12.5082 Q20.1008 -12.5082 19.9915 -12.641 Q19.8821 -12.7738 19.8821 -12.9301 Q19.8821 -13.0863 19.9915 -13.2191 Q20.1008 -13.352 20.2727 -13.352 L32.3196 -13.352 Q32.4915 -13.352 32.6008 -13.2191 Q32.7102 -13.0863 32.7102 -12.9301 Q32.7102 -12.7738 32.6008 -12.641 Q32.4915 -12.5082 32.3196 -12.5082 L20.2727 -12.5082 Z"
         id="path3125" />
      <path
         style="stroke:none;"
         d="M35.1935 -2.4301 L35.1935 -3.2738 L37.2247 -3.2738 L37.2247 -22.5863 L35.1935 -22.5863 L35.1935 -23.4301 L38.0685 -23.4301 L38.0685 -2.4301 L35.1935 -2.4301 Z"
         id="path3127" />
    </g>
    <g
       transform="translate(290.0003,28.25)"
       style="font-size:14.6667px; text-rendering:geometricPrecision; image-rendering:optimizeQuality; color-rendering:optimizeQuality; font-family:'SansSerif'; color-interpolation:linearRGB; font-weight:bold;"
       id="g3133">
      <path
         style="stroke:none;"
         d="M-47.4375 -4 L-47.4375 -14.7344 L-44.1875 -14.7344 L-42.25 -7.4062 L-40.3125 -14.7344 L-37.0625 -14.7344 L-37.0625 -4 L-39.0781 -4 L-39.0781 -12.4531 L-41.2188 -4 L-43.2969 -4 L-45.4219 -12.4531 L-45.4219 -4 L-47.4375 -4 ZM-33.6819 -9.4062 L-35.5412 -9.75 Q-35.2287 -10.875 -34.4631 -11.4141 Q-33.6975 -11.9531 -32.1819 -11.9531 Q-30.7912 -11.9531 -30.1194 -11.625 Q-29.4475 -11.2969 -29.174 -10.7969 Q-28.9006 -10.2969 -28.9006 -8.9531 L-28.9162 -6.5625 Q-28.9162 -5.5312 -28.8225 -5.0469 Q-28.7287 -4.5625 -28.4475 -4 L-30.4944 -4 Q-30.5725 -4.2031 -30.6819 -4.6094 Q-30.7444 -4.7969 -30.76 -4.8438 Q-31.2912 -4.3438 -31.8928 -4.0859 Q-32.4944 -3.8281 -33.1662 -3.8281 Q-34.3694 -3.8281 -35.0647 -4.4766 Q-35.76 -5.125 -35.76 -6.125 Q-35.76 -6.7812 -35.4397 -7.2969 Q-35.1194 -7.8125 -34.5569 -8.0859 Q-33.9944 -8.3594 -32.9162 -8.5781 Q-31.4787 -8.8438 -30.9162 -9.0781 L-30.9162 -9.2812 Q-30.9162 -9.875 -31.2131 -10.125 Q-31.51 -10.375 -32.3225 -10.375 Q-32.8694 -10.375 -33.174 -10.1641 Q-33.4787 -9.9531 -33.6819 -9.4062 ZM-30.9162 -7.7344 Q-31.3225 -7.6094 -32.174 -7.4219 Q-33.0256 -7.2344 -33.2912 -7.0625 Q-33.6975 -6.7812 -33.6975 -6.3438 Q-33.6975 -5.9062 -33.3772 -5.5938 Q-33.0569 -5.2812 -32.5569 -5.2812 Q-31.9944 -5.2812 -31.4944 -5.6406 Q-31.1194 -5.9219 -31.01 -6.3281 Q-30.9162 -6.5781 -30.9162 -7.3281 L-30.9162 -7.7344 ZM-20.2807 -9.4844 L-22.312 -9.1094 Q-22.4057 -9.7188 -22.7729 -10.0234 Q-23.1401 -10.3281 -23.7182 -10.3281 Q-24.4839 -10.3281 -24.9448 -9.8047 Q-25.4057 -9.2812 -25.4057 -8.0312 Q-25.4057 -6.6406 -24.937 -6.0703 Q-24.4682 -5.5 -23.687 -5.5 Q-23.0932 -5.5 -22.7261 -5.8359 Q-22.3589 -6.1719 -22.2026 -6.9844 L-20.1714 -6.6406 Q-20.4995 -5.25 -21.3901 -4.5391 Q-22.2807 -3.8281 -23.7807 -3.8281 Q-25.4839 -3.8281 -26.4995 -4.9062 Q-27.5151 -5.9844 -27.5151 -7.875 Q-27.5151 -9.8125 -26.4995 -10.8828 Q-25.4839 -11.9531 -23.7495 -11.9531 Q-22.3276 -11.9531 -21.4839 -11.3438 Q-20.6401 -10.7344 -20.2807 -9.4844 ZM-16.864 -14.7344 L-16.864 -10.7969 Q-15.864 -11.9531 -14.4734 -11.9531 Q-13.7703 -11.9531 -13.2 -11.6875 Q-12.6296 -11.4219 -12.3406 -11.0156 Q-12.0515 -10.6094 -11.9421 -10.1094 Q-11.8328 -9.6094 -11.8328 -8.5625 L-11.8328 -4 L-13.8953 -4 L-13.8953 -8.1094 Q-13.8953 -9.3281 -14.0125 -9.6562 Q-14.1296 -9.9844 -14.4265 -10.1797 Q-14.7234 -10.375 -15.1765 -10.375 Q-15.6765 -10.375 -16.0828 -10.125 Q-16.489 -9.875 -16.6765 -9.375 Q-16.864 -8.875 -16.864 -7.8906 L-16.864 -4 L-18.9265 -4 L-18.9265 -14.7344 L-16.864 -14.7344 ZM-5.855 -4 L-5.855 -14.7344 L-3.7457 -14.7344 L0.6606 -7.5625 L0.6606 -14.7344 L2.6606 -14.7344 L2.6606 -4 L0.4887 -4 L-3.8394 -11 L-3.8394 -4 L-5.855 -4 ZM9.823 -4 L9.823 -5.1719 Q9.3855 -4.5469 8.698 -4.1875 Q8.0105 -3.8281 7.2449 -3.8281 Q6.448 -3.8281 5.8308 -4.1719 Q5.2136 -4.5156 4.9324 -5.1406 Q4.6511 -5.7656 4.6511 -6.8594 L4.6511 -11.7812 L6.7136 -11.7812 L6.7136 -8.2031 Q6.7136 -6.5625 6.823 -6.1953 Q6.9324 -5.8281 7.237 -5.6094 Q7.5417 -5.3906 7.9949 -5.3906 Q8.5261 -5.3906 8.948 -5.6797 Q9.3699 -5.9688 9.5183 -6.3984 Q9.6667 -6.8281 9.6667 -8.5 L9.6667 -11.7812 L11.7292 -11.7812 L11.7292 -4 L9.823 -4 ZM13.4944 -11.7812 L15.385 -11.7812 L15.385 -10.7188 Q16.4162 -11.9531 17.8225 -11.9531 Q18.5569 -11.9531 19.1115 -11.6484 Q19.6662 -11.3438 20.01 -10.7188 Q20.5256 -11.3438 21.1194 -11.6484 Q21.7131 -11.9531 22.385 -11.9531 Q23.2444 -11.9531 23.8381 -11.6094 Q24.4319 -11.2656 24.7287 -10.5781 Q24.9319 -10.0938 24.9319 -8.9688 L24.9319 -4 L22.885 -4 L22.885 -8.4531 Q22.885 -9.6094 22.6662 -9.9375 Q22.385 -10.375 21.7912 -10.375 Q21.3537 -10.375 20.9709 -10.1172 Q20.5881 -9.8594 20.424 -9.3438 Q20.26 -8.8281 20.26 -7.7344 L20.26 -4 L18.1975 -4 L18.1975 -8.2656 Q18.1975 -9.3906 18.0881 -9.7266 Q17.9787 -10.0625 17.7444 -10.2188 Q17.51 -10.375 17.1194 -10.375 Q16.6506 -10.375 16.2678 -10.1172 Q15.885 -9.8594 15.7209 -9.3828 Q15.5569 -8.9062 15.5569 -7.7812 L15.5569 -4 L13.4944 -4 L13.4944 -11.7812 ZM26.5886 -4 L26.5886 -14.7344 L28.6511 -14.7344 L28.6511 -10.875 Q29.6042 -11.9531 30.9011 -11.9531 Q32.323 -11.9531 33.2527 -10.9219 Q34.1824 -9.8906 34.1824 -7.9688 Q34.1824 -5.9844 33.237 -4.9062 Q32.2917 -3.8281 30.9324 -3.8281 Q30.2761 -3.8281 29.6277 -4.1562 Q28.9792 -4.4844 28.5105 -5.1406 L28.5105 -4 L26.5886 -4 ZM28.6355 -8.0625 Q28.6355 -6.8438 29.0105 -6.2656 Q29.5574 -5.4531 30.4324 -5.4531 Q31.1199 -5.4531 31.5964 -6.0312 Q32.073 -6.6094 32.073 -7.875 Q32.073 -9.2031 31.5964 -9.7891 Q31.1199 -10.375 30.3542 -10.375 Q29.6199 -10.375 29.1277 -9.8047 Q28.6355 -9.2344 28.6355 -8.0625 ZM40.135 -6.4688 L42.1819 -6.125 Q41.7912 -5 40.9397 -4.4141 Q40.0881 -3.8281 38.8069 -3.8281 Q36.7756 -3.8281 35.8069 -5.1562 Q35.0256 -6.2188 35.0256 -7.8281 Q35.0256 -9.7656 36.0412 -10.8594 Q37.0569 -11.9531 38.6037 -11.9531 Q40.3381 -11.9531 41.3381 -10.8047 Q42.3381 -9.6562 42.2912 -7.2969 L37.135 -7.2969 Q37.1662 -6.375 37.6428 -5.8672 Q38.1194 -5.3594 38.8225 -5.3594 Q39.3069 -5.3594 39.635 -5.625 Q39.9631 -5.8906 40.135 -6.4688 ZM40.26 -8.5625 Q40.2287 -9.4531 39.7912 -9.9141 Q39.3537 -10.375 38.7287 -10.375 Q38.0569 -10.375 37.6037 -9.8906 Q37.1662 -9.3906 37.1819 -8.5625 L40.26 -8.5625 ZM45.7548 -4 L43.6923 -4 L43.6923 -11.7812 L45.6142 -11.7812 L45.6142 -10.6719 Q46.0986 -11.4531 46.4892 -11.7031 Q46.8798 -11.9531 47.3798 -11.9531 Q48.083 -11.9531 48.7392 -11.5625 L48.0986 -9.7656 Q47.583 -10.1094 47.1298 -10.1094 Q46.6923 -10.1094 46.3955 -9.8672 Q46.0986 -9.625 45.9267 -9.0078 Q45.7548 -8.3906 45.7548 -6.4062 L45.7548 -4 Z"
         id="path3131" />
    </g>
    <g
       style="stroke-linecap:butt; text-rendering:geometricPrecision; color-rendering:optimizeQuality; image-rendering:optimizeQuality; stroke-linejoin:round; color-interpolation:linearRGB; stroke-width:1.6667;"
       id="g3137">
      <path
         d="M73 221.5556 L75.8933 221.5553 L78.7867 221.5544 L81.68 221.553 L84.5733 221.5511 L87.4667 221.5485 L90.36 221.5454 L93.2533 221.5417 L96.1467 221.5375 L99.04 221.5326 L101.9333 221.5271 L104.8267 221.521 L107.72 221.5143 L110.6133 221.507 L113.5067 221.499 L116.4 221.4904 L119.2933 221.481 L122.1867 221.471 L125.08 221.4602 L127.9733 221.4487 L130.8667 221.4365 L133.76 221.4234 L136.6533 221.4096 L139.5467 221.3949 L142.44 221.3792 L145.3333 221.3627 L148.2267 221.3453 L151.12 221.3268 L154.0133 221.3073 L156.9067 221.2867 L159.8 221.265 L162.6933 221.242 L165.5867 221.2178 L168.48 221.1923 L171.3733 221.1654 L174.2667 221.1369 L177.16 221.107 L180.0533 221.0753 L182.9467 221.0419 L185.84 221.0067 L188.7333 220.9694 L191.6267 220.93 L194.52 220.8883 L197.4133 220.8441 L200.3067 220.7973 L203.2 220.7477 L206.0933 220.695 L208.9867 220.639 L211.88 220.5794 L214.7733 220.5158 L217.6667 220.448 L220.56 220.3756 L223.4533 220.298 L226.3467 220.2148 L229.24 220.1254 L232.1333 220.0292 L235.0267 219.9252 L237.92 219.8128 L240.8133 219.6907 L243.7067 219.5579 L246.6 219.4128 L249.4933 219.2538 L252.3867 219.0788 L255.28 218.8854 L258.1733 218.6706 L261.0667 218.4307 L263.96 218.1612 L266.8533 217.8564 L269.7467 217.5089 L272.64 217.1093 L275.5333 216.645 L278.4267 216.099 L281.32 215.4481 L284.2133 214.659 L287.1067 213.6828 L290 212.4444 L292.8933 210.8221 L295.7867 208.6057 L298.68 205.3962 L301.5733 200.3356 L304.4667 191.1761 L307.36 169.5581 L310.2533 56.1024 L313.1467 371.4826 L316.04 274.3749 L318.9333 254.0603 L321.8267 245.2597 L324.72 240.3465 L327.6133 237.2115 L330.5067 235.0376 L333.4 233.4418 L336.2933 232.2208 L339.1867 231.2566 L342.08 230.4761 L344.9733 229.8313 L347.8667 229.2898 L350.76 228.8288 L353.6533 228.4315 L356.5467 228.0856 L359.44 227.7819 L362.3333 227.5131 L365.2267 227.2735 L368.12 227.0587 L371.0133 226.865 L373.9067 226.6895 L376.8 226.5297 L379.6933 226.3837 L382.5867 226.2498 L385.48 226.1265 L388.3733 226.0126 L391.2667 225.9072 L394.16 225.8092 L397.0533 225.718 L399.9467 225.6329 L402.84 225.5534 L405.7333 225.4788 L408.6267 225.4087 L411.52 225.3428 L414.4133 225.2808 L417.3067 225.2222 L420.2 225.1668 L423.0933 225.1143 L425.9867 225.0646 L428.88 225.0175 L431.7733 224.9726 L434.6667 224.93 L437.56 224.8893 L440.4533 224.8506 L443.3467 224.8136 L446.24 224.7783 L449.1333 224.7445 L452.0267 224.7122 L454.92 224.6812 L457.8133 224.6515 L460.7067 224.623 L463.6 224.5957 L466.4933 224.5694 L469.3867 224.5441 L472.28 224.5198 L475.1733 224.4963 L478.0667 224.4738 L480.96 224.452 L483.8533 224.431 L486.7467 224.4108 L489.64 224.3912 L492.5333 224.3723 L495.4267 224.354 L498.32 224.3364 L501.2133 224.3193 L504.1067 224.3027 L507 224.2867"
         style="fill:none; fill-rule:evenodd;"
         id="path3135" />
    </g>
  </g>
  <rect
     style="fill:none;stroke:none"
     id="rect3147"
     width="28.780487"
     height="85.853661"
     x="8.2926826"
     y="159.51219" />
  <rect
     style="fill:none;stroke:none"
     id="rect3149"
     width="80.487808"
     height="18.536585"
     x="247.31708"
     y="397.07318" />
  <rect
     style="fill:none;stroke:none"
     id="rect3151"
     width="105.36585"
     height="19.024391"
     x="238.53659"
     y="9.2682924" />
  <rect
     style="fill:none;stroke:none"
     id="rect3153"
     width="27.317074"
     height="362.92682"
     x="41.951218"
     y="20.487804" />
  <rect
     style="fill:none;stroke:none"
     id="rect3155"
     width="459.02438"
     height="17.073172"
     x="64.878052"
     y="380.48779" />
</svg>
