<?xml version="1.0" encoding="UTF-8" standalone="no"?>
<svg
   xmlns:dc="http://purl.org/dc/elements/1.1/"
   xmlns:cc="http://creativecommons.org/ns#"
   xmlns:rdf="http://www.w3.org/1999/02/22-rdf-syntax-ns#"
   xmlns:svg="http://www.w3.org/2000/svg"
   xmlns="http://www.w3.org/2000/svg"
   xmlns:sodipodi="http://sodipodi.sourceforge.net/DTD/sodipodi-0.dtd"
   xmlns:inkscape="http://www.inkscape.org/namespaces/inkscape"
   style="fill-opacity:1; color-rendering:auto; color-interpolation:auto; text-rendering:auto; stroke:black; stroke-linecap:square; stroke-miterlimit:10; shape-rendering:auto; stroke-opacity:1; fill:black; stroke-dasharray:none; font-weight:normal; stroke-width:1; font-family:'Dialog'; font-style:normal; stroke-linejoin:miter; font-size:12px; stroke-dashoffset:0; image-rendering:auto;"
   width="560"
   height="420"
   version="1.1"
   id="svg101"
   sodipodi:docname="normalVectorsSchematic.svg"
   inkscape:version="0.92.2 5c3e80d, 2017-08-06">
  <metadata
     id="metadata105">
    <rdf:RDF>
      <cc:Work
         rdf:about="">
        <dc:format>image/svg+xml</dc:format>
        <dc:type
           rdf:resource="http://purl.org/dc/dcmitype/StillImage" />
      </cc:Work>
    </rdf:RDF>
  </metadata>
  <sodipodi:namedview
     pagecolor="#ffffff"
     bordercolor="#666666"
     borderopacity="1"
     objecttolerance="10"
     gridtolerance="10"
     guidetolerance="10"
     inkscape:pageopacity="0"
     inkscape:pageshadow="2"
     inkscape:window-width="1280"
     inkscape:window-height="755"
     id="namedview103"
     showgrid="false"
     inkscape:zoom="1.1238095"
     inkscape:cx="300.33224"
     inkscape:cy="212.9939"
     inkscape:window-x="0"
     inkscape:window-y="1"
     inkscape:window-maximized="1"
     inkscape:current-layer="svg101" />
  <!--Generated by the Batik Graphics2D SVG Generator-->
  <defs
     id="genericDefs" />
  <g
     id="g99">
    <defs
       id="defs1">
      <clipPath
         clipPathUnits="userSpaceOnUse"
         id="clipPath1">
        <path
           d="M0 0 L560 0 L560 420 L0 420 L0 0 Z"
           id="path3" />
      </clipPath>
    </defs>
    <g
       style="fill:white; stroke:white;"
       id="g9">
      <rect
         x="0"
         y="0"
         width="560"
         style="clip-path:url(#clipPath1); stroke:none;"
         height="420"
         clip-path="url(#clipPath1)"
         id="rect7" />
    </g>
    <g
       style="fill:white; text-rendering:optimizeSpeed; color-rendering:optimizeSpeed; image-rendering:optimizeSpeed; shape-rendering:crispEdges; stroke:white; color-interpolation:sRGB;"
       id="g13">
      <rect
         x="0"
         width="560"
         height="420"
         y="0"
         style="stroke:none;"
         id="rect11" />
    </g>
    <g
       style="text-rendering:geometricPrecision; color-rendering:optimizeQuality; color-interpolation:linearRGB; image-rendering:optimizeQuality;"
       transform="translate(150.5,312.75)"
       id="g17">
      <circle
         r="3.3333"
         style="stroke:none;"
         cx="0"
         cy="0"
         id="circle15" />
    </g>
    <g
       style="text-rendering:geometricPrecision; color-rendering:optimizeQuality; color-interpolation:linearRGB; image-rendering:optimizeQuality;"
       transform="translate(460.5,312.75)"
       id="g21">
      <circle
         r="3.3333"
         style="stroke:none;"
         cx="0"
         cy="0"
         id="circle19" />
    </g>
    <g
       style="text-rendering:geometricPrecision; color-rendering:optimizeQuality; color-interpolation:linearRGB; image-rendering:optimizeQuality;"
       transform="translate(460.5,67.75)"
       id="g25">
      <circle
         r="3.3333"
         style="stroke:none;"
         cx="0"
         cy="0"
         id="circle23" />
    </g>
    <g
       transform="translate(135,325)"
       style="font-size:14px; text-rendering:geometricPrecision; color-rendering:optimizeQuality; image-rendering:optimizeQuality; font-family:'Helvetica Neue'; color-interpolation:linearRGB;"
       id="g29">
      <path
         style="stroke:none;"
         d="M4.984 5.5 L4.984 -4.426 L4.074 -4.426 Q3.976 -3.866 3.71 -3.502 Q3.444 -3.138 3.059 -2.928 Q2.674 -2.718 2.198 -2.641 Q1.722 -2.564 1.218 -2.564 L1.218 -1.612 L3.794 -1.612 L3.794 5.5 Z"
         id="path27" />
    </g>
    <g
       transform="translate(476,325)"
       style="font-size:14px; text-rendering:geometricPrecision; color-rendering:optimizeQuality; image-rendering:optimizeQuality; font-family:'Helvetica Neue'; color-interpolation:linearRGB;"
       id="g33">
      <path
         style="stroke:none;"
         d="M0.616 -0.912 L1.806 -0.912 Q1.792 -1.36 1.897 -1.801 Q2.002 -2.242 2.24 -2.592 Q2.478 -2.942 2.849 -3.159 Q3.22 -3.376 3.738 -3.376 Q4.13 -3.376 4.48 -3.25 Q4.83 -3.124 5.089 -2.886 Q5.348 -2.648 5.502 -2.319 Q5.656 -1.99 5.656 -1.584 Q5.656 -1.066 5.495 -0.674 Q5.334 -0.282 5.019 0.054 Q4.704 0.39 4.228 0.719 Q3.752 1.048 3.122 1.44 Q2.604 1.748 2.128 2.098 Q1.652 2.448 1.274 2.91 Q0.896 3.372 0.651 3.995 Q0.406 4.618 0.336 5.5 L6.818 5.5 L6.818 4.45 L1.722 4.45 Q1.806 3.988 2.079 3.631 Q2.352 3.274 2.737 2.966 Q3.122 2.658 3.584 2.385 Q4.046 2.112 4.508 1.832 Q4.97 1.538 5.404 1.216 Q5.838 0.894 6.174 0.495 Q6.51 0.096 6.713 -0.408 Q6.916 -0.912 6.916 -1.57 Q6.916 -2.27 6.671 -2.802 Q6.426 -3.334 6.006 -3.691 Q5.586 -4.048 5.019 -4.237 Q4.452 -4.426 3.808 -4.426 Q3.024 -4.426 2.408 -4.16 Q1.792 -3.894 1.379 -3.425 Q0.966 -2.956 0.77 -2.312 Q0.574 -1.668 0.616 -0.912 Z"
         id="path31" />
    </g>
    <g
       transform="translate(476,55.5)"
       style="font-size:14px; text-rendering:geometricPrecision; color-rendering:optimizeQuality; image-rendering:optimizeQuality; font-family:'Helvetica Neue'; color-interpolation:linearRGB;"
       id="g37">
      <path
         style="stroke:none;"
         d="M3.052 -0.17 L3.052 0.838 Q3.388 0.796 3.766 0.796 Q4.214 0.796 4.599 0.915 Q4.984 1.034 5.264 1.279 Q5.544 1.524 5.712 1.881 Q5.88 2.238 5.88 2.7 Q5.88 3.148 5.705 3.505 Q5.53 3.862 5.236 4.107 Q4.942 4.352 4.55 4.485 Q4.158 4.618 3.724 4.618 Q2.702 4.618 2.17 4.009 Q1.638 3.4 1.61 2.434 L0.42 2.434 Q0.406 3.204 0.637 3.806 Q0.868 4.408 1.302 4.821 Q1.736 5.234 2.352 5.444 Q2.968 5.654 3.724 5.654 Q4.424 5.654 5.047 5.465 Q5.67 5.276 6.132 4.898 Q6.594 4.52 6.867 3.953 Q7.14 3.386 7.14 2.644 Q7.14 1.748 6.699 1.09 Q6.258 0.432 5.348 0.236 L5.348 0.208 Q5.936 -0.058 6.328 -0.576 Q6.72 -1.094 6.72 -1.766 Q6.72 -2.452 6.489 -2.956 Q6.258 -3.46 5.852 -3.782 Q5.446 -4.104 4.893 -4.265 Q4.34 -4.426 3.696 -4.426 Q2.954 -4.426 2.387 -4.188 Q1.82 -3.95 1.442 -3.53 Q1.064 -3.11 0.861 -2.522 Q0.658 -1.934 0.63 -1.22 L1.82 -1.22 Q1.82 -1.654 1.932 -2.046 Q2.044 -2.438 2.275 -2.732 Q2.506 -3.026 2.863 -3.201 Q3.22 -3.376 3.696 -3.376 Q4.452 -3.376 4.956 -2.977 Q5.46 -2.578 5.46 -1.78 Q5.46 -1.388 5.306 -1.08 Q5.152 -0.772 4.893 -0.569 Q4.634 -0.366 4.291 -0.261 Q3.948 -0.156 3.57 -0.156 L3.318 -0.156 Q3.248 -0.156 3.178 -0.156 Q3.122 -0.156 3.052 -0.17 Z"
         id="path35" />
    </g>
    <g
       style="stroke-linecap:butt; text-rendering:geometricPrecision; color-rendering:optimizeQuality; image-rendering:optimizeQuality; stroke-linejoin:round; color-interpolation:linearRGB; stroke-width:1.2;"
       id="g41">
      <path
         d="M165.845 315.7819 L150.5 312.75 L165.845 309.7181"
         style="fill:none; fill-rule:evenodd;"
         id="path39" />
    </g>
    <g
       style="stroke-linecap:butt; text-rendering:geometricPrecision; color-rendering:optimizeQuality; image-rendering:optimizeQuality; stroke-linejoin:round; color-interpolation:linearRGB; stroke-width:1.2;"
       id="g89">
      <line
         y2="312.75"
         style="fill:none;"
         x1="460.5"
         x2="150.5"
         y1="312.75"
         id="line43" />
      <path
         d="M464.3362 300.6225 L460.5 312.75 L456.6638 300.6225"
         style="fill:none; fill-rule:evenodd;"
         id="path45" />
      <line
         y2="312.75"
         style="fill:none;"
         x1="460.5"
         x2="460.5"
         y1="67.75"
         id="line47" />
      <path
         d="M446.9368 74.1816 L460.5 67.75 L452.3621 78.4693"
         style="fill:none; fill-rule:evenodd;"
         id="path49" />
      <line
         y2="67.75"
         style="fill:none;"
         x1="150.5"
         x2="460.5"
         y1="312.75"
         id="line51" />
      <path
         d="M302.9425 296.335 L305.5 288.25 L308.0575 296.335"
         style="fill:none; stroke-width:1.8; fill-rule:evenodd; stroke:rgb(227,114,34);"
         id="path53" />
      <line
         x1="305.5"
         x2="305.5"
         y1="312.75"
         style="fill:none; stroke:rgb(227,114,34); stroke-width:1.8;"
         y2="288.25"
         id="line55" />
      <path
         d="M439.73 192.2713 L429.5 190.25 L439.73 188.2287"
         style="fill:none; stroke-width:1.8; fill-rule:evenodd; stroke:rgb(0,101,189);"
         id="path57" />
      <line
         x1="460.5"
         x2="429.5"
         y1="190.25"
         style="fill:none; stroke:rgb(0,101,189); stroke-width:1.8;"
         y2="190.25"
         id="line59" />
      <path
         d="M323.5841 202.521 L327.4203 207.5741 L321.0266 204.5422"
         style="fill:none; stroke-width:1.8; fill-rule:evenodd; stroke:rgb(162,173,0);"
         id="path61" />
      <line
         x1="305.5"
         x2="327.4203"
         y1="190.25"
         style="fill:none; stroke:rgb(162,173,0); stroke-width:1.8;"
         y2="207.5741"
         id="line63" />
      <path
         d="M109.27 310.7288 L119.5 312.75 L109.27 314.7712"
         style="fill:none; stroke-width:1.8; fill-rule:evenodd; stroke:rgb(153,153,153);"
         id="path65" />
      <line
         x1="88.5"
         x2="119.5"
         y1="312.75"
         style="fill:none; stroke:rgb(153,153,153); stroke-width:1.8;"
         y2="312.75"
         id="line67" />
      <path
         d="M109.27 261.7288 L119.5 263.75 L109.27 265.7712"
         style="fill:none; stroke-width:1.8; fill-rule:evenodd; stroke:rgb(153,153,153);"
         id="path69" />
      <line
         x1="88.5"
         x2="119.5"
         y1="263.75"
         style="fill:none; stroke:rgb(153,153,153); stroke-width:1.8;"
         y2="263.75"
         id="line71" />
      <path
         d="M109.27 212.7287 L119.5 214.75 L109.27 216.7713"
         style="fill:none; stroke-width:1.8; fill-rule:evenodd; stroke:rgb(153,153,153);"
         id="path73" />
      <line
         x1="88.5"
         x2="119.5"
         y1="214.75"
         style="fill:none; stroke:rgb(153,153,153); stroke-width:1.8;"
         y2="214.75"
         id="line75" />
      <path
         d="M109.27 163.7287 L119.5 165.75 L109.27 167.7713"
         style="fill:none; stroke-width:1.8; fill-rule:evenodd; stroke:rgb(153,153,153);"
         id="path77" />
      <line
         x1="88.5"
         x2="119.5"
         y1="165.75"
         style="fill:none; stroke:rgb(153,153,153); stroke-width:1.8;"
         y2="165.75"
         id="line79" />
      <path
         d="M109.27 114.7287 L119.5 116.75 L109.27 118.7712"
         style="fill:none; stroke-width:1.8; fill-rule:evenodd; stroke:rgb(153,153,153);"
         id="path81" />
      <line
         x1="88.5"
         x2="119.5"
         y1="116.75"
         style="fill:none; stroke:rgb(153,153,153); stroke-width:1.8;"
         y2="116.75"
         id="line83" />
      <path
         d="M109.27 65.7287 L119.5 67.75 L109.27 69.7713"
         style="fill:none; stroke-width:1.8; fill-rule:evenodd; stroke:rgb(153,153,153);"
         id="path85" />
      <line
         x1="88.5"
         x2="119.5"
         y1="67.75"
         style="fill:none; stroke:rgb(153,153,153); stroke-width:1.8;"
         y2="67.75"
         id="line87" />
    </g>
    <g
       transform="translate(96,52)"
       style="font-size:14px; text-rendering:geometricPrecision; color-rendering:optimizeQuality; image-rendering:optimizeQuality; font-family:'Helvetica Neue'; color-interpolation:linearRGB;"
       id="g93">
      <path
         style="stroke:none;"
         d="M1.764 -3.556 Q1.764 -4.088 1.876 -4.592 Q1.988 -5.096 2.24 -5.488 Q2.492 -5.88 2.912 -6.118 Q3.332 -6.356 3.934 -6.356 Q4.55 -6.356 4.984 -6.125 Q5.418 -5.894 5.691 -5.516 Q5.964 -5.138 6.09 -4.641 Q6.216 -4.144 6.216 -3.612 Q6.216 -3.108 6.097 -2.618 Q5.978 -2.128 5.712 -1.743 Q5.446 -1.358 5.026 -1.12 Q4.606 -0.882 4.004 -0.882 Q3.43 -0.882 3.003 -1.106 Q2.576 -1.33 2.303 -1.708 Q2.03 -2.086 1.897 -2.569 Q1.764 -3.052 1.764 -3.556 ZM7.364 2.758 L7.364 -7.238 L6.174 -7.238 L6.174 -6.272 L6.146 -6.272 Q5.95 -6.594 5.663 -6.811 Q5.376 -7.028 5.054 -7.161 Q4.732 -7.294 4.41 -7.35 Q4.088 -7.406 3.808 -7.406 Q2.982 -7.406 2.359 -7.105 Q1.736 -6.804 1.323 -6.293 Q0.91 -5.782 0.707 -5.096 Q0.504 -4.41 0.504 -3.64 Q0.504 -2.87 0.714 -2.184 Q0.924 -1.498 1.337 -0.98 Q1.75 -0.462 2.373 -0.154 Q2.996 0.154 3.836 0.154 Q4.592 0.154 5.222 -0.112 Q5.852 -0.378 6.146 -0.98 L6.174 -0.98 L6.174 2.758 Z"
         id="path91" />
    </g>
    <g
       transform="translate(105,59)"
       style="font-size:11.2px; text-rendering:geometricPrecision; color-rendering:optimizeQuality; image-rendering:optimizeQuality; font-family:'mwa_cmsy10'; color-interpolation:linearRGB;"
       id="g97">
      <path
         style="stroke:none;"
         d="M2.7031 0.125 Q2.0781 0.125 1.6016 -0.2422 Q1.125 -0.6094 0.875 -1.1875 Q0.625 -1.7656 0.625 -2.375 Q0.625 -2.8438 0.7656 -3.2891 Q0.9062 -3.7344 1.1875 -4.0859 Q1.4688 -4.4375 1.8672 -4.6484 Q2.2656 -4.8594 2.7344 -4.8594 Q3.2344 -4.8594 3.6953 -4.6719 Q4.1562 -4.4844 4.5391 -4.1719 Q4.9219 -3.8594 5.2656 -3.4531 L5.5938 -3.0156 Q5.9062 -3.5312 6.3047 -3.9453 Q6.7031 -4.3594 7.2109 -4.6094 Q7.7188 -4.8594 8.2812 -4.8594 Q8.7656 -4.8594 9.1562 -4.6484 Q9.5469 -4.4375 9.8203 -4.0703 Q10.0938 -3.7031 10.2344 -3.2578 Q10.375 -2.8125 10.375 -2.375 Q10.375 -1.75 10.1094 -1.1719 Q9.8438 -0.5938 9.3672 -0.2344 Q8.8906 0.125 8.25 0.125 Q7.5312 0.125 6.8828 -0.2656 Q6.2344 -0.6562 5.7344 -1.2969 L5.4062 -1.7344 Q4.9062 -0.9062 4.2188 -0.3906 Q3.5312 0.125 2.7031 0.125 ZM2.5938 -0.2656 Q3.9844 -0.2656 5.0938 -2.125 L4.5156 -2.875 Q4 -3.5469 3.5703 -3.9219 Q3.1406 -4.2969 2.5625 -4.2969 Q2.0781 -4.2969 1.6953 -4.0156 Q1.3125 -3.7344 1.1094 -3.2891 Q0.9062 -2.8438 0.9062 -2.3594 Q0.9062 -2 1.0234 -1.625 Q1.1406 -1.25 1.3594 -0.9453 Q1.5781 -0.6406 1.8906 -0.4531 Q2.2031 -0.2656 2.5938 -0.2656 ZM6.4844 -1.875 Q6.9844 -1.2031 7.4219 -0.8281 Q7.8594 -0.4531 8.4219 -0.4531 Q8.7969 -0.4531 9.1016 -0.6172 Q9.4062 -0.7812 9.625 -1.0547 Q9.8438 -1.3281 9.9688 -1.6719 Q10.0938 -2.0156 10.0938 -2.375 Q10.0938 -2.8906 9.8828 -3.375 Q9.6719 -3.8594 9.2891 -4.1719 Q8.9062 -4.4844 8.3906 -4.4844 Q7 -4.4844 5.8906 -2.6094 L6.4844 -1.875 Z"
         id="path95" />
    </g>
  </g>
  <rect
     style="opacity:0;fill:#000000;fill-opacity:0.00487803;stroke:#0a0000;stroke-width:7.55905533;stroke-miterlimit:4;stroke-dasharray:15.11811066, 7.55905533;stroke-dashoffset:0;stroke-opacity:1"
     id="rect107"
     width="40.932205"
     height="20.466103"
     x="84.533897"
     y="39.152542" />
  <rect
     style="opacity:0;fill:#000000;fill-opacity:0.00487803;stroke:#0a0000;stroke-width:7.55905533;stroke-miterlimit:4;stroke-dasharray:15.11811066, 7.55905533;stroke-dashoffset:0;stroke-opacity:1"
     id="rect109"
     width="17.79661"
     height="19.576271"
     x="130.80508"
     y="315" />
  <rect
     style="opacity:0;fill:#000000;fill-opacity:0.00487803;stroke:#0a0000;stroke-width:7.55905533;stroke-miterlimit:4;stroke-dasharray:15.11811066, 7.55905533;stroke-dashoffset:0;stroke-opacity:1"
     id="rect111"
     width="17.79661"
     height="29.364407"
     x="470.72034"
     y="308.77118" />
  <rect
     style="opacity:0;fill:#000000;fill-opacity:0.00487803;stroke:#0a0000;stroke-width:7.55905533;stroke-miterlimit:4;stroke-dasharray:15.11811066, 7.55905533;stroke-dashoffset:0;stroke-opacity:1"
     id="rect113"
     width="24.025423"
     height="24.025423"
     x="468.94067"
     y="42.711864" />
</svg>
