<?xml version="1.0" encoding="UTF-8" standalone="no"?>
<svg xmlns="http://www.w3.org/2000/svg"
     xmlns:xlink="http://www.w3.org/1999/xlink"
     width="1767px" height="1040px" viewBox="0 0 1767 1040">
<title>UNNAMED</title>
<desc>
Creator: GiD + GL2PS 1.3.8, (C) 1999-2012 C. Geuzaine
For: GiD-gl2ps
CreationDate: Wed Mar 25 16:54:18 2020
</desc>
<defs>
</defs>
<polygon fill="#ffffff" points="0,0 1767,0 1767,1040 0,1040"/>
<g shape-rendering="crispEdges">
<polyline fill="none" stroke="#1a1a1a" stroke-width="1" points="915.9,458.279 1044.25,468.174 976.969,363.014 915.9,458.279"/>
<polyline fill="none" stroke="#1a1a1a" stroke-width="1" points="1164.12,480.059 1276.23,493.179 1220.01,391.803 1164.12,480.059"/>
<polyline fill="none" stroke="#1a1a1a" stroke-width="1" points="1363.38,504.827 1276.23,516.476 1333.16,601.833 1363.38,504.827"/>
<polyline fill="none" stroke="#1a1a1a" stroke-width="1" points="1164.12,529.596 1044.25,541.48 1101.28,636.289 1164.12,529.596"/>
<polyline fill="none" stroke="#1a1a1a" stroke-width="1" points="1044.25,541.48 915.9,551.375 972.728,646.312 1044.25,541.48"/>
<polyline fill="none" stroke="#1a1a1a" stroke-width="1" points="915.9,551.375 787.303,557.061 845.88,647.409 915.9,551.375"/>
<polyline fill="none" stroke="#1a1a1a" stroke-width="1" points="787.303,557.061 664.613,555.931 719.113,643.692 787.303,557.061"/>
<polyline fill="none" stroke="#1a1a1a" stroke-width="1" points="664.613,555.931 550.316,543.454 601.509,629.039 664.613,555.931"/>
<polyline fill="none" stroke="#1a1a1a" stroke-width="1" points="550.316,543.454 476.273,504.827 490.542,598.049 550.316,543.454"/>
<polyline fill="none" stroke="#1a1a1a" stroke-width="1" points="476.273,504.827 550.316,466.201 491.712,405.339 476.273,504.827"/>
<polyline fill="none" stroke="#1a1a1a" stroke-width="1" points="550.316,466.201 664.613,453.723 599.484,377.86 550.316,466.201"/>
<polyline fill="none" stroke="#1a1a1a" stroke-width="1" points="664.613,453.723 787.303,452.593 717.65,364.946 664.613,453.723"/>
<polyline fill="none" stroke="#1a1a1a" stroke-width="1" points="787.303,452.593 915.9,458.279 849.073,361.792 787.303,452.593"/>
<polyline fill="none" stroke="#1a1a1a" stroke-width="1" points="915.9,458.279 976.969,363.014 849.073,361.792 915.9,458.279"/>
<polyline fill="none" stroke="#1a1a1a" stroke-width="1" points="1044.25,468.174 1164.12,480.059 1106.04,374.794 1044.25,468.174"/>
<polyline fill="none" stroke="#1a1a1a" stroke-width="1" points="1363.38,504.827 1333.16,601.833 1433.31,584.843 1363.38,504.827"/>
<polyline fill="none" stroke="#1a1a1a" stroke-width="1" points="1276.23,493.179 1363.38,504.827 1322.11,410.604 1276.23,493.179"/>
<polyline fill="none" stroke="#1a1a1a" stroke-width="1" points="1276.23,516.476 1164.12,529.596 1221.76,619.634 1276.23,516.476"/>
<polyline fill="none" stroke="#1a1a1a" stroke-width="1" points="1044.25,541.48 972.728,646.312 1101.28,636.289 1044.25,541.48"/>
<polyline fill="none" stroke="#1a1a1a" stroke-width="1" points="915.9,551.375 845.88,647.409 972.728,646.312 915.9,551.375"/>
<polyline fill="none" stroke="#1a1a1a" stroke-width="1" points="787.303,557.061 719.113,643.692 845.88,647.409 787.303,557.061"/>
<polyline fill="none" stroke="#1a1a1a" stroke-width="1" points="664.613,555.931 601.509,629.039 719.113,643.692 664.613,555.931"/>
<polyline fill="none" stroke="#1a1a1a" stroke-width="1" points="550.316,543.454 490.542,598.049 601.509,629.039 550.316,543.454"/>
<polyline fill="none" stroke="#1a1a1a" stroke-width="1" points="476.273,504.827 491.712,405.339 397.316,452.189 476.273,504.827"/>
<polyline fill="none" stroke="#1a1a1a" stroke-width="1" points="550.316,466.201 599.484,377.86 491.712,405.339 550.316,466.201"/>
<polyline fill="none" stroke="#1a1a1a" stroke-width="1" points="664.613,453.723 717.65,364.946 599.484,377.86 664.613,453.723"/>
<polyline fill="none" stroke="#1a1a1a" stroke-width="1" points="787.303,452.593 849.073,361.792 717.65,364.946 787.303,452.593"/>
<polyline fill="none" stroke="#1a1a1a" stroke-width="1" points="1322.11,410.604 1363.38,504.827 1424.19,410.526 1322.11,410.604"/>
<polyline fill="none" stroke="#1a1a1a" stroke-width="1" points="1106.04,374.794 1164.12,480.059 1220.01,391.803 1106.04,374.794"/>
<polyline fill="none" stroke="#1a1a1a" stroke-width="1" points="1044.25,468.174 1106.04,374.794 976.969,363.014 1044.25,468.174"/>
<polyline fill="none" stroke="#1a1a1a" stroke-width="1" points="1221.76,619.634 1164.12,529.596 1101.28,636.289 1221.76,619.634"/>
<polyline fill="none" stroke="#1a1a1a" stroke-width="1" points="1220.01,391.803 1276.23,493.179 1322.11,410.604 1220.01,391.803"/>
<polyline fill="none" stroke="#1a1a1a" stroke-width="1" points="1333.16,601.833 1276.23,516.476 1221.76,619.634 1333.16,601.833"/>
<polyline fill="none" stroke="#1a1a1a" stroke-width="1" points="490.542,598.049 476.273,504.827 396.027,552.604 490.542,598.049"/>
<polyline fill="none" stroke="#1a1a1a" stroke-width="1" points="476.273,504.827 397.316,452.189 396.027,552.604 476.273,504.827"/>
<polyline fill="none" stroke="#1a1a1a" stroke-width="1" points="1424.19,410.526 1363.38,504.827 1484.42,495.469 1424.19,410.526"/>
<polyline fill="none" stroke="#1a1a1a" stroke-width="1" points="1363.38,504.827 1433.31,584.843 1484.42,495.469 1363.38,504.827"/>
<polyline fill="none" stroke="#1a1a1a" stroke-width="1" points="1333.16,601.833 1221.76,619.634 1290.61,713.362 1333.16,601.833"/>
<polyline fill="none" stroke="#1a1a1a" stroke-width="1" points="1101.28,636.289 972.728,646.312 1036.55,742.584 1101.28,636.289"/>
<polyline fill="none" stroke="#1a1a1a" stroke-width="1" points="397.316,452.189 491.712,405.339 414.763,343.879 397.316,452.189"/>
<polyline fill="none" stroke="#1a1a1a" stroke-width="1" points="491.712,405.339 599.484,377.86 527.043,305.477 491.712,405.339"/>
<polyline fill="none" stroke="#1a1a1a" stroke-width="1" points="1322.11,410.604 1424.19,410.526 1372.4,334.249 1322.11,410.604"/>
<polyline fill="none" stroke="#1a1a1a" stroke-width="1" points="1433.31,584.843 1333.16,601.833 1397.6,686.448 1433.31,584.843"/>
<polyline fill="none" stroke="#1a1a1a" stroke-width="1" points="1333.16,601.833 1290.61,713.362 1397.6,686.448 1333.16,601.833"/>
<polyline fill="none" stroke="#1a1a1a" stroke-width="1" points="1106.04,374.794 1220.01,391.803 1171.58,285.274 1106.04,374.794"/>
<polyline fill="none" stroke="#1a1a1a" stroke-width="1" points="976.969,363.014 1106.04,374.794 1045.96,268.145 976.969,363.014"/>
<polyline fill="none" stroke="#1a1a1a" stroke-width="1" points="1106.04,374.794 1171.58,285.274 1045.96,268.145 1106.04,374.794"/>
<polyline fill="none" stroke="#1a1a1a" stroke-width="1" points="1220.01,391.803 1322.11,410.604 1283.05,309.808 1220.01,391.803"/>
<polyline fill="none" stroke="#1a1a1a" stroke-width="1" points="1322.11,410.604 1372.4,334.249 1283.05,309.808 1322.11,410.604"/>
<polyline fill="none" stroke="#1a1a1a" stroke-width="1" points="1221.76,619.634 1101.28,636.289 1169.25,730.778 1221.76,619.634"/>
<polyline fill="none" stroke="#1a1a1a" stroke-width="1" points="1290.61,713.362 1221.76,619.634 1169.25,730.778 1290.61,713.362"/>
<polyline fill="none" stroke="#1a1a1a" stroke-width="1" points="1101.28,636.289 1036.55,742.584 1169.25,730.778 1101.28,636.289"/>
<polyline fill="none" stroke="#1a1a1a" stroke-width="1" points="845.88,647.409 719.113,643.692 773.649,742.577 845.88,647.409"/>
<polyline fill="none" stroke="#1a1a1a" stroke-width="1" points="719.113,643.692 601.509,629.039 651.407,727.694 719.113,643.692"/>
<polyline fill="none" stroke="#1a1a1a" stroke-width="1" points="601.509,629.039 490.542,598.049 524.938,698.35 601.509,629.039"/>
<polyline fill="none" stroke="#1a1a1a" stroke-width="1" points="599.484,377.86 717.65,364.946 645.554,278.886 599.484,377.86"/>
<polyline fill="none" stroke="#1a1a1a" stroke-width="1" points="717.65,364.946 849.073,361.792 775.496,264.396 717.65,364.946"/>
<polyline fill="none" stroke="#1a1a1a" stroke-width="1" points="849.073,361.792 976.969,363.014 913.289,260.751 849.073,361.792"/>
<polyline fill="none" stroke="#1a1a1a" stroke-width="1" points="490.542,598.049 396.027,552.604 411.269,657.704 490.542,598.049"/>
<polyline fill="none" stroke="#1a1a1a" stroke-width="1" points="397.316,452.189 414.763,343.879 309.144,393.768 397.316,452.189"/>
<polyline fill="none" stroke="#1a1a1a" stroke-width="1" points="645.554,278.886 717.65,364.946 775.496,264.396 645.554,278.886"/>
<polyline fill="none" stroke="#1a1a1a" stroke-width="1" points="491.712,405.339 527.043,305.477 414.763,343.879 491.712,405.339"/>
<polyline fill="none" stroke="#1a1a1a" stroke-width="1" points="527.043,305.477 599.484,377.86 645.554,278.886 527.043,305.477"/>
<polyline fill="none" stroke="#1a1a1a" stroke-width="1" points="1036.55,742.584 972.728,646.312 903.116,745.979 1036.55,742.584"/>
<polyline fill="none" stroke="#1a1a1a" stroke-width="1" points="972.728,646.312 845.88,647.409 903.116,745.979 972.728,646.312"/>
<polyline fill="none" stroke="#1a1a1a" stroke-width="1" points="1424.19,410.526 1484.42,495.469 1532.65,388.502 1424.19,410.526"/>
<polyline fill="none" stroke="#1a1a1a" stroke-width="1" points="490.542,598.049 411.269,657.704 524.938,698.35 490.542,598.049"/>
<polyline fill="none" stroke="#1a1a1a" stroke-width="1" points="651.407,727.694 601.509,629.039 524.938,698.35 651.407,727.694"/>
<polyline fill="none" stroke="#1a1a1a" stroke-width="1" points="1433.31,584.843 1397.6,686.448 1488.01,662.452 1433.31,584.843"/>
<polyline fill="none" stroke="#1a1a1a" stroke-width="1" points="1220.01,391.803 1283.05,309.808 1171.58,285.274 1220.01,391.803"/>
<polyline fill="none" stroke="#1a1a1a" stroke-width="1" points="976.969,363.014 1045.96,268.145 913.289,260.751 976.969,363.014"/>
<polyline fill="none" stroke="#1a1a1a" stroke-width="1" points="775.496,264.396 849.073,361.792 913.289,260.751 775.496,264.396"/>
<polyline fill="none" stroke="#1a1a1a" stroke-width="1" points="773.649,742.577 719.113,643.692 651.407,727.694 773.649,742.577"/>
<polyline fill="none" stroke="#1a1a1a" stroke-width="1" points="396.027,552.604 397.316,452.189 303.704,502.707 396.027,552.604"/>
<polyline fill="none" stroke="#1a1a1a" stroke-width="1" points="397.316,452.189 309.144,393.768 303.704,502.707 397.316,452.189"/>
<polyline fill="none" stroke="#1a1a1a" stroke-width="1" points="1484.42,495.469 1433.31,584.843 1550.74,582.495 1484.42,495.469"/>
<polyline fill="none" stroke="#1a1a1a" stroke-width="1" points="1433.31,584.843 1488.01,662.452 1550.74,582.495 1433.31,584.843"/>
<polyline fill="none" stroke="#1a1a1a" stroke-width="1" points="845.88,647.409 773.649,742.577 903.116,745.979 845.88,647.409"/>
<polyline fill="none" stroke="#1a1a1a" stroke-width="1" points="1372.4,334.249 1424.19,410.526 1457.12,301.9 1372.4,334.249"/>
<polyline fill="none" stroke="#1a1a1a" stroke-width="1" points="1424.19,410.526 1532.65,388.502 1457.12,301.9 1424.19,410.526"/>
<polyline fill="none" stroke="#1a1a1a" stroke-width="1" points="309.144,393.768 414.763,343.879 325.713,277.558 309.144,393.768"/>
<polyline fill="none" stroke="#1a1a1a" stroke-width="1" points="645.554,278.886 775.496,264.396 696.008,171.943 645.554,278.886"/>
<polyline fill="none" stroke="#1a1a1a" stroke-width="1" points="1532.65,388.502 1484.42,495.469 1609.39,485.203 1532.65,388.502"/>
<polyline fill="none" stroke="#1a1a1a" stroke-width="1" points="1484.42,495.469 1550.74,582.495 1609.39,485.203 1484.42,495.469"/>
<polyline fill="none" stroke="#1a1a1a" stroke-width="1" points="524.938,698.35 411.269,657.704 439.914,769.022 524.938,698.35"/>
<polyline fill="none" stroke="#1a1a1a" stroke-width="1" points="651.407,727.694 524.938,698.35 570.543,809.276 651.407,727.694"/>
<polyline fill="none" stroke="#1a1a1a" stroke-width="1" points="411.269,657.704 396.027,552.604 307.98,606.315 411.269,657.704"/>
<polyline fill="none" stroke="#1a1a1a" stroke-width="1" points="396.027,552.604 303.704,502.707 307.98,606.315 396.027,552.604"/>
<polyline fill="none" stroke="#1a1a1a" stroke-width="1" points="527.043,305.477 645.554,278.886 568.228,196.127 527.043,305.477"/>
<polyline fill="none" stroke="#1a1a1a" stroke-width="1" points="645.554,278.886 696.008,171.943 568.228,196.127 645.554,278.886"/>
<polyline fill="none" stroke="#1a1a1a" stroke-width="1" points="1171.58,285.274 1283.05,309.808 1251.53,196.726 1171.58,285.274"/>
<polyline fill="none" stroke="#1a1a1a" stroke-width="1" points="913.289,260.751 1045.96,268.145 987.273,157.256 913.289,260.751"/>
<polyline fill="none" stroke="#1a1a1a" stroke-width="1" points="1283.05,309.808 1372.4,334.249 1366.43,239.855 1283.05,309.808"/>
<polyline fill="none" stroke="#1a1a1a" stroke-width="1" points="903.116,745.979 773.649,742.577 828.876,849.556 903.116,745.979"/>
<polyline fill="none" stroke="#1a1a1a" stroke-width="1" points="775.496,264.396 913.289,260.751 840.109,155.912 775.496,264.396"/>
<polyline fill="none" stroke="#1a1a1a" stroke-width="1" points="414.763,343.879 527.043,305.477 443.313,232.626 414.763,343.879"/>
<polyline fill="none" stroke="#1a1a1a" stroke-width="1" points="1488.01,662.452 1397.6,686.448 1477.17,758.929 1488.01,662.452"/>
<polyline fill="none" stroke="#1a1a1a" stroke-width="1" points="1045.96,268.145 1171.58,285.274 1126.68,169.817 1045.96,268.145"/>
<polyline fill="none" stroke="#1a1a1a" stroke-width="1" points="987.273,157.256 1045.96,268.145 1126.68,169.817 987.273,157.256"/>
<polyline fill="none" stroke="#1a1a1a" stroke-width="1" points="1171.58,285.274 1251.53,196.726 1126.68,169.817 1171.58,285.274"/>
<polyline fill="none" stroke="#1a1a1a" stroke-width="1" points="1397.6,686.448 1290.61,713.362 1368.37,795.587 1397.6,686.448"/>
<polyline fill="none" stroke="#1a1a1a" stroke-width="1" points="773.649,742.577 651.407,727.694 697.455,831.888 773.649,742.577"/>
<polyline fill="none" stroke="#1a1a1a" stroke-width="1" points="651.407,727.694 570.543,809.276 697.455,831.888 651.407,727.694"/>
<polyline fill="none" stroke="#1a1a1a" stroke-width="1" points="1036.55,742.584 903.116,745.979 968.182,856.838 1036.55,742.584"/>
<polyline fill="none" stroke="#1a1a1a" stroke-width="1" points="309.144,393.768 325.713,277.558 210.578,329.625 309.144,393.768"/>
<polyline fill="none" stroke="#1a1a1a" stroke-width="1" points="775.496,264.396 840.109,155.912 696.008,171.943 775.496,264.396"/>
<polyline fill="none" stroke="#1a1a1a" stroke-width="1" points="903.116,745.979 828.876,849.556 968.182,856.838 903.116,745.979"/>
<polyline fill="none" stroke="#1a1a1a" stroke-width="1" points="414.763,343.879 443.313,232.626 325.713,277.558 414.763,343.879"/>
<polyline fill="none" stroke="#1a1a1a" stroke-width="1" points="1532.65,388.502 1609.39,485.203 1651.45,361.566 1532.65,388.502"/>
<polyline fill="none" stroke="#1a1a1a" stroke-width="1" points="439.914,769.022 411.269,657.704 322.112,719.759 439.914,769.022"/>
<polyline fill="none" stroke="#1a1a1a" stroke-width="1" points="411.269,657.704 307.98,606.315 322.112,719.759 411.269,657.704"/>
<polyline fill="none" stroke="#1a1a1a" stroke-width="1" points="1036.55,742.584 968.182,856.838 1111.1,848.166 1036.55,742.584 1111.1,848.166 1169.25,730.778 1036.55,742.584"/>
<polyline fill="none" stroke="#1a1a1a" stroke-width="1" points="1372.4,334.249 1457.12,301.9 1366.43,239.855 1372.4,334.249"/>
<polyline fill="none" stroke="#1a1a1a" stroke-width="1" points="527.043,305.477 568.228,196.127 443.313,232.626 527.043,305.477"/>
<polyline fill="none" stroke="#1a1a1a" stroke-width="1" points="913.289,260.751 987.273,157.256 840.109,155.912 913.289,260.751"/>
<polyline fill="none" stroke="#1a1a1a" stroke-width="1" points="1283.05,309.808 1366.43,239.855 1251.53,196.726 1283.05,309.808"/>
<polyline fill="none" stroke="#1a1a1a" stroke-width="1" points="1397.6,686.448 1368.37,795.587 1477.17,758.929 1397.6,686.448"/>
<polyline fill="none" stroke="#1a1a1a" stroke-width="1" points="828.876,849.556 773.649,742.577 697.455,831.888 828.876,849.556"/>
<polyline fill="none" stroke="#1a1a1a" stroke-width="1" points="524.938,698.35 439.914,769.022 570.543,809.276 524.938,698.35"/>
<polyline fill="none" stroke="#1a1a1a" stroke-width="1" points="1488.01,662.452 1477.17,758.929 1582.06,695.119 1488.01,662.452"/>
<polyline fill="none" stroke="#1a1a1a" stroke-width="1" points="303.704,502.707 309.144,393.768 206.833,447.323 303.704,502.707"/>
<polyline fill="none" stroke="#1a1a1a" stroke-width="1" points="309.144,393.768 210.578,329.625 206.833,447.323 309.144,393.768"/>
<polyline fill="none" stroke="#1a1a1a" stroke-width="1" points="1550.74,582.495 1488.01,662.452 1582.06,695.119 1550.74,582.495"/>
<polyline fill="none" stroke="#1a1a1a" stroke-width="1" points="1457.12,301.9 1532.65,388.502 1560.95,263.048 1457.12,301.9"/>
<polyline fill="none" stroke="#1a1a1a" stroke-width="1" points="1532.65,388.502 1651.45,361.566 1560.95,263.048 1532.65,388.502"/>
<polyline fill="none" stroke="#1a1a1a" stroke-width="1" points="1290.61,713.362 1169.25,730.778 1248.84,824.493 1290.61,713.362"/>
<polyline fill="none" stroke="#1a1a1a" stroke-width="1" points="1368.37,795.587 1290.61,713.362 1248.84,824.493 1368.37,795.587"/>
<polyline fill="none" stroke="#1a1a1a" stroke-width="1" points="1169.25,730.778 1111.1,848.166 1248.84,824.493 1169.25,730.778"/>
<polyline fill="none" stroke="#1a1a1a" stroke-width="1" points="696.008,171.943 840.109,155.912 760.392,51.0105 696.008,171.943"/>
<polyline fill="none" stroke="#1a1a1a" stroke-width="1" points="968.182,856.838 828.876,849.556 893.597,965.115 968.182,856.838"/>
<polyline fill="none" stroke="#1a1a1a" stroke-width="1" points="1477.17,758.929 1368.37,795.587 1453.35,874.389 1477.17,758.929"/>
<polyline fill="none" stroke="#1a1a1a" stroke-width="1" points="1550.74,582.495 1582.06,695.119 1685,599.95 1550.74,582.495"/>
<polyline fill="none" stroke="#1a1a1a" stroke-width="1" points="325.713,277.558 443.313,232.626 349.037,157.032 325.713,277.558"/>
<polyline fill="none" stroke="#1a1a1a" stroke-width="1" points="1651.45,361.566 1609.39,485.203 1736.7,461.719 1651.45,361.566"/>
<polyline fill="none" stroke="#1a1a1a" stroke-width="1" points="1111.1,848.166 968.182,856.838 1044.74,968.673 1111.1,848.166"/>
<polyline fill="none" stroke="#1a1a1a" stroke-width="1" points="1366.43,239.855 1457.12,301.9 1465.8,187.469 1366.43,239.855"/>
<polyline fill="none" stroke="#1a1a1a" stroke-width="1" points="1457.12,301.9 1560.95,263.048 1465.8,187.469 1457.12,301.9"/>
<polyline fill="none" stroke="#1a1a1a" stroke-width="1" points="840.109,155.912 987.273,157.256 911.699,42.2041 840.109,155.912"/>
<polyline fill="none" stroke="#1a1a1a" stroke-width="1" points="1251.53,196.726 1366.43,239.855 1348.56,120.503 1251.53,196.726"/>
<polyline fill="none" stroke="#1a1a1a" stroke-width="1" points="1582.06,695.119 1477.17,758.929 1572.94,820.644 1582.06,695.119"/>
<polyline fill="none" stroke="#1a1a1a" stroke-width="1" points="1477.17,758.929 1453.35,874.389 1572.94,820.644 1477.17,758.929"/>
<polyline fill="none" stroke="#1a1a1a" stroke-width="1" points="210.578,329.625 325.713,277.558 223.463,207.435 210.578,329.625"/>
<polyline fill="none" stroke="#1a1a1a" stroke-width="1" points="325.713,277.558 349.037,157.032 223.463,207.435 325.713,277.558"/>
<polyline fill="none" stroke="#1a1a1a" stroke-width="1" points="697.455,831.888 570.543,809.276 609.469,925.933 697.455,831.888"/>
<polyline fill="none" stroke="#1a1a1a" stroke-width="1" points="443.313,232.626 568.228,196.127 479.392,112.932 443.313,232.626"/>
<polyline fill="none" stroke="#1a1a1a" stroke-width="1" points="570.543,809.276 439.914,769.022 475.869,892.621 570.543,809.276"/>
<polyline fill="none" stroke="#1a1a1a" stroke-width="1" points="568.228,196.127 696.008,171.943 614.514,78.8399 568.228,196.127"/>
<polyline fill="none" stroke="#1a1a1a" stroke-width="1" points="696.008,171.943 760.392,51.0105 614.514,78.8399 696.008,171.943"/>
<polyline fill="none" stroke="#1a1a1a" stroke-width="1" points="307.98,606.315 303.704,502.707 206.89,556.669 307.98,606.315"/>
<polyline fill="none" stroke="#1a1a1a" stroke-width="1" points="303.704,502.707 206.833,447.323 206.89,556.669 303.704,502.707"/>
<polyline fill="none" stroke="#1a1a1a" stroke-width="1" points="1609.39,485.203 1550.74,582.495 1685,599.95 1609.39,485.203"/>
<polyline fill="none" stroke="#1a1a1a" stroke-width="1" points="968.182,856.838 893.597,965.115 1044.74,968.673 968.182,856.838"/>
<polyline fill="none" stroke="#1a1a1a" stroke-width="1" points="697.455,831.888 609.469,925.933 753.235,949.343 697.455,831.888"/>
<polyline fill="none" stroke="#1a1a1a" stroke-width="1" points="307.98,606.315 206.89,556.669 209.485,667.437 307.98,606.315"/>
<polyline fill="none" stroke="#1a1a1a" stroke-width="1" points="1111.1,848.166 1044.74,968.673 1196,952.724 1111.1,848.166"/>
<polyline fill="none" stroke="#1a1a1a" stroke-width="1" points="210.578,329.625 223.463,207.435 104.189,259.259 210.578,329.625"/>
<polyline fill="none" stroke="#1a1a1a" stroke-width="1" points="570.543,809.276 475.869,892.621 609.469,925.933 570.543,809.276"/>
<polyline fill="none" stroke="#1a1a1a" stroke-width="1" points="1582.06,695.119 1572.94,820.644 1693.59,752.036 1582.06,695.119"/>
<polyline fill="none" stroke="#1a1a1a" stroke-width="1" points="1685,599.95 1582.06,695.119 1693.59,752.036 1685,599.95"/>
<polyline fill="none" stroke="#1a1a1a" stroke-width="1" points="1736.7,461.719 1609.39,485.203 1685,599.95 1736.7,461.719"/>
<polyline fill="none" stroke="#1a1a1a" stroke-width="1" points="1767,326.485 1651.45,361.566 1736.7,461.719 1767,354.546 1767,326.485"/>
<polyline fill="none" stroke="#1a1a1a" stroke-width="1" points="209.485,667.437 322.112,719.759 307.98,606.315 209.485,667.437"/>
<polyline fill="none" stroke="#1a1a1a" stroke-width="1" points="828.876,849.556 697.455,831.888 753.235,949.343 828.876,849.556"/>
<polyline fill="none" stroke="#1a1a1a" stroke-width="1" points="341.97,844.442 439.914,769.022 322.112,719.759 341.97,844.442"/>
<polyline fill="none" stroke="#1a1a1a" stroke-width="1" points="1348.56,120.503 1366.43,239.855 1465.8,187.469 1348.56,120.503"/>
<polyline fill="none" stroke="#1a1a1a" stroke-width="1" points="341.97,844.442 475.869,892.621 439.914,769.022 341.97,844.442"/>
<polyline fill="none" stroke="#1a1a1a" stroke-width="1" points="1336.12,917.673 1453.35,874.389 1368.37,795.587 1336.12,917.673 1368.37,795.587 1248.84,824.493 1336.12,917.673"/>
<polyline fill="none" stroke="#1a1a1a" stroke-width="1" points="760.392,51.0105 840.109,155.912 911.699,42.2041 760.392,51.0105"/>
<polyline fill="none" stroke="#1a1a1a" stroke-width="1" points="1219.21,74.2055 1251.53,196.726 1348.56,120.503 1219.21,74.2055"/>
<polyline fill="none" stroke="#1a1a1a" stroke-width="1" points="479.392,112.932 349.037,157.032 443.313,232.626 479.392,112.932"/>
<polyline fill="none" stroke="#1a1a1a" stroke-width="1" points="1072.47,47.8282 987.273,157.256 1126.68,169.817 1072.47,47.8282"/>
<polyline fill="none" stroke="#1a1a1a" stroke-width="1" points="753.235,949.343 893.597,965.115 828.876,849.556 753.235,949.343"/>
<polyline fill="none" stroke="#1a1a1a" stroke-width="1" points="101.463,382.955 206.833,447.323 210.578,329.625 101.463,382.955 210.578,329.625 104.189,259.259 101.463,382.955"/>
<polyline fill="none" stroke="#1a1a1a" stroke-width="1" points="1219.21,74.2055 1126.68,169.817 1251.53,196.726 1219.21,74.2055"/>
<polyline fill="none" stroke="#1a1a1a" stroke-width="1" points="479.392,112.932 568.228,196.127 614.514,78.8399 479.392,112.932"/>
<polyline fill="none" stroke="#1a1a1a" stroke-width="1" points="1676.79,222.98 1560.95,263.048 1651.45,361.566 1676.79,222.98 1651.45,361.566 1767,326.485 1767,314.997 1676.79,222.98"/>
<polyline fill="none" stroke="#1a1a1a" stroke-width="1" points="1072.47,47.8282 911.699,42.2041 987.273,157.256 1072.47,47.8282"/>
<polyline fill="none" stroke="#1a1a1a" stroke-width="1" points="1196,952.724 1248.84,824.493 1111.1,848.166 1196,952.724"/>
<polyline fill="none" stroke="#1a1a1a" stroke-width="1" points="671.256,1040 753.235,949.343 609.469,925.933 653.036,1040 671.256,1040"/>
<polyline fill="none" stroke="#1a1a1a" stroke-width="1" points="369.109,977.032 475.869,892.621 341.97,844.442 369.109,977.032"/>
<polyline fill="none" stroke="#1a1a1a" stroke-width="1" points="1072.47,47.8282 1126.68,169.817 1219.21,74.2055 1072.47,47.8282"/>
<polyline fill="none" stroke="#1a1a1a" stroke-width="1" points="113.361,129.793 104.189,259.259 223.463,207.435 113.361,129.793"/>
<polyline fill="none" stroke="#1a1a1a" stroke-width="1" points="1156.1,1040 1196,952.724 1044.74,968.673 1098.93,1040 1156.1,1040"/>
<polyline fill="none" stroke="#1a1a1a" stroke-width="1" points="513.384,1019.76 609.469,925.933 475.869,892.621 513.384,1019.76"/>
<polyline fill="none" stroke="#1a1a1a" stroke-width="1" points="1428.87,1005.37 1453.35,874.389 1336.12,917.673 1428.87,1005.37"/>
<polyline fill="none" stroke="#1a1a1a" stroke-width="1" points="1685.56,898.007 1693.59,752.036 1572.94,820.644 1685.56,898.007"/>
<polyline fill="none" stroke="#1a1a1a" stroke-width="1" points="1767,656.346 1685,599.95 1693.59,752.036 1767,715.452 1767,656.346"/>
<polyline fill="none" stroke="#1a1a1a" stroke-width="1" points="1767,354.546 1736.7,461.719 1767,451.567 1767,354.546"/>
<polyline fill="none" stroke="#1a1a1a" stroke-width="1" points="217.429,787.537 322.112,719.759 209.485,667.437 217.429,787.537 341.97,844.442 322.112,719.759 217.429,787.537"/>
<polyline fill="none" stroke="#1a1a1a" stroke-width="1" points="515.889,0 479.392,112.932 614.514,78.8399 540.757,0 515.889,0"/>
<polyline fill="none" stroke="#1a1a1a" stroke-width="1" points="1115.66,0 1072.47,47.8282 1219.21,74.2055 1193.67,0 1115.66,0"/>
<polyline fill="none" stroke="#1a1a1a" stroke-width="1" points="1460.29,55.9009 1348.56,120.503 1465.8,187.469 1460.29,55.9009"/>
<polyline fill="none" stroke="#1a1a1a" stroke-width="1" points="999.156,1040 1044.74,968.673 893.597,965.115 936.287,1040 999.156,1040"/>
<polyline fill="none" stroke="#1a1a1a" stroke-width="1" points="1307.63,0 1219.21,74.2055 1348.56,120.503 1328.89,0 1307.63,0"/>
<polyline fill="none" stroke="#1a1a1a" stroke-width="1" points="1767,489.478 1736.7,461.719 1685,599.95 1767,573.431 1767,489.478"/>
<polyline fill="none" stroke="#1a1a1a" stroke-width="1" points="1767,451.567 1736.7,461.719 1767,489.478 1767,451.567"/>
<polyline fill="none" stroke="#1a1a1a" stroke-width="1" points="1767,573.431 1685,599.95 1767,656.346 1767,573.431"/>
<polyline fill="none" stroke="#1a1a1a" stroke-width="1" points="1196,952.724 1336.12,917.673 1248.84,824.493 1196,952.724"/>
<polyline fill="none" stroke="#1a1a1a" stroke-width="1" points="787.516,0 760.392,51.0105 911.699,42.2041 879.903,0 787.516,0"/>
<polyline fill="none" stroke="#1a1a1a" stroke-width="1" points="377.878,22.8417 349.037,157.032 479.392,112.932 377.878,22.8417 479.392,112.932 515.889,0 455.304,0 377.878,22.8417"/>
<polyline fill="none" stroke="#1a1a1a" stroke-width="1" points="840.507,1040 893.597,965.115 753.235,949.343 795.307,1040 840.507,1040"/>
<polyline fill="none" stroke="#1a1a1a" stroke-width="1" points="936.287,1040 893.597,965.115 840.507,1040 936.287,1040"/>
<polyline fill="none" stroke="#1a1a1a" stroke-width="1" points="795.307,1040 753.235,949.343 671.256,1040 795.307,1040"/>
<polyline fill="none" stroke="#1a1a1a" stroke-width="1" points="944.268,0 911.699,42.2041 1072.47,47.8282 1045.96,0 944.268,0"/>
<polyline fill="none" stroke="#1a1a1a" stroke-width="1" points="1045.96,0 1072.47,47.8282 1115.66,0 1045.96,0"/>
<polyline fill="none" stroke="#1a1a1a" stroke-width="1" points="1557.17,957.617 1572.94,820.644 1453.35,874.389 1557.17,957.617 1685.56,898.007 1572.94,820.644 1557.17,957.617 1453.35,874.389 1428.87,1005.37 1557.17,957.617"/>
<polyline fill="none" stroke="#1a1a1a" stroke-width="1" points="242.067,70.8466 223.463,207.435 349.037,157.032 242.067,70.8466 113.361,129.793 223.463,207.435 242.067,70.8466 349.037,157.032 377.878,22.8417 242.067,70.8466"/>
<polyline fill="none" stroke="#1a1a1a" stroke-width="1" points="648.83,0 614.514,78.8399 760.392,51.0105 715.97,0 648.83,0"/>
<polyline fill="none" stroke="#1a1a1a" stroke-width="1" points="206.89,556.669 206.833,447.323 102.044,502.358 206.89,556.669"/>
<polyline fill="none" stroke="#1a1a1a" stroke-width="1" points="206.833,447.323 101.463,382.955 102.044,502.358 206.833,447.323"/>
<polyline fill="none" stroke="#1a1a1a" stroke-width="1" points="209.485,667.437 206.89,556.669 102.292,617.219 209.485,667.437"/>
<polyline fill="none" stroke="#1a1a1a" stroke-width="1" points="1465.8,187.469 1560.95,263.048 1575.13,135.417 1465.8,187.469"/>
<polyline fill="none" stroke="#1a1a1a" stroke-width="1" points="1296.16,1040 1336.12,917.673 1196,952.724 1275.97,1040 1296.16,1040"/>
<polyline fill="none" stroke="#1a1a1a" stroke-width="1" points="513.384,1019.76 475.869,892.621 369.109,977.032 513.384,1019.76"/>
<polyline fill="none" stroke="#1a1a1a" stroke-width="1" points="1575.13,135.417 1560.95,263.048 1676.79,222.98 1575.13,135.417"/>
<polyline fill="none" stroke="#1a1a1a" stroke-width="1" points="1328.89,0 1348.56,120.503 1460.29,55.9009 1355.71,0 1328.89,0"/>
<polyline fill="none" stroke="#1a1a1a" stroke-width="1" points="0,194.132 104.189,259.259 113.361,129.793 0,182.117 0,194.132"/>
<polyline fill="none" stroke="#1a1a1a" stroke-width="1" points="1275.97,1040 1196,952.724 1156.1,1040 1275.97,1040"/>
<polyline fill="none" stroke="#1a1a1a" stroke-width="1" points="653.036,1040 609.469,925.933 513.384,1019.76 598.727,1040 653.036,1040"/>
<polyline fill="none" stroke="#1a1a1a" stroke-width="1" points="1767,804.594 1693.59,752.036 1685.56,898.007 1767,857.007 1767,804.594"/>
<polyline fill="none" stroke="#1a1a1a" stroke-width="1" points="1193.67,0 1219.21,74.2055 1307.63,0 1193.67,0"/>
<polyline fill="none" stroke="#1a1a1a" stroke-width="1" points="1098.93,1040 1044.74,968.673 999.156,1040 1098.93,1040"/>
<polyline fill="none" stroke="#1a1a1a" stroke-width="1" points="102.292,617.219 206.89,556.669 102.044,502.358 102.292,617.219"/>
<polyline fill="none" stroke="#1a1a1a" stroke-width="1" points="108.765,730.509 217.429,787.537 209.485,667.437 108.765,730.509 209.485,667.437 102.292,617.219 108.765,730.509"/>
<polyline fill="none" stroke="#1a1a1a" stroke-width="1" points="715.97,0 760.392,51.0105 787.516,0 715.97,0"/>
<polyline fill="none" stroke="#1a1a1a" stroke-width="1" points="1767,715.452 1693.59,752.036 1767,804.594 1767,715.452"/>
<polyline fill="none" stroke="#1a1a1a" stroke-width="1" points="0,312.234 104.189,259.259 0,194.132 0,312.234"/>
<polyline fill="none" stroke="#1a1a1a" stroke-width="1" points="879.903,0 911.699,42.2041 944.268,0 879.903,0"/>
<polyline fill="none" stroke="#1a1a1a" stroke-width="1" points="1334.92,1040 1428.87,1005.37 1336.12,917.673 1296.16,1040 1334.92,1040"/>
<polyline fill="none" stroke="#1a1a1a" stroke-width="1" points="540.757,0 614.514,78.8399 648.83,0 540.757,0"/>
<polyline fill="none" stroke="#1a1a1a" stroke-width="1" points="1575.13,135.417 1460.29,55.9009 1465.8,187.469 1575.13,135.417"/>
<polyline fill="none" stroke="#1a1a1a" stroke-width="1" points="231.55,919.779 369.109,977.032 341.97,844.442 231.55,919.779 341.97,844.442 217.429,787.537 231.55,919.779"/>
<polyline fill="none" stroke="#1a1a1a" stroke-width="1" points="0,322.953 101.463,382.955 104.189,259.259 0,312.234 0,322.953"/>
<polyline fill="none" stroke="#1a1a1a" stroke-width="1" points="1767,192.144 1676.79,222.98 1767,314.997 1767,192.144"/>
<polyline fill="none" stroke="#1a1a1a" stroke-width="1" points="490.856,1040 513.384,1019.76 369.109,977.032 384.996,1040 490.856,1040"/>
<polyline fill="none" stroke="#1a1a1a" stroke-width="1" points="1355.71,0 1460.29,55.9009 1455.48,0 1355.71,0"/>
<polyline fill="none" stroke="#1a1a1a" stroke-width="1" points="0,182.117 113.361,129.793 0,51.3164 0,182.117"/>
<polyline fill="none" stroke="#1a1a1a" stroke-width="1" points="1571.65,0 1460.29,55.9009 1575.13,135.417 1577.38,0 1571.65,0"/>
<polyline fill="none" stroke="#1a1a1a" stroke-width="1" points="1767,857.007 1685.56,898.007 1767,961.649 1767,857.007"/>
<polyline fill="none" stroke="#1a1a1a" stroke-width="1" points="383.762,0 377.878,22.8417 455.304,0 383.762,0"/>
<polyline fill="none" stroke="#1a1a1a" stroke-width="1" points="1694.16,83.3363 1575.13,135.417 1676.79,222.98 1694.16,83.3363 1581.34,0 1577.38,0 1575.13,135.417 1694.16,83.3363 1676.79,222.98 1767,192.144 1767,143.917 1694.16,83.3363"/>
<polyline fill="none" stroke="#1a1a1a" stroke-width="1" points="1421.82,1040 1428.87,1005.37 1334.92,1040 1421.82,1040"/>
<polyline fill="none" stroke="#1a1a1a" stroke-width="1" points="0,569.954 102.292,617.219 102.044,502.358 0,560.15 0,569.954"/>
<polyline fill="none" stroke="#1a1a1a" stroke-width="1" points="598.727,1040 513.384,1019.76 519.307,1040 598.727,1040"/>
<polyline fill="none" stroke="#1a1a1a" stroke-width="1" points="0,446.13 102.044,502.358 101.463,382.955 0,438.314 0,446.13"/>
<polyline fill="none" stroke="#1a1a1a" stroke-width="1" points="0,560.15 102.044,502.358 0,446.13 0,560.15"/>
<polyline fill="none" stroke="#1a1a1a" stroke-width="1" points="0,438.314 101.463,382.955 0,322.953 0,438.314"/>
<polyline fill="none" stroke="#1a1a1a" stroke-width="1" points="1455.48,0 1460.29,55.9009 1571.65,0 1455.48,0"/>
<polyline fill="none" stroke="#1a1a1a" stroke-width="1" points="1682.42,1040 1767,1001.99 1767,961.649 1685.56,898.007 1672.14,1040 1682.42,1040"/>
<polyline fill="none" stroke="#1a1a1a" stroke-width="1" points="1672.14,1040 1685.56,898.007 1557.17,957.617 1665.35,1040 1672.14,1040"/>
<polyline fill="none" stroke="#1a1a1a" stroke-width="1" points="97.1529,0 0,45.1805 0,51.3164 113.361,129.793 126.723,0 97.1529,0"/>
<polyline fill="none" stroke="#1a1a1a" stroke-width="1" points="126.723,0 113.361,129.793 242.067,70.8466 147.491,0 126.723,0"/>
<polyline fill="none" stroke="#1a1a1a" stroke-width="1" points="0,685.638 108.765,730.509 102.292,617.219 0,676.013 0,685.638"/>
<polyline fill="none" stroke="#1a1a1a" stroke-width="1" points="0,676.013 102.292,617.219 0,569.954 0,676.013"/>
<polyline fill="none" stroke="#1a1a1a" stroke-width="1" points="254.048,0 242.067,70.8466 377.878,22.8417 351.026,0 254.048,0"/>
<polyline fill="none" stroke="#1a1a1a" stroke-width="1" points="147.491,0 242.067,70.8466 254.048,0 147.491,0"/>
<polyline fill="none" stroke="#1a1a1a" stroke-width="1" points="351.026,0 377.878,22.8417 383.762,0 351.026,0"/>
<polyline fill="none" stroke="#1a1a1a" stroke-width="1" points="519.307,1040 513.384,1019.76 490.856,1040 519.307,1040"/>
<polyline fill="none" stroke="#1a1a1a" stroke-width="1" points="384.996,1040 369.109,977.032 286.447,1040 384.996,1040"/>
<polyline fill="none" stroke="#1a1a1a" stroke-width="1" points="113.209,855.426 231.55,919.779 217.429,787.537 113.209,855.426 217.429,787.537 108.765,730.509 113.209,855.426"/>
<polyline fill="none" stroke="#1a1a1a" stroke-width="1" points="1546.01,1040 1557.17,957.617 1428.87,1005.37 1469.92,1040 1546.01,1040"/>
<polyline fill="none" stroke="#1a1a1a" stroke-width="1" points="1665.35,1040 1557.17,957.617 1546.01,1040 1665.35,1040"/>
<polyline fill="none" stroke="#1a1a1a" stroke-width="1" points="1469.92,1040 1428.87,1005.37 1421.82,1040 1469.92,1040"/>
<polyline fill="none" stroke="#1a1a1a" stroke-width="1" points="286.447,1040 369.109,977.032 231.55,919.779 250.184,1040 286.447,1040"/>
<polyline fill="none" stroke="#1a1a1a" stroke-width="1" points="113.185,998.334 201.592,1040 250.184,1040 231.55,919.779 113.185,998.334"/>
<polyline fill="none" stroke="#1a1a1a" stroke-width="1" points="0,0 0,45.1805 97.1529,0 0,0"/>
<polyline fill="none" stroke="#1a1a1a" stroke-width="1" points="1767,1001.99 1682.42,1040 1767,1040 1767,1001.99"/>
<polyline fill="none" stroke="#1a1a1a" stroke-width="1" points="201.592,1040 113.185,998.334 118.391,1040 201.592,1040"/>
<polyline fill="none" stroke="#1a1a1a" stroke-width="1" points="1581.34,0 1694.16,83.3363 1701.84,0 1581.34,0"/>
<polyline fill="none" stroke="#1a1a1a" stroke-width="1" points="1767,54.1208 1694.16,83.3363 1767,143.917 1767,54.1208"/>
<polyline fill="none" stroke="#1a1a1a" stroke-width="1" points="1701.84,0 1694.16,83.3363 1767,54.1208 1767,0 1701.84,0"/>
<polyline fill="none" stroke="#1a1a1a" stroke-width="1" points="8.49994,791.532 113.209,855.426 108.765,730.509 8.49994,791.532 108.765,730.509 0,685.638 0,740.337 8.49994,791.532"/>
<polyline fill="none" stroke="#1a1a1a" stroke-width="1" points="113.185,998.334 231.55,919.779 113.209,855.426 113.185,998.334"/>
<polyline fill="none" stroke="#1a1a1a" stroke-width="1" points="118.391,1040 113.185,998.334 43.4255,1040 118.391,1040"/>
<polyline fill="none" stroke="#1a1a1a" stroke-width="1" points="0,930.586 113.185,998.334 113.209,855.426 0,906.955 0,930.586"/>
<polyline fill="none" stroke="#1a1a1a" stroke-width="1" points="43.4255,1040 113.185,998.334 0,930.586 0,1040 43.4255,1040"/>
<polyline fill="none" stroke="#1a1a1a" stroke-width="1" points="0,906.955 113.209,855.426 8.49994,791.532 0,826.061 0,906.955"/>
<polyline fill="none" stroke="#1a1a1a" stroke-width="1" points="0,791.131 8.49994,791.532 0,740.337 0,791.131"/>
<polyline fill="none" stroke="#1a1a1a" stroke-width="1" points="0,826.061 8.49994,791.532 0,791.131 0,826.061"/>
<polyline fill="none" stroke="#1a1a1a" stroke-width="1" points="1276.23,493.179 1363.38,504.827"/>
<polyline fill="none" stroke="#1a1a1a" stroke-width="1" points="1164.12,480.059 1276.23,493.179"/>
<polyline fill="none" stroke="#1a1a1a" stroke-width="1" points="1044.25,468.174 1164.12,480.059"/>
<polyline fill="none" stroke="#1a1a1a" stroke-width="1" points="915.9,458.279 1044.25,468.174"/>
<polyline fill="none" stroke="#1a1a1a" stroke-width="1" points="476.273,504.827 550.316,466.201 664.613,453.723 787.303,452.593 915.9,458.279"/>
<polyline fill="none" stroke="#1a1a1a" stroke-width="1" points="550.316,543.454 476.273,504.827"/>
<polyline fill="none" stroke="#1a1a1a" stroke-width="1" points="664.613,555.931 550.316,543.454"/>
<polyline fill="none" stroke="#1a1a1a" stroke-width="1" points="787.303,557.061 664.613,555.931"/>
<polyline fill="none" stroke="#1a1a1a" stroke-width="1" points="915.9,551.375 787.303,557.061"/>
<polyline fill="none" stroke="#1a1a1a" stroke-width="1" points="1363.38,504.827 1276.23,516.476 1164.12,529.596 1044.25,541.48 915.9,551.375"/>
</g>
</svg>
